<svg id="Layer_1" data-name="Layer 1" xmlns="http://www.w3.org/2000/svg" width="10.58mm" height="10.58mm" viewBox="0 0 30 30"><defs><style>.cls-1{fill:#c7beb5;}</style></defs><title>Artboard 1</title><g id="Home_Page" data-name="Home Page"><g id="home-_3_" data-name="home-(3)"><path id="Shape" class="cls-1" d="M25.8,12.2,15.3,5.1a.85.85,0,0,0-.7,0L4.2,12.2a.49.49,0,0,0-.1.7.53.53,0,0,0,.8.1L15,6.2,25.1,13a.37.37,0,0,0,.3.1c.2,0,.3-.1.5-.2A.49.49,0,0,0,25.8,12.2Z"/><path id="Shape-2" data-name="Shape" class="cls-1" d="M22.7,13.1a.65.65,0,0,0-.6.6v9.1H17.7v-5a2.8,2.8,0,1,0-5.6,0v5H7.7V13.7a.58.58,0,0,0-.6-.6c-.4,0-.5.3-.5.6v9.7a.58.58,0,0,0,.6.6h5.5a.63.63,0,0,0,.6-.5h0V17.9a1.7,1.7,0,0,1,3.4,0v5.6h0a.56.56,0,0,0,.6.5h5.5a.65.65,0,0,0,.6-.6V13.7C23.2,13.4,23,13.1,22.7,13.1Z"/></g></g></svg>