<svg id="Layer_1" data-name="Layer 1" xmlns="http://www.w3.org/2000/svg" width="10.58mm" height="10.58mm" viewBox="0 0 30 30"><defs><style>.cls-1{fill:#c7beb5;}</style></defs><title>Artboard 1</title><path class="cls-1" d="M14.94,16.51a.52.52,0,0,0-.24.91.47.47,0,0,0,.28.11h5.88a.44.44,0,0,0,.35-.13.52.52,0,0,0,.17-.38.51.51,0,0,0-.5-.51H14.94Z"/><path class="cls-1" d="M20.89,18.79H14.94a.51.51,0,0,0-.43.55.5.5,0,0,0,.19.36.47.47,0,0,0,.28.11h5.88a.47.47,0,0,0,.35-.13.52.52,0,0,0,.17-.38A.51.51,0,0,0,20.89,18.79Z"/><path class="cls-1" d="M20.89,21.07H14.94a.52.52,0,0,0-.24.91.47.47,0,0,0,.28.11h5.88a.45.45,0,0,0,.35-.13.52.52,0,0,0,.17-.38A.51.51,0,0,0,20.89,21.07ZM15,21.32Z"/><path class="cls-1" d="M6.39,17.53h5.88a.45.45,0,0,0,.35-.13.52.52,0,0,0,.17-.38.51.51,0,0,0-.5-.51h-6a.54.54,0,0,0-.42.57.53.53,0,0,0,.2.35A.48.48,0,0,0,6.39,17.53Zm0-.77Z"/><path class="cls-1" d="M24.32,9.44h-.75V6.32a1.54,1.54,0,0,0-1.46-1.57H5.2A1.52,1.52,0,0,0,3.75,6.32V23A1.52,1.52,0,0,0,5.2,24.54H24.71v-.05A1.55,1.55,0,0,0,25.78,23V11A1.54,1.54,0,0,0,24.32,9.44Zm-.08,14.08a.64.64,0,0,1-.24-.07c-.12-.06-.43-.23-.43-1.2V10.47h.75a.52.52,0,0,1,.49.54V23a.52.52,0,0,1-.49.55ZM4.72,23V6.32a.51.51,0,0,1,.48-.54h16.9a.52.52,0,0,1,.49.54V22.25a3.1,3.1,0,0,0,.24,1.27H5.2A.52.52,0,0,1,4.72,23Z"/><path class="cls-1" d="M17.56,14.74a.51.51,0,0,0-.49-.51H10.19a.52.52,0,0,0,0,1h6.85A.51.51,0,0,0,17.56,14.74Z"/><path class="cls-1" d="M6.39,22.09h5.88a.46.46,0,0,0,.35-.13.52.52,0,0,0,.17-.38.51.51,0,0,0-.5-.51h-6a.51.51,0,0,0-.22.92A.48.48,0,0,0,6.39,22.09Zm0-.77h0Z"/><path class="cls-1" d="M10.19,12.46h6.94a.51.51,0,0,0,.49-.51V7.54A.52.52,0,0,0,17.13,7h-7a.52.52,0,0,0-.42.51v4.41A.51.51,0,0,0,10.19,12.46ZM16.63,8v3.39h-6V8Z"/><path class="cls-1" d="M6.39,19.81h5.88a.44.44,0,0,0,.35-.13.52.52,0,0,0,.17-.38.51.51,0,0,0-.5-.51h-6a.51.51,0,0,0-.22.92A.48.48,0,0,0,6.39,19.81Z"/></svg>