<svg id="Layer_1" data-name="Layer 1" xmlns="http://www.w3.org/2000/svg" width="10.58mm" height="10.58mm" viewBox="0 0 30 30"><defs><style>.cls-1{fill:#c7beb5;}.cls-2{fill:#70c8be;}.cls-3{fill:#739dff;}.cls-4{fill:#ff6366;}</style></defs><title>Artboard 1</title><g id="network"><path id="Shape" class="cls-1" d="M22.93,5a2.07,2.07,0,0,0-1.82,3.06l-3.4,3.4a2.75,2.75,0,0,0-3.38,0L11.68,8.81a1.36,1.36,0,0,0,.2-.7,1.38,1.38,0,1,0-1.38,1.38,1.36,1.36,0,0,0,.7-.2l2.65,2.65a2.75,2.75,0,0,0,0,3.38L9.46,19.7a2.05,2.05,0,1,0,.43.55l4.43-4.43a2.75,2.75,0,0,0,1.35.56v3.51a2.07,2.07,0,1,0,.69,0V16.38a2.75,2.75,0,0,0,1.35-.56l2.65,2.65a1.36,1.36,0,0,0-.2.7,1.38,1.38,0,1,0,1.38-1.38,1.36,1.36,0,0,0-.7.2L18.2,15.33a2.75,2.75,0,0,0,0-3.38l3.34-3.34A2.07,2.07,0,1,0,22.93,5ZM9.8,8.11a.69.69,0,1,1,.69.69A.69.69,0,0,1,9.8,8.11ZM22.24,19.16a.69.69,0,1,1-.69-.69A.69.69,0,0,1,22.24,19.16Zm.69-10.71a1.38,1.38,0,1,1,1.38-1.38A1.38,1.38,0,0,1,22.93,8.45Z"/><path id="Path" class="cls-2" d="M8.07,22.62a1.38,1.38,0,1,1,1.38-1.38A1.38,1.38,0,0,1,8.07,22.62Z"/><path id="Path-2" data-name="Path" class="cls-3" d="M17.4,21.93A1.38,1.38,0,1,1,16,20.55,1.38,1.38,0,0,1,17.4,21.93Z"/><path id="Path-3" data-name="Path" class="cls-4" d="M16,15.71a2.07,2.07,0,1,1,2.07-2.07A2.07,2.07,0,0,1,16,15.71Z"/></g></svg>