<svg id="Layer_1" data-name="Layer 1" xmlns="http://www.w3.org/2000/svg" width="10.58mm" height="10.58mm" viewBox="0 0 30 30"><defs><style>.cls-1{fill:#c7beb5;}</style></defs><title>Artboard 1</title><g id="Home_Page" data-name="Home Page"><path id="Shape" class="cls-1" d="M23.89,22.61a2.2,2.2,0,0,1-.64-1.55V19.5a2.24,2.24,0,0,0-.75-1.66V9A1.5,1.5,0,0,0,21,7.5H18.75V6.37a.38.38,0,1,0-.75,0V7.5H11.25V6.37a.37.37,0,1,0-.75,0V7.5h-3A1.5,1.5,0,0,0,6,9V21a1.5,1.5,0,0,0,1.5,1.5H18.2l-.09.11a.37.37,0,0,0,.27.64h1.87a.75.75,0,1,0,1.5,0h1.87a.37.37,0,0,0,.27-.64ZM6.75,9a.75.75,0,0,1,.75-.75h3V9a.75.75,0,1,0,.75.75V8.25H18V9a.75.75,0,1,0,.75.75V8.25H21a.75.75,0,0,1,.75.75v2.25h-15Zm12,12.06a2.17,2.17,0,0,1-.12.69H7.5A.75.75,0,0,1,6.75,21V12h15v5.39a2.22,2.22,0,0,0-.75-.14,2.25,2.25,0,0,0-2.25,2.25Zm.37,1.44a3,3,0,0,0,.38-1.44V19.5a1.5,1.5,0,1,1,3,0v1.56a3,3,0,0,0,.38,1.44H19.12Z"/></g></svg>