<?xml version="1.0" encoding="iso-8859-1"?>
<!-- Generator: Adobe Illustrator 19.0.0, SVG Export Plug-In . SVG Version: 6.00 Build 0)  -->
<svg version="1.1" id="Capa_1" xmlns="http://www.w3.org/2000/svg" xmlns:xlink="http://www.w3.org/1999/xlink" x="0px" y="0px"
	 viewBox="0 0 512 512" style="enable-background:new 0 0 512 512;" xml:space="preserve">
<g>
	<g>
		<path d="M511.96,204.427L500.168,47.773c-0.762-8.969-5.548-18.959-11.042-24.451c-0.159-0.16-0.327-0.307-0.496-0.449
			c-5.52-5.591-13.335-9.916-24.15-10.741c-0.02-0.001-0.039-0.003-0.058-0.005c-0.094-0.007-155.958-11.739-156.051-11.743
			c-12.313-0.878-27.441,8.59-33.377,31.286L209.76,269.005c-14.375,15.076-43.67,38.422-89.424,41.856
			c-35.963,2.701-62.622,17.597-72.83,51.685c-1.184,3.956,1.062,8.123,5.019,9.308c3.957,1.184,8.122-1.063,9.308-5.019
			c7.646-25.534,26.592-38.582,59.623-41.063c47.497-3.565,79.043-26.566,95.956-43.221l12.653,12.651
			c-17.806,17.626-51.758,42.595-103.705,46.494c-79.729,5.983-40.418,84.247-58.493,128.529
			c-6.772,16.585-20.715,25.247-42.625,26.478c-2.521,0.148-5.243-0.989-7.275-3.02c-4.909-4.913-3.696-12.566,2.65-12.923
			c47.08-2.646,33.93-46.21,37.32-91.163c0.311-4.117-2.776-7.707-6.894-8.018c-4.111-0.318-7.708,2.776-8.018,6.894
			c-0.737,9.765-0.661,19.566-0.594,28.213c0.322,41.142-2.853,48.031-22.654,49.143c-6.148,0.346-11.573,3.111-15.275,7.787
			c-6.825,8.62-5.914,21.828,2.889,30.64c5.031,5.028,11.823,7.761,18.689,7.378c27.472-1.543,46.71-13.908,55.63-35.756
			c6.899-16.901,6.744-36.662,6.595-55.771c-0.348-44.834,2.779-60.767,39.173-63.497c60.073-4.509,98.145-34.975,116.515-54.259
			l174.866-47.515c3.985-1.083,6.338-5.191,5.255-9.177c-1.083-3.985-5.19-6.335-9.177-5.255l-171.83,46.692l-3.594-3.594
			L394.55,128.469l91.125,91.124c-4.825,2.392-4.976,2.19-45.269,13.265c-3.982,1.095-6.323,5.21-5.228,9.192
			c1.095,3.981,5.207,6.321,9.192,5.228c32.693-8.986,51.128-12.506,58.758-21.92C509.77,218.701,512.36,210.207,511.96,204.427z
			 M228.939,272.931l-3.725-3.725C294.9,15.663,289.672,32.794,292.772,26.692l91.204,91.204L228.939,272.931z M303.28,16.053
			c1.271-0.479,2.859-0.83,4.145-0.746c169.737,12.775,158.731,11.023,165.049,14.091l-77.924,77.923L303.28,16.053z
			 M496.373,209.145l-91.249-91.248l77.677-77.677c1.931,4.164,2.381,7.904,2.46,8.748
			C497.995,218.143,497.517,205.996,496.373,209.145z"/>
	</g>
</g>
<g>
</g>
<g>
</g>
<g>
</g>
<g>
</g>
<g>
</g>
<g>
</g>
<g>
</g>
<g>
</g>
<g>
</g>
<g>
</g>
<g>
</g>
<g>
</g>
<g>
</g>
<g>
</g>
<g>
</g>
</svg>
