<svg id="Layer_1" data-name="Layer 1" xmlns="http://www.w3.org/2000/svg" width="10.58mm" height="10.58mm" viewBox="0 0 30 30"><defs><style>.cls-1{fill:#c7beb5;}</style></defs><title>Artboard 1</title><g id="Home_Page" data-name="Home Page"><g id="radio"><path id="Shape" class="cls-1" d="M20.8,12.5H9.2a1.38,1.38,0,0,0-1.34,1.41v.94A1.38,1.38,0,0,0,9.2,16.25H20.8a1.38,1.38,0,0,0,1.34-1.41v-.94A1.38,1.38,0,0,0,20.8,12.5Zm.45,2.34a.46.46,0,0,1-.45.47H18.57v-.94a.45.45,0,1,0-.89,0v.94H9.2a.46.46,0,0,1-.45-.47v-.94a.46.46,0,0,1,.45-.47H20.8a.46.46,0,0,1,.45.47v.94Z"/><path id="Shape-2" data-name="Shape" class="cls-1" d="M20.9,16.87a1.25,1.25,0,1,0,1.24,1.25A1.25,1.25,0,0,0,20.9,16.87Zm0,1.67a.42.42,0,1,1,.41-.42A.42.42,0,0,1,20.9,18.54Z"/><path id="Shape-3" data-name="Shape" class="cls-1" d="M20.9,20.62a1.25,1.25,0,1,0,1.24,1.25A1.25,1.25,0,0,0,20.9,20.62Zm0,1.67a.42.42,0,1,1,.41-.42A.42.42,0,0,1,20.9,22.29Z"/><path id="Shape-4" data-name="Shape" class="cls-1" d="M14.56,17a.44.44,0,0,0-.63,0L8.61,22.36a.45.45,0,0,0,0,.63.44.44,0,0,0,.63,0l5.32-5.36A.45.45,0,0,0,14.56,17Z"/><path id="Shape-5" data-name="Shape" class="cls-1" d="M12.07,17a.46.46,0,0,0-.66,0L8.62,19.82a.47.47,0,0,0,0,.66.46.46,0,0,0,.66,0l2.79-2.81A.47.47,0,0,0,12.07,17Z"/><path id="Shape-6" data-name="Shape" class="cls-1" d="M9.6,17A.41.41,0,0,0,9,17l-.41.42a.42.42,0,0,0,0,.59.41.41,0,0,0,.59,0l.41-.42A.42.42,0,0,0,9.6,17Z"/><path id="Shape-7" data-name="Shape" class="cls-1" d="M17.05,22a.41.41,0,0,0-.59,0l-.41.42a.42.42,0,0,0,0,.59.41.41,0,0,0,.59,0l.41-.42A.42.42,0,0,0,17.05,22Z"/><path id="Shape-8" data-name="Shape" class="cls-1" d="M17,17a.44.44,0,0,0-.63,0L11.1,22.36a.45.45,0,0,0,0,.63.44.44,0,0,0,.63,0L17,17.64A.45.45,0,0,0,17,17Z"/><path id="Shape-9" data-name="Shape" class="cls-1" d="M17,19.51a.46.46,0,0,0-.66,0l-2.79,2.81a.47.47,0,0,0,0,.66.46.46,0,0,0,.66,0L17,20.18A.47.47,0,0,0,17,19.51Z"/><path id="Shape-10" data-name="Shape" class="cls-1" d="M22.65,10.45H11a.45.45,0,0,0,0,.91h11.7a.45.45,0,0,1,.45.45V23.64a.45.45,0,0,1-.45.45H7.35a.45.45,0,0,1-.45-.45V11.82a.45.45,0,0,1,.45-.45h1.8a.45.45,0,0,0,.45-.45v-.57L19.77,7.17a1.34,1.34,0,0,0,1.08.55,1.36,1.36,0,1,0-1.34-1.42L9,9.57A.45.45,0,0,0,8.7,10v.45H7.35A1.36,1.36,0,0,0,6,11.82V23.64A1.36,1.36,0,0,0,7.35,25h15.3A1.36,1.36,0,0,0,24,23.64V11.82A1.36,1.36,0,0,0,22.65,10.45Zm-1.8-4.55a.45.45,0,1,1-.45.45A.45.45,0,0,1,20.85,5.91Z"/></g></g></svg>