<svg id="Layer_1" data-name="Layer 1" xmlns="http://www.w3.org/2000/svg" width="10.58mm" height="10.58mm" viewBox="0 0 30 30"><defs><style>.cls-1{fill:#c7beb5;}</style></defs><title>Artboard 1</title><path class="cls-1" d="M23.73,10.1H16.34l2.1-3.51a.48.48,0,0,0-.52-.73.45.45,0,0,0-.28.21L15.49,9.69,13,6a.48.48,0,0,0-.66-.1.51.51,0,0,0-.1.66l2.36,3.5H7.27a1.44,1.44,0,0,0-1.42,1.46V22.71a1.44,1.44,0,0,0,1.42,1.46h.17v.51a.47.47,0,1,0,.93,0v-.51H22.63v.51a.47.47,0,1,0,.93,0v-.51h.17a1.44,1.44,0,0,0,1.42-1.46V11.56A1.44,1.44,0,0,0,23.73,10.1Zm-17,1.46a.5.5,0,0,1,.48-.51H23.73a.5.5,0,0,1,.48.51V22.71a.5.5,0,0,1-.48.5H7.27a.5.5,0,0,1-.48-.5Z"/><path class="cls-1" d="M9.31,22.81h8.87a1.92,1.92,0,0,0,1.9-1.93V13.78a1.92,1.92,0,0,0-1.9-1.93H9.31a1.92,1.92,0,0,0-1.9,1.93v7.09A1.92,1.92,0,0,0,9.31,22.81ZM8,13.78a1.28,1.28,0,0,1,1.27-1.29h8.87a1.28,1.28,0,0,1,1.27,1.29v7.09h0a1.28,1.28,0,0,1-1.27,1.29H9.31A1.28,1.28,0,0,1,8,20.87Z"/><path class="cls-1" d="M21.06,14h2.25c.17,0,.28-.15.28-.37s-.11-.37-.28-.37H21.06c-.17,0-.28.15-.28.37S20.89,14,21.06,14Z"/><path class="cls-1" d="M21.06,15.5h2.25c.17,0,.28-.15.28-.37s-.11-.37-.28-.37H21.06c-.17,0-.28.15-.28.37S20.89,15.5,21.06,15.5Z"/><path class="cls-1" d="M21.06,19.88h2.25a.27.27,0,0,0,.28-.29V17.25a.27.27,0,0,0-.28-.29H21.06a.27.27,0,0,0-.28.29v2.34A.27.27,0,0,0,21.06,19.88Zm.28-2.34H23V19.3H21.34Z"/><path class="cls-1" d="M9,16.23a.21.21,0,0,0,.16-.07l.23-.24a.24.24,0,0,0,0-.34.22.22,0,0,0-.33,0l-.23.24a.24.24,0,0,0,0,.34A.21.21,0,0,0,9,16.23Z"/><path class="cls-1" d="M11.21,14a.25.25,0,0,0,.2-.09l.84-.88a.29.29,0,0,0,0-.41.27.27,0,0,0-.39,0l-.84.88A.29.29,0,0,0,11,14,.25.25,0,0,0,11.21,14Z"/><path class="cls-1" d="M9.87,15.5a.37.37,0,1,0-.35-.37A.34.34,0,0,0,9.87,15.5Z"/></svg>