<svg id="Layer_1" data-name="Layer 1" xmlns="http://www.w3.org/2000/svg" width="10.58mm" height="10.58mm" viewBox="0 0 30 30"><defs><style>.cls-1{fill:#c7beb5;}</style></defs><title>Artboard 1</title><g id="Home_Page" data-name="Home Page"><path id="Shape" class="cls-1" d="M23,22.29,21.78,9.39a.57.57,0,0,0-.58-.5H18.7A4.09,4.09,0,0,0,14.5,5a4.09,4.09,0,0,0-4.2,3.89H7.8a.57.57,0,0,0-.58.5L6,22.29s0,0,0,0A3,3,0,0,0,9.19,25H19.81A3,3,0,0,0,23,22.34.19.19,0,0,0,23,22.29ZM14,6a3,3,0,0,1,3,3H11A3,3,0,0,1,14,6Zm5.94,18H9.06A1.88,1.88,0,0,1,7,22.45L8.19,10h2v1.69a.6.6,0,0,0,1.2,0V10h6.19v1.69a.6.6,0,0,0,1.2,0V10h2L22,22.45A1.88,1.88,0,0,1,19.94,24Z"/></g></svg>