<?xml version="1.0" encoding="UTF-8"?>
<svg width="13px" height="16px" viewBox="0 0 13 16" version="1.1" xmlns="http://www.w3.org/2000/svg" xmlns:xlink="http://www.w3.org/1999/xlink">
    <!-- Generator: Sketch 46.2 (44496) - http://www.bohemiancoding.com/sketch -->
    <title>ICO@3x</title>
    <desc>Created with Sketch.</desc>
    <defs></defs>
    <g id="HOME-SCRREN-V3" stroke="none" stroke-width="1" fill="none" fill-rule="evenodd">
        <g id="HOME-SCREEN-3.3" transform="translate(-107.000000, -90.000000)" stroke-width="0.5" stroke="#333333" fill="#333333" fill-rule="nonzero">
            <g id="SUBHEADER" transform="translate(0.000000, 70.000000)">
                <g id="Group-65" transform="translate(100.000000, 10.000000)">
                    <g id="LOCATION">
                        <g id="ICO" transform="translate(8.000000, 11.000000)">
                            <path d="M5.5,3 C4.13138686,3 3,4.125 3,5.5 C3,6.875 4.11313869,8 5.5,8 C6.88686131,8 8,6.875 8,5.5 C8,4.125 6.86861314,3 5.5,3 Z M5.5,7.46428571 C4.42335766,7.46428571 3.54744526,6.58928571 3.54744526,5.5 C3.54744526,4.41071429 4.42335766,3.53571429 5.5,3.53571429 C6.57664234,3.53571429 7.45255474,4.41071429 7.45255474,5.5 C7.45255474,6.58928571 6.57664234,7.46428571 5.5,7.46428571 Z" id="Shape"></path>
                            <path d="M5.50903862,0 C2.61668036,0 0.21240756,2.32727273 0.0135579293,5.30909091 C-0.040673788,6.07272727 0.0677896467,6.81818182 0.338948233,7.56363636 C0.592029581,8.27272727 1.02588332,8.94545455 1.58627773,9.56363636 L5.31018899,13.9090909 C5.36442071,13.9636364 5.43672966,14 5.50903862,14 C5.58134758,14 5.67173377,13.9636364 5.70788825,13.9090909 L9.41372227,9.56363636 C9.99219392,8.94545455 10.4079704,8.27272727 10.6610518,7.56363636 C10.9322104,6.81818182 11.0406738,6.07272727 10.9864421,5.30909091 C10.8056697,2.32727273 8.40139688,0 5.50903862,0 Z M10.1729663,7.36363636 C9.9379622,8.01818182 9.55834018,8.61818182 9.01602301,9.18181818 L5.50903862,13.3090909 L1.98397699,9.18181818 C1.45973706,8.61818182 1.08011504,8.01818182 0.845110929,7.36363636 C0.61010682,6.69090909 0.501643385,6.01818182 0.555875103,5.34545455 C0.718570255,2.98181818 2.61668036,0.545454545 5.50903862,0.545454545 C8.40139688,0.545454545 10.3175842,2.98181818 10.4622021,5.34545455 C10.5164339,6.01818182 10.4079704,6.70909091 10.1729663,7.36363636 Z" id="Shape"></path>
                        </g>
                    </g>
                </g>
            </g>
        </g>
    </g>
</svg>