<?xml version="1.0" encoding="UTF-8"?>
<svg width="482px" height="96px" viewBox="0 0 482 96" version="1.1" xmlns="http://www.w3.org/2000/svg" xmlns:xlink="http://www.w3.org/1999/xlink">
    <!-- Generator: Sketch 46.2 (44496) - http://www.bohemiancoding.com/sketch -->
    <title>Group 84@3x</title>
    <desc>Created with Sketch.</desc>
    <defs>
        <polygon id="path-1" points="0.0190443686 22.6619708 0.0190443686 0.187578947 19.9764385 0.187578947 19.9764385 22.6619708 0.0190443686 22.6619708"></polygon>
    </defs>
    <g id="HOME-SCRREN-V3" stroke="none" stroke-width="1" fill="none" fill-rule="evenodd">
        <g id="HOME-SCREEN-3.3" transform="translate(-816.000000, -5326.000000)">
            <g id="Group-24" transform="translate(0.000000, 5235.000000)">
                <g id="Group-84" transform="translate(816.000000, 91.000000)">
                    <g id="Group-60" transform="translate(125.000000, 0.000000)">
                        <path d="M35.2216075,30.2425263 C34.8245324,30.5605263 34.4436451,30.8981053 34.070058,31.2432632 C33.4523857,31.8135789 32.8734369,32.4249474 32.3344812,33.0691579 C31.7463276,33.7727368 31.2026109,34.512 30.7315802,35.2983158 C30.2872116,36.0394737 29.9085461,36.8172632 29.5657474,37.6095789 C29.4092662,37.9711579 29.2727816,38.3406316 29.1315358,38.7082105 C29.00743,39.0325263 28.8830068,39.3571579 28.7585836,39.6814737 C28.6662184,39.9214737 28.6021024,40.176 28.5256075,40.4210526 C28.429116,40.7295789 28.3326246,41.0384211 28.2354983,41.3469474 C28.118058,41.7205263 28.0358498,42.1089474 27.9504676,42.4904211 C27.8501672,42.9401053 27.7739898,43.3945263 27.7063823,43.8498947 C27.5619625,44.8222105 27.4686451,45.7964211 27.3731058,46.7741053 C27.3143857,47.3696842 27.289628,47.9693684 27.2518567,48.5665263 C27.1801229,49.7008421 27.1321945,50.8367368 27.0966451,51.9732632 C27.0861706,52.3225263 27.0750614,52.6721053 27.0642696,53.022 C27.0556997,53.3163158 27.0598259,53.6118947 27.063,53.9062105 C27.0690307,54.4578947 27.1337816,54.9963158 27.2090068,55.5423158 C27.3248601,56.3883158 27.5667235,57.1964211 27.8911126,57.9843158 C28.2481945,58.8530526 28.6465392,59.6933684 29.1448669,60.4907368 C29.6314505,61.2697895 30.1999249,61.9995789 30.7982355,62.6962105 C31.342587,63.3296842 31.9488328,63.9003158 32.6020546,64.422 C33.3393891,65.0106316 34.1100512,65.5493684 34.9330853,66.0132632 C35.6774027,66.4335789 36.4525085,66.8068421 37.2399932,67.14 C38.2696587,67.5754737 39.3139249,67.9604211 40.3712048,68.3204211 C40.9117474,68.5042105 41.449116,68.7053684 41.9960068,68.8689474 C42.7254061,69.0871579 43.4544881,69.3056842 44.1838874,69.5242105 C45.5842833,69.9435789 47.0256246,70.2337895 48.4828362,70.3670526 C49.3547509,70.4466316 50.2326962,70.3970526 51.1004846,70.2966316 C52.0625427,70.1857895 53.0106348,70.0193684 53.9520614,69.7945263 C55.6432014,69.3909474 57.3054573,68.8708421 58.9175631,68.2206316 C60.595372,67.5448421 62.1858942,66.7010526 63.6770683,65.6794737 C65.1615768,64.6626316 66.5476894,63.4957895 67.795413,62.2016842 C68.3880102,61.5871579 68.9602935,60.9489474 69.5005188,60.2876842 C70.0762935,59.5822105 70.6304846,58.8404211 71.0627918,58.0373684 C71.963273,56.3636842 72.45557,54.5024211 72.5507918,52.6098947 C72.5996724,51.6363158 72.4965154,50.676 72.3587611,49.7137895 C72.2349727,48.8497895 72.0651604,47.9949474 71.8578942,47.1473684 C71.6477713,46.2893684 71.4084471,45.4373684 71.1173857,44.6024211 C70.8174369,43.7447368 70.4733686,42.8902105 70.0372526,42.0912632 C69.603041,41.2970526 69.059959,40.5612632 68.4099113,39.9287368 C67.7700205,39.3056842 67.0304642,38.7742105 66.2655154,38.3150526 C64.7248259,37.3907368 63.0505085,36.6814737 61.3238191,36.1844211 C60.4699966,35.9384211 59.6022082,35.7521053 58.7258498,35.6017895 C57.7822014,35.4401053 56.8312526,35.3201053 55.874273,35.2755789 C55.4391092,35.2553684 55.0033106,35.2556842 54.5684642,35.2784211 C54.033,35.3068421 53.5003925,35.3816842 52.9706416,35.4593684 C52.090157,35.5878947 51.2131638,35.7603158 50.3583891,36.006 C49.4671126,36.2624211 48.6034505,36.6157895 47.7667679,37.0108421 C46.9910273,37.3768421 46.251471,37.8211579 45.5655563,38.3346316 C44.8307611,38.8853684 44.1654778,39.5011579 43.5751024,40.2034737 C42.9821877,40.9086316 42.4543413,41.676 41.9991809,42.4762105 C41.5532253,43.26 41.1894778,44.1025263 40.92,44.9621053 C40.6438567,45.8431579 40.4895973,46.7785263 40.4283379,47.6974737 C40.3664437,48.6347368 40.475314,49.5988421 40.7165427,50.5061053 C40.8381092,50.9624211 41.0291877,51.4029474 41.2307406,51.8292632 C41.4113447,52.2107368 41.6332116,52.5723158 41.8715836,52.9203158 C42.1353481,53.3043158 42.4286314,53.6741053 42.7533379,54.0088421 C43.0989932,54.3644211 43.502099,54.6745263 43.9128225,54.9511579 C44.2997406,55.2110526 44.7428396,55.3875789 45.1751468,55.5562105 C45.568413,55.7090526 45.9788191,55.8161053 46.3908123,55.9070526 C47.3052594,56.1088421 48.2593823,56.1644211 49.1941433,56.1701053 C50.1460444,56.1754737 51.1030239,56.0608421 52.0422287,55.9177895 C52.9125563,55.7848421 53.7628874,55.5701053 54.6186143,55.3692632 C55.2654881,55.2170526 55.9006177,55.0032632 56.5182901,54.7623158 C56.976942,54.5832632 57.431785,54.3896842 57.8653618,54.156 C58.331314,53.9049474 58.7575904,53.6033684 59.1752969,53.2793684 C59.90057,52.7175789 60.512529,52.0241053 61.0232355,51.2652632 C61.2911263,50.8676842 61.4787133,50.4246316 61.6551911,49.9815789 C61.8484915,49.4965263 61.9272082,48.9795789 61.9779932,48.4629474 C61.9967201,48.2668421 61.9862457,48.0707368 61.9630751,47.8758947 C61.927843,47.5809474 61.8859454,47.2954737 61.8065939,47.01 C61.730099,46.7346316 61.6053584,46.4693684 61.4885529,46.2107368 C61.3952355,46.0032632 61.2762082,45.8068421 61.1505154,45.618 C60.6052116,44.796 59.8808908,44.0873684 59.0378601,43.572 C58.6880785,43.3575789 58.2979863,43.1958947 57.9094812,43.0676842 C57.5009795,42.9325263 57.0654983,42.8867368 56.6414437,42.834 C55.8123788,42.7304211 54.9737918,42.8614737 54.154884,42.9896842 C53.442942,43.1014737 52.73957,43.3010526 52.0527031,43.5148421 C51.2639488,43.7602105 50.4882082,44.0725263 49.7480171,44.4363158 C49.0214744,44.7931579 48.3568259,45.2965263 47.7343925,45.8074737 C47.4103208,46.0736842 47.097041,46.3531579 46.7821741,46.6304211 C46.6037918,46.7870526 46.4323925,46.95 46.2603584,47.1126316 C45.9940546,47.3636842 45.7712355,47.6463158 45.5500034,47.9368421 C45.4271672,48.1468421 45.3655904,48.3735789 45.365273,48.6167368 C45.365273,48.9729474 45.509058,49.3181053 45.7617133,49.5697895 C46.014686,49.8211579 46.3619283,49.9645263 46.7196451,49.9645263 C47.0586348,49.9645263 47.4474573,49.8284211 47.6775768,49.5697895 C47.935628,49.2792632 48.2457338,49.0370526 48.5453652,48.7907368 C48.846901,48.5428421 49.1566894,48.3037895 49.465843,48.0650526 C50.1412833,47.5563158 50.8586212,47.1205263 51.6308703,46.7766316 C52.7824198,46.3136842 53.9863413,45.9577895 55.2147031,45.7702105 C55.6666894,45.7206316 56.1139147,45.7064211 56.5668532,45.7468421 C56.8007816,45.7882105 57.0305836,45.8444211 57.2553072,45.9221053 C57.4708259,46.0272632 57.6765051,46.1494737 57.8732969,46.2865263 C58.13357,46.5078947 58.3725768,46.7535789 58.5922218,47.0150526 C58.7341024,47.2143158 58.86043,47.4221053 58.9686655,47.6412632 C59.0204027,47.7903158 59.0619829,47.9412632 59.0946758,48.0953684 C59.1022935,48.2302105 59.1007065,48.3644211 59.0911843,48.4998947 C59.0423038,48.7544211 58.9712048,49.0023158 58.8810614,49.2457895 C58.7290239,49.5641053 58.5474676,49.8625263 58.339884,50.1483158 C58.0154949,50.5414737 57.6577782,50.9021053 57.2629249,51.2248421 C56.7699932,51.5791579 56.2424642,51.8741053 55.6876382,52.1204211 C54.9115802,52.4286316 54.1164778,52.6616842 53.3064573,52.8631579 C53.0080956,52.9373684 52.7100512,53.0118947 52.4116894,53.0861053 C51.9403413,53.2038947 51.4556621,53.2863158 50.9738396,53.3561053 C49.8045154,53.4988421 48.6209078,53.5411579 47.4490444,53.4088421 C46.8834266,53.3194737 46.3254266,53.1792632 45.7905973,52.9752632 C45.5125495,52.8454737 45.2516416,52.6929474 45.0021604,52.5157895 C44.7034812,52.2672632 44.432099,51.9956842 44.1842048,51.6966316 C43.8677509,51.2665263 43.5925597,50.8089474 43.3687884,50.3242105 C43.2002457,49.8855789 43.0856621,49.4324211 43.0088498,48.9691579 C42.9437816,48.3568421 42.9526689,47.7423158 43.0215461,47.1306316 C43.1478737,46.3073684 43.3621229,45.5062105 43.6728635,44.7322105 C44.0899352,43.7965263 44.6241297,42.9151579 45.240215,42.096 C45.7423515,41.4723158 46.3070171,40.9004211 46.9326246,40.3995789 C47.7877167,39.7689474 48.7199386,39.2611579 49.6946928,38.8386316 C51.0255768,38.3027368 52.4234334,37.9749474 53.8425563,37.7709474 C55.045843,37.6285263 56.2554778,37.6667368 57.4574949,37.8145263 C59.2825802,38.0728421 61.0835427,38.5070526 62.7915051,39.2024211 C63.3583925,39.4477895 63.9106792,39.7206316 64.4524915,40.0174737 C64.985099,40.3095789 65.5053276,40.6237895 65.9944505,40.9831579 C66.4575461,41.3538947 66.8908055,41.7593684 67.2675666,42.2169474 C67.6840034,42.7882105 68.022041,43.4131579 68.3067543,44.0592632 C68.7089078,45.0448421 69.0237747,46.0610526 69.2894437,47.0917895 C69.5557474,48.1256842 69.768727,49.1684211 69.9204471,50.2250526 C69.9848805,50.7356842 70.0302696,51.2472632 70.0385222,51.7623158 C70.0464573,52.2754737 70.0178908,52.7889474 69.9591706,53.2989474 C69.8230034,54.1796842 69.5824096,55.0376842 69.2481809,55.8644211 C69.0761468,56.2503158 68.8853857,56.6273684 68.6679625,56.9902105 C68.4422867,57.3666316 68.1826485,57.7231579 67.9163447,58.0724211 C67.2691536,58.8843158 66.5492765,59.6444211 65.8176553,60.3802105 C65.0815904,61.1191579 64.295058,61.8094737 63.4732935,62.4521053 C61.9253038,63.6195789 60.2455904,64.6177895 58.4620853,65.3864211 C57.3362457,65.8458947 56.1786655,66.2343158 55.0099761,66.5703158 C53.8006587,66.918 52.5691229,67.2214737 51.3226689,67.404 C50.798314,67.4684211 50.272372,67.5132632 49.7435734,67.5287368 C49.2017611,67.5438947 48.6624881,67.5110526 48.1251195,67.4482105 C47.0027713,67.2821053 45.9010546,67.0127368 44.8164778,66.6833684 C44.1216758,66.4727368 43.4278259,66.2614737 42.7330239,66.0511579 C42.2004164,65.8891579 41.6766962,65.6911579 41.149802,65.5105263 C40.279157,65.2124211 39.4145427,64.9032632 38.562942,64.5543158 C37.1933345,63.9644211 35.8735597,63.2570526 34.6769386,62.3677895 C34.252884,62.0321053 33.8466041,61.6765263 33.4644471,61.2941053 C33.0638805,60.8927368 32.6950546,60.4601053 32.3417816,60.0170526 C31.6498362,59.0987368 31.0785051,58.1093684 30.6147747,57.0587368 C30.4716246,56.7066316 30.3421229,56.3497895 30.2364266,55.9841053 C30.1256519,55.6023158 30.0466177,55.2116842 29.9859932,54.8188421 C29.8755358,53.8222105 29.9234642,52.8142105 29.9456826,51.8141053 C29.9580614,51.2494737 29.9771058,50.6861053 29.9990068,50.1221053 C30.0437611,48.9663158 30.0774061,47.8073684 30.174215,46.6550526 C30.2402355,45.8636842 30.3030819,45.0751579 30.40243,44.2872632 C30.5151092,43.4987368 30.6598464,42.7076842 30.8820307,41.9428421 C31.0188328,41.4713684 31.1562696,40.9998947 31.2933891,40.5287368 C31.383215,40.2192632 31.5047816,39.9183158 31.6139693,39.6151579 C31.7660068,39.1932632 31.9129659,38.7701053 32.0821433,38.3548421 C32.3579693,37.7216842 32.6626792,37.1021053 33.0013515,36.4998947 C33.3397065,35.8992632 33.7259898,35.3283158 34.1430614,34.7797895 C34.5683857,34.2451579 35.0225939,33.7342105 35.5018771,33.2469474 C35.9056177,32.8364211 36.3245939,32.4312632 36.7664232,32.0614737 C37.2168225,31.6847368 37.6672218,31.3083158 38.1173038,30.9318947 C38.4807338,30.6615789 38.8441638,30.3922105 39.2079113,30.1222105 C39.5748328,29.8496842 39.9684164,29.6118947 40.3505734,29.3611579 C40.7140034,29.1230526 41.0875904,28.9108421 41.4656212,28.6961053 C42.168041,28.2963158 42.8758567,27.9138947 43.6176348,27.5889474 C44.6326997,27.1774737 45.6810922,26.8736842 46.7656689,26.7107368 C47.4131775,26.6362105 48.0721126,26.6169474 48.7212082,26.6854737 C48.9100648,26.7176842 49.0928908,26.7596842 49.2731775,26.8234737 C49.4756826,26.916 49.6750137,27.0161053 49.8708532,27.1218947 C50.3853686,27.3994737 51.0379556,27.2526316 51.3401263,26.7382105 C51.6289659,26.2481053 51.4689932,25.554 50.9551126,25.2761053 C50.5745427,25.0708421 50.1803242,24.8826316 49.7734096,24.7332632 C49.5899488,24.666 49.3909352,24.6363158 49.1982696,24.6056842 C48.9002253,24.5586316 48.6005939,24.5254737 48.299058,24.5087368 C48.1416246,24.4998947 47.9835563,24.4957895 47.8258055,24.4957895 C47.0548259,24.4957895 46.2825768,24.5955789 45.5271502,24.7376842 C44.6780887,24.8971579 43.8582287,25.146 43.0520171,25.4526316 C42.3457884,25.7210526 41.6398771,26.0321053 40.9755461,26.3911579 C40.6336997,26.5755789 40.2921706,26.76 39.950959,26.9444211 C39.7665461,27.0438947 39.5824505,27.1402105 39.4050205,27.2507368 C38.8898703,27.5722105 38.3664676,27.8810526 37.8709966,28.2322105 C37.3114096,28.6285263 36.7502355,29.0185263 36.2154061,29.4470526 C35.8840341,29.7123158 35.5529795,29.9772632 35.2216075,30.2425263" id="Fill-1" fill="#FFFFFF"></path>
                        <path d="M60.3931843,23.2964211 C60.9991126,22.6698947 61.6101195,22.0496842 62.22557,21.4326316 C62.5159966,21.1417895 62.8064232,20.8509474 63.0965324,20.5604211 C63.190802,20.4650526 63.2831672,20.3674737 63.3831502,20.2781053 C64.3464778,19.4141053 65.307901,18.5472632 66.2740853,17.6854737 C66.6556075,17.3450526 67.0587133,17.0254737 67.4500751,16.6964211 C67.8950785,16.3225263 68.3403993,15.948 68.7857201,15.5734737 C68.8815768,15.4929474 68.9777509,15.4127368 69.0739249,15.3328421 C69.4630648,15.4291579 69.8988635,15.3397895 70.1784983,15.0322105 C70.3581502,14.8351579 70.5365324,14.6362105 70.7092014,14.4331579 C71.0748532,14.0036842 71.4468532,13.5798947 71.7541024,13.1065263 C72.0505597,12.6505263 71.9385154,12.0078947 71.5633413,11.6349474 C71.3354437,11.4082105 71.0227986,11.2793684 70.7006314,11.2793684 C70.5920785,11.2932632 70.483843,11.3081053 70.3759249,11.3226316 C70.1692935,11.3801053 69.9896416,11.484 69.8376041,11.6349474 C69.3399113,12.0429474 68.862215,12.4727368 68.3762662,12.8943158 C67.9382457,13.2745263 67.5014949,13.6553684 67.0625222,14.0343158 C66.1683891,14.8054737 65.2609249,15.5630526 64.3855188,16.3553684 C63.847198,16.8423158 63.3091945,17.3289474 62.7715085,17.8158947 C62.5267884,18.0369474 62.2827031,18.258 62.0383003,18.4787368 C61.9411741,18.5665263 61.8386519,18.6508421 61.7459693,18.744 C60.761058,19.7308421 59.7767816,20.7176842 58.8077406,21.7196842 C58.3846382,22.1573684 58.3697201,22.8606316 58.8077406,23.2964211 C59.2336997,23.7202105 59.9691297,23.7344211 60.3931843,23.2964211" id="Fill-2" fill="#FFFFFF"></path>
                        <path d="M75.4033208,32.9605263 C75.6981911,33.1323158 76.124785,33.2175789 76.4558396,33.0975789 C79.2223515,32.0949474 81.9860068,31.0853684 84.7487099,30.0723158 C85.1267406,29.934 85.5054061,29.7963158 85.8837543,29.6592632 C86.1944949,29.5471579 86.5049181,29.4344211 86.8159761,29.322 C87.0019761,29.2547368 87.1873413,29.1858947 87.3730239,29.1164211 C87.5358532,29.0554737 87.6999522,28.9976842 87.864686,28.9433684 C87.8970614,28.9326316 87.9291195,28.9212632 87.9614949,28.9095789 C88.0087884,28.9143158 88.0554471,28.9168421 88.1008362,28.9168421 C88.4722014,28.9168421 88.8321399,28.7684211 89.0949522,28.5075789 C89.6408908,27.9637895 89.6294642,27.0748421 89.0949522,26.5297895 C88.9898908,26.4227368 88.865785,26.3358947 88.7404096,26.2528421 C88.5064812,26.0971579 88.2357338,26.0769474 87.9653038,26.0576842 C87.9430853,26.0561053 87.9215017,26.0554737 87.8999181,26.0554737 C87.658372,26.0554737 87.4425358,26.1502105 87.2216212,26.2316842 C86.8594608,26.3649474 86.4982526,26.4997895 86.136727,26.6352632 C85.8240819,26.7527368 85.5114369,26.8692632 85.1987918,26.9857895 C84.7223652,27.1642105 84.2459386,27.342 83.7691945,27.5191579 C82.6420853,27.9391579 81.5149761,28.3585263 80.3856451,28.7737895 C78.8341638,29.3431579 77.2826826,29.9115789 75.7296143,30.4762105 C75.3842765,30.6015789 75.1040068,30.7765263 74.9129283,31.1008421 C74.728198,31.4147368 74.6783652,31.7971579 74.7751741,32.148 C74.8691263,32.4877895 75.0979761,32.7827368 75.4033208,32.9605263" id="Fill-3" fill="#FFFFFF"></path>
                        <path d="M92.4937372,66.8649474 C92.3664573,66.6508421 92.1944232,66.4796842 91.9789044,66.3527368 C91.4421706,65.9763158 90.8352901,65.7148421 90.242058,65.4397895 C89.7275427,65.2013684 89.2114403,64.9661053 88.6940683,64.7330526 C87.5879078,64.2344211 86.4826997,63.7313684 85.3787611,63.2261053 C84.3367167,62.7495789 83.2953072,62.2717895 82.254215,61.7933684 C82.1358225,61.7434737 82.0171126,61.6938947 81.8984027,61.644 C81.7666792,61.6086316 81.6349556,61.5909474 81.5029147,61.5909474 C81.3711911,61.5909474 81.2391502,61.6086316 81.1074266,61.644 C80.7351092,61.746 80.4126246,61.9932632 80.2174198,62.3245263 C80.0165017,62.6668421 79.9615904,63.0833684 80.0676041,63.4654737 C80.1618737,63.8058947 80.4177031,64.1971579 80.7516143,64.3509474 C83.3270478,65.5348421 85.9088294,66.7064211 88.4883891,67.8814737 C89.1692253,68.1912632 89.8624403,68.4827368 90.5299454,68.8190526 C90.8822662,68.9965263 91.2469659,69.0697895 91.6361058,68.9630526 C91.9947747,68.8645263 92.3061502,68.6257895 92.4937372,68.3065263 C92.6876724,67.9765263 92.7406792,67.5751579 92.6384744,67.206 C92.5902287,67.0926316 92.5419829,66.9789474 92.4937372,66.8649474" id="Fill-5" fill="#FFFFFF"></path>
                        <path d="M64.562314,79.4576842 C64.6759454,79.6926316 64.8257611,79.9149474 64.9568498,80.1407368 C65.1031741,80.394 65.2399761,80.6567368 65.3986792,80.9030526 C65.5884881,81.1983158 65.7795666,81.4929474 65.9696928,81.7878947 C66.3156655,82.3244211 66.6746519,82.8521053 67.0244334,83.3854737 C67.385959,83.9365263 67.753198,84.4967368 68.015058,85.1024211 C68.1248805,85.2871579 68.2727918,85.434 68.4584744,85.5435789 C68.7438225,85.7096842 69.0920171,85.7545263 69.4106928,85.6673684 C69.719529,85.5827368 69.9874198,85.3771579 70.1492969,85.1024211 C70.3073652,84.8333684 70.3784642,84.4572632 70.2737201,84.1550526 C70.1324744,83.7483158 69.9559966,83.3567368 69.7557133,82.9758947 C69.6157372,82.7090526 69.4325939,82.4643158 69.2602423,82.2186316 C68.9187133,81.7313684 68.5562355,81.2570526 68.2055017,80.7761053 C68.015058,80.5152632 67.8411195,80.2414737 67.6592457,79.9749474 C67.5345051,79.7921053 67.4176997,79.6102105 67.3040683,79.4204211 C67.0993413,79.0784211 66.8942969,78.7361053 66.6898874,78.3941053 C66.5860956,78.2210526 66.5016655,78.0378947 66.4124744,77.8569474 C66.2109215,77.4489474 66.009686,77.0412632 65.8078157,76.6329474 C65.3945529,75.6293684 64.9787509,74.6273684 64.5769147,73.6193684 C64.5372389,73.5258947 64.4975631,73.4324211 64.4582048,73.3389474 C64.3531433,73.1627368 64.212215,73.0228421 64.0351024,72.9183158 C63.8538635,72.8128421 63.6462799,72.7585263 63.437744,72.7585263 C63.333,72.7585263 63.228256,72.7721053 63.1263686,72.7998947 C62.8314983,72.8810526 62.5763038,73.0768421 62.4214096,73.3389474 C62.2763549,73.5862105 62.1925597,73.9654737 62.3026997,74.2430526 C62.6378805,75.0852632 62.979727,75.9236842 63.32443,76.7617895 C63.4250478,77.0065263 63.5259829,77.2512632 63.6266007,77.4963158 C63.7710205,77.8477895 63.9440068,78.1863158 64.1103276,78.528 C64.2610956,78.8381053 64.4115461,79.1478947 64.562314,79.4576842" id="Fill-6" fill="#FFFFFF"></path>
                        <path d="M51.1709488,81.2981053 C51.3109249,81.2412632 51.4302696,81.1389474 51.5070819,81.0085263 C51.6000819,80.8503158 51.6254744,80.6570526 51.5765939,80.4802105 C51.5531058,80.4252632 51.5299352,80.3709474 51.5070819,80.316 C51.4455051,80.2133684 51.3632969,80.1312632 51.2595051,80.07 C51.1065154,79.9531579 50.935116,79.9234737 50.7500683,79.8966316 C50.6888089,79.8884211 50.6275495,79.8798947 50.5662901,79.8716842 C50.4418669,79.8723158 50.3256962,79.9035789 50.2180956,79.9654737 C50.1143038,80.0267368 50.0320956,80.1088421 49.9702014,80.2121053 C49.9079898,80.3191579 49.8765666,80.4347368 49.8762491,80.5585263 C49.8295904,80.9883158 49.7657918,81.4162105 49.7188157,81.846 C49.6689829,82.3073684 49.6632696,82.7709474 49.6743788,83.2345263 C49.6946928,84.0549474 49.785471,84.8712632 49.8270512,85.6904211 C49.8622833,86.3927368 49.8984676,87.0947368 49.9346519,87.7970526 C49.991785,88.9184211 50.0470137,90.0401053 50.1095427,91.1611579 C50.1438225,91.7829474 50.176198,92.4047368 50.2069863,93.0265263 C50.2203174,93.2981053 50.2409488,93.5693684 50.260628,93.8406316 C50.273959,94.026 50.3006212,94.2094737 50.3272833,94.3932632 C50.3641024,94.6509474 50.4015563,94.8972632 50.4970956,95.1416842 C50.5304232,95.2196842 50.5634334,95.2976842 50.5967611,95.3756842 C50.6840478,95.5228421 50.8018055,95.64 50.9493993,95.7268421 C51.1766621,95.8594737 51.4537577,95.8954737 51.708,95.8256842 C51.9536724,95.7584211 52.1672867,95.5945263 52.2961536,95.3756842 C52.3294812,95.2976842 52.3621741,95.2196842 52.3951843,95.1416842 C52.4421604,94.9683158 52.4421604,94.7946316 52.3951843,94.6209474 C52.3224983,94.4450526 52.2723481,94.2663158 52.2348942,94.0803158 C52.2117235,93.9637895 52.1822048,93.8463158 52.1653823,93.7285263 C52.1311024,93.4945263 52.0968225,93.2608421 52.0628601,93.0268421 C51.922884,91.9661053 51.782273,90.9050526 51.6746724,89.8402105 C51.5397747,88.5031579 51.4175734,87.1661053 51.2991809,85.8281053 C51.2353823,85.1055789 51.1652355,84.3833684 51.1134983,83.6605263 C51.0776314,83.1637895 51.0592218,82.6651579 51.0868362,82.1677895 C51.1027065,81.8769474 51.1357167,81.5876842 51.1709488,81.2981053" id="Fill-7" fill="#FFFFFF"></path>
                        <path d="M34.2665324,80.5171579 C34.2697065,80.5190526 34.2725631,80.5209474 34.2757372,80.5228421 C34.463959,80.6324211 34.7693038,80.5818947 34.8676997,80.3684211 C34.9689522,80.1489474 35.0679829,79.9285263 35.1765358,79.7128421 C35.3082594,79.452 35.4704539,79.2025263 35.5847201,78.9344211 C35.637727,78.8434737 35.6640717,78.7458947 35.6643891,78.6407368 C35.6640717,78.5358947 35.637727,78.4383158 35.5847201,78.3470526 C35.5326655,78.2598947 35.4628362,78.1904211 35.3749147,78.1386316 C35.2835017,78.0858947 35.1854232,78.0593684 35.0800444,78.0593684 C34.9019795,78.0824211 34.6858259,78.0808421 34.5322014,78.1875789 C34.3963515,78.2816842 34.2668498,78.3827368 34.1468703,78.4961053 C33.9167509,78.7124211 33.7336075,78.9798947 33.5428464,79.2318947 C32.8439181,80.1217895 32.1789522,81.0353684 31.5444573,81.9713684 C31.0873925,82.6465263 30.6303276,83.3213684 30.1729454,83.9958947 C29.917116,84.3732632 29.6708089,84.7569474 29.4225973,85.14 C29.0909078,85.6515789 28.7554096,86.1606316 28.4284812,86.6753684 C28.1056792,87.1834737 27.7825597,87.6918947 27.4594403,88.2003158 C27.3283515,88.4065263 27.1972628,88.6130526 27.0661741,88.8195789 C26.9922184,88.9370526 26.917628,89.0545263 26.8433549,89.1716842 C26.6529113,89.472 26.4189829,89.7634737 26.3672457,90.1269474 C26.3180478,90.3085263 26.3180478,90.4904211 26.3672457,90.6716842 C26.4377099,90.9277895 26.6100614,91.1501053 26.8404983,91.2843158 C27.2480478,91.5214737 27.7520887,91.4415789 28.0882218,91.1242105 C28.2383549,90.9827368 28.375157,90.8377895 28.5040239,90.6776842 C28.5583003,90.6078947 28.6128942,90.5377895 28.6671706,90.468 C28.7614403,90.306 28.8087338,90.1316842 28.8093686,89.9444211 C28.8093686,89.8534737 28.7969898,89.7634737 28.7738191,89.6763158 C28.8125427,89.5995789 28.8512662,89.5228421 28.8903072,89.4461053 C28.9896553,89.2493684 29.0918601,89.0551579 29.1975563,88.8615789 C29.4711604,88.3594737 29.7358771,87.8504211 30.0243993,87.3562105 C30.4160785,86.6861053 30.8077577,86.016 31.1994369,85.3462105 C31.4305085,84.9505263 31.6774505,84.5649474 31.919314,84.1762105 C32.2821092,83.5948421 32.6449044,83.0128421 33.0080171,82.4314737 C33.2641638,82.0203158 33.5298328,81.6151579 33.7958191,81.2106316 C33.9497611,80.9772632 34.1062423,80.7461053 34.2665324,80.5171579" id="Fill-8" fill="#FFFFFF"></path>
                        <path d="M16.121058,79.5565263 C16.1454983,79.4671579 16.1597816,79.3762105 16.1639078,79.2846316 C16.7968157,78.7705263 17.430041,78.2567368 18.0626314,77.742 C18.8447201,77.1053684 19.6274437,76.4741053 20.4260375,75.8573684 C21.5550512,74.9851579 22.6843823,74.1126316 23.8133959,73.2401053 C24.4307509,72.7736842 25.0547713,72.3164211 25.6753003,71.8547368 C25.76957,71.7821053 25.8638396,71.7094737 25.9584266,71.6368421 C26.131413,71.4634737 26.2510751,71.2591579 26.3180478,71.0238947 C26.4170785,70.6648421 26.3656587,70.2735789 26.1771195,69.9521053 C25.9939761,69.6413684 25.6908532,69.4086316 25.3417065,69.3132632 C25.2179181,69.2965263 25.0938123,69.2804211 24.9703413,69.2633684 C24.717686,69.2643158 24.4828055,69.3277895 24.2647474,69.4531579 C23.414099,70.0856842 22.5602765,70.7141053 21.7210546,71.3614737 C21.109413,71.8329474 20.4980887,72.3041053 19.8867645,72.7755789 C19.0161195,73.4466316 18.1324608,74.1031579 17.2786382,74.7950526 C16.1839044,75.6824211 15.0885358,76.5701053 13.9934846,77.4574737 C13.1199829,78.1654737 12.2458464,78.8741053 11.3875802,79.6004211 C11.1653959,79.7886316 10.9432116,79.9762105 10.7210273,80.1644211 C10.4690068,80.3778947 10.2312696,80.6049474 9.99067577,80.8307368 C9.54725939,81.2472632 9.47489078,81.9596842 9.77769625,82.4747368 C9.9560785,82.7782105 10.251901,83.0049474 10.5924778,83.0984211 C10.9273413,83.19 11.3479044,83.1577895 11.6434096,82.9616842 C12.9562014,82.0897895 14.247727,81.186 15.5490922,80.2964211 C15.8239659,80.1082105 16.0302799,79.884 16.121058,79.5565263" id="Fill-9" fill="#FFFFFF"></path>
                        <g id="Group-13" transform="translate(0.000000, 36.315789)">
                            <mask id="mask-2" fill="white">
                                <use xlink:href="#path-1"></use>
                            </mask>
                            <g id="Clip-11"></g>
                            <path d="M12.8809761,21.0445263 C13.4786519,20.9949474 14.0760102,20.9718947 14.6746382,20.9513684 C15.2313686,20.9324211 15.7884164,20.9194737 16.3426075,20.9753684 C16.4324334,20.9908421 16.5213072,21.0097895 16.6101809,21.0350526 C16.6958805,21.0593684 16.7796758,21.0918947 16.8625188,21.126 C16.897116,21.1411579 16.9313959,21.1566316 16.9656758,21.1724211 C17.0574061,21.2109474 17.1491365,21.2494737 17.2405495,21.288 C17.444959,21.3426316 17.6490512,21.3426316 17.8525085,21.288 C18.1410307,21.2093684 18.3905119,21.0176842 18.5412799,20.7615789 C18.6968089,20.4966316 18.7390239,20.1745263 18.6574505,19.8783158 C18.5844471,19.6155789 18.3863857,19.3117895 18.1280171,19.1936842 C17.7109454,19.0032632 17.2910171,18.8144211 16.8352218,18.7452632 C16.3540341,18.6723158 15.8750683,18.6404211 15.3894369,18.6404211 C15.3586485,18.6404211 15.3278601,18.6404211 15.2970717,18.6407368 C14.4203959,18.648 13.5421331,18.6890526 12.6686314,18.7610526 C11.7030819,18.8409474 10.7410239,18.9502105 9.77960068,19.0686316 C9.08352901,19.1545263 8.38777474,19.2404211 7.69106826,19.3256842 C6.9696041,19.4141053 6.25036177,19.5290526 5.53111945,19.6323158 C4.71792491,19.7488421 3.90441297,19.8615789 3.09058362,19.974 C2.54337543,20.0390526 1.98791468,20.0718947 1.46355973,20.2493684 C1.25470648,20.3077895 1.07346758,20.4126316 0.919525597,20.5648421 C0.689088737,20.7941053 0.558317406,21.1086316 0.558317406,21.4323158 C0.558317406,21.7569474 0.689088737,22.0714737 0.919525597,22.3007368 C1.13536177,22.5157895 1.47816041,22.6831579 1.79175768,22.6597895 C2.13074744,22.6348421 2.47259386,22.6228421 2.80999659,22.5795789 C2.98679181,22.5568421 3.16263481,22.5347368 3.33879522,22.512 C3.74697952,22.4595789 4.15452901,22.4081053 4.56144369,22.3528421 C5.26354608,22.2574737 5.96660068,22.1665263 6.66457679,22.0452632 C6.86359044,21.9896842 7.0368942,21.8892632 7.18385324,21.7446316 C7.18417065,21.7443158 7.18417065,21.744 7.18448805,21.7436842 C7.44793515,21.7026316 7.71169966,21.6615789 7.97514676,21.6202105 C8.81912969,21.5090526 9.66311263,21.3997895 10.5064608,21.2898947 C11.295215,21.1866316 12.0890478,21.1111579 12.8809761,21.0445263" id="Fill-10" fill="#FFFFFF" mask="url(#mask-2)"></path>
                            <path d="M1.4467372,3.11178947 C1.68542662,3.17557895 1.93395563,3.204 2.17486689,3.26021053 C2.53131399,3.34263158 2.8880785,3.42536842 3.244843,3.50810526 C3.74412287,3.62368421 4.24435495,3.73863158 4.74426962,3.85263158 C5.43399317,4.00957895 6.12371672,4.16621053 6.81375768,4.32410526 C7.29304096,4.43273684 7.76788055,4.56378947 8.24430717,4.68378947 C9.06131058,4.88968421 9.87767918,5.09526316 10.695,5.30084211 C10.9860614,5.37410526 11.2695051,5.44894737 11.5545358,5.54178947 C13.0390444,6.02589474 14.5245051,6.51031579 16.0090137,6.99442105 C16.8504573,7.26852632 17.6734915,7.58873684 18.5022389,7.89884211 C18.7821911,8.00336842 19.1503823,7.92694737 19.3998635,7.78168421 C19.6604539,7.62978947 19.8553413,7.37905263 19.9350102,7.08915789 C20.0178532,6.79010526 19.9753208,6.46389474 19.81757,6.19610526 C19.7569454,6.11810526 19.6963208,6.03978947 19.6353788,5.96178947 C19.4903242,5.81810526 19.3189249,5.71894737 19.1214983,5.66336842 C18.2930683,5.35263158 17.4703515,5.03242105 16.6295427,4.75578947 C15.8617372,4.50347368 15.0936143,4.25115789 14.3258089,3.99884211 C13.6094232,3.76357895 12.8936724,3.52831579 12.1779215,3.29305263 C11.8932082,3.19926316 11.6097645,3.12315789 11.3190205,3.04894737 C10.5036041,2.83831579 9.68787031,2.62831579 8.87213652,2.41831579 C8.39634471,2.29547368 7.92213993,2.16442105 7.44380887,2.05010526 C6.25734471,1.76747368 5.06992833,1.48768421 3.88473379,1.19905263 C3.57145392,1.12263158 3.25817406,1.04652632 2.9452116,0.970105263 C2.86363823,0.706421053 2.68208191,0.478105263 2.44275768,0.338526316 C2.35388396,0.301578947 2.26532765,0.264315789 2.17677133,0.227052632 C2.07837543,0.200842105 1.97966212,0.187578947 1.88094881,0.187578947 C1.7825529,0.187578947 1.68383959,0.200842105 1.58512628,0.227052632 C1.46451195,0.247578947 1.34675427,0.271578947 1.22931399,0.305052632 C1.00808191,0.367578947 0.799546075,0.474631579 0.589423208,0.565894737 C0.509119454,0.627789474 0.428498294,0.689368421 0.348511945,0.750947368 C0.201235495,0.898421053 0.099665529,1.07242105 0.0431672355,1.27263158 C-0.0355494881,1.55747368 -0.0126962457,1.93389474 0.163146758,2.18368421 C0.335498294,2.42968421 0.499279863,2.688 0.771614334,2.83957895 C0.983324232,2.95768421 1.21249147,3.04894737 1.4467372,3.11178947" id="Fill-12" fill="#FFFFFF" mask="url(#mask-2)"></path>
                        </g>
                        <path d="M5.83011604,20.4972632 C6.04817406,20.6930526 6.27384983,20.88 6.49730375,21.0691579 C6.98928328,21.4853684 7.49015017,21.8905263 7.98943003,22.2978947 C8.45062116,22.6743158 8.92831741,23.0302105 9.40093515,23.3914737 C9.9817884,23.8348421 10.5543891,24.2886316 11.15143,24.7095789 C12.5921365,25.7254737 14.0810887,26.6611579 15.63257,27.5008421 C16.4644915,27.9511579 17.3040307,28.3878947 18.1518225,28.8072632 C19.5468225,29.4975789 20.9418225,30.1878947 22.3368225,30.8782105 C23.1862014,31.2988421 24.0419283,31.7062105 24.8957509,32.118 C25.1296792,32.2307368 25.3607509,32.2825263 25.6184846,32.2124211 C25.8527304,32.148 26.0558703,31.992 26.1787065,31.7832632 C26.3053515,31.5678947 26.3399488,31.3057895 26.2729761,31.0648421 C26.2126689,30.8463158 26.0523788,30.6094737 25.842256,30.5071579 C24.9535188,30.0757895 24.0622423,29.6494737 23.178901,29.2064211 C22.4726724,28.8521053 21.7658089,28.4974737 21.0589454,28.1431579 C20.3736655,27.7998947 19.6883857,27.4563158 19.0034232,27.1121053 C18.0689795,26.6434737 17.1500887,26.142 16.2394505,25.6291579 C14.733041,24.7803158 13.3024915,23.8155789 11.9093959,22.7952632 C11.4732799,22.4494737 11.0387509,22.1014737 10.6032696,21.7550526 C10.2204778,21.4503158 9.83451195,21.1503158 9.46441638,20.8307368 C9.00449488,20.4328421 8.54076451,20.0387368 8.08846075,19.6326316 C7.87611604,19.4418947 7.66059727,19.254 7.45269625,19.0588421 C7.15687372,18.7809474 6.85375085,18.5093684 6.58522526,18.2049474 C6.5617372,18.168 6.53920137,18.1307368 6.51730034,18.0915789 C6.32082594,17.7476842 5.9466041,17.5572632 5.56825597,17.5572632 C5.38066894,17.5572632 5.1924471,17.604 5.02390444,17.7022105 C4.50145392,18.0063158 4.34465529,18.6697895 4.63190785,19.1876842 C4.92169966,19.71 5.39082594,20.1028421 5.83011604,20.4972632" id="Fill-14" fill="#FFFFFF"></path>
                        <path d="M25.7882969,11.5777895 C25.9168464,11.7647368 26.0631706,11.9409474 26.2088601,12.1143158 C26.3294744,12.258 26.4551672,12.3966316 26.5741945,12.5412632 C27.3308908,13.5290526 28.0548942,14.5417895 28.8220648,15.5210526 C29.6577952,16.5887368 30.4960648,17.6561053 31.3333823,18.7228421 C32.2459249,19.8862105 33.1679898,21.042 34.0897372,22.1981053 C34.1792457,22.2672632 34.2690717,22.3361053 34.3588976,22.4049474 C34.5661638,22.5246316 34.7902526,22.5846316 35.0302116,22.5855789 C35.3815802,22.5855789 35.722157,22.4450526 35.970686,22.1981053 C36.2188976,21.9508421 36.3601433,21.612 36.3601433,21.2621053 C36.344273,21.1452632 36.3280853,21.0277895 36.3128498,20.9103158 C36.2493686,20.6864211 36.1354198,20.4915789 35.970686,20.3267368 C34.2614539,18.1796842 32.5725358,16.0181053 30.8810785,13.8574737 C30.4722594,13.3114737 30.0615358,12.7670526 29.6517645,12.2213684 C29.431802,11.9289474 29.2115222,11.6355789 28.9912423,11.3425263 C29.0702765,11.1830526 29.1128089,11.0058947 29.1128089,10.8255789 C29.1128089,10.5056842 28.9826724,10.2281053 28.7677884,9.99663158 C28.386901,9.58736842 27.9247577,9.26621053 27.4419829,8.98831579 C27.2382082,8.87147368 27.0141195,8.81589474 26.7922526,8.81589474 C26.3418532,8.81589474 25.9003413,9.04484211 25.6575256,9.45410526 C25.4912048,9.73452632 25.3607509,10.0177895 25.3607509,10.3531579 C25.3607509,10.7147368 25.5026314,11.0570526 25.6606997,11.3734737 C25.6962491,11.4454737 25.7432253,11.5117895 25.7882969,11.5777895" id="Fill-15" fill="#FFFFFF"></path>
                        <path d="M47.118942,15.1616842 C47.1630614,15.66 47.2100375,16.1589474 47.2687577,16.656 C47.3331911,17.2038947 47.4239693,17.7486316 47.5007816,18.2949474 C47.5401399,18.3874737 47.5798157,18.4806316 47.6188567,18.5731579 C47.7229659,18.7484211 47.862942,18.8876842 48.0391024,18.9912632 C48.3098498,19.1488421 48.6396348,19.1917895 48.9421229,19.1087368 C49.2344539,19.0285263 49.4883788,18.834 49.641686,18.5731579 C49.6810444,18.4806316 49.7207201,18.3874737 49.7597611,18.2949474 C49.815942,18.0884211 49.815942,17.8818947 49.7597611,17.6753684 C49.7194505,17.3823158 49.6746962,17.0898947 49.633116,16.7971579 C49.528372,15.9685263 49.4655256,15.1329474 49.4036314,14.3002105 C49.3372935,13.4036842 49.291587,12.5052632 49.2690512,11.6065263 C49.2455631,10.7055789 49.2620683,9.80368421 49.2893652,8.90305263 C49.3080922,8.28915789 49.3201536,7.67210526 49.3668123,7.05947368 C49.423628,6.30410526 49.4807611,5.54810526 49.5382116,4.79242105 C49.5797918,4.236 49.6515256,3.68210526 49.711198,3.12694737 C49.7131024,3.10894737 49.7150068,3.09126316 49.7172287,3.07326316 C49.7470648,3.04894737 49.7759488,3.02305263 49.8035631,2.99557895 C49.8657747,2.91536842 49.9283038,2.83484211 49.9905154,2.754 C50.0993857,2.568 50.1539795,2.36715789 50.1546143,2.15178947 C50.1092253,1.80568421 50.0609795,1.48389474 49.9679795,1.14947368 C49.8810102,0.838105263 49.6724744,0.568105263 49.3922048,0.404842105 C49.2093788,0.298105263 48.9694198,0.227052632 48.7396177,0.227052632 C48.6307474,0.227052632 48.5237816,0.242842105 48.4263379,0.278842105 C48.2838225,0.330947368 48.1394027,0.382105263 48.0089488,0.460105263 C47.7994608,0.585473684 47.6344096,0.757894737 47.5223652,0.973894737 C47.3665188,1.27389474 47.3198601,1.572 47.3036724,1.90705263 C47.2944676,2.08515789 47.2782799,2.26168421 47.2617747,2.43915789 C47.2366997,2.71010526 47.2097201,2.98136842 47.1894061,3.25263158 C47.1459215,3.82452632 47.098628,4.39642105 47.0668874,4.96863158 C47.0262594,5.69589474 46.9856314,6.42284211 46.9453208,7.14978947 C46.9031058,7.91273684 46.893901,8.68010526 46.8827918,9.444 C46.8697782,10.3449474 46.8815222,11.2452632 46.9167543,12.1449474 C46.95643,13.1523158 47.0287986,14.1577895 47.118942,15.1616842" id="Fill-16" fill="#FFFFFF"></path>
                    </g>
                    <path d="M350.647985,75.0393535 C344.019152,82.4539919 331.679118,81.1697979 325.201724,74.4289004 C324.797887,74.0093073 323.898249,74.3018265 323.966221,74.938691 C324.647947,81.2769386 319.995319,87.287784 313.180561,86.4740127 C306.818122,85.7155558 301.750161,78.1060707 306.985054,72.758003 C307.309424,72.4256175 306.998049,72.0020378 306.638194,72.0134993 C306.653688,71.617826 306.408786,71.2037146 305.939475,71.2490625 C302.499859,71.5754681 298.94529,72.3000385 295.523667,71.387598 C290.735093,70.1118755 286.759693,64.7104866 290.84405,60.2947926 C295.160813,55.6289374 303.448977,54.8944003 307.829715,59.6982927 C308.210561,60.1178858 308.894786,59.7406507 308.927773,59.2786996 C309.311618,59.2831846 309.716955,59.041495 309.747943,58.5516375 C310.022832,54.3885963 313.543415,50.2484783 318.033109,50.5380075 C322.587776,50.8300283 325.561579,55.1131668 325.434131,59.3624189 C325.417137,59.9698821 326.098863,60.2932976 326.598662,60.0276882 C331.567163,57.401494 337.472286,56.3420463 342.953581,58.0159337 C349.768338,60.096956 356.714543,68.256098 350.647985,75.0393535 Z M346.264748,57.6377019 C340.094731,54.6920787 332.977095,55.2895753 326.934527,58.139021 C326.516695,53.491604 323.003109,49.2169371 318.033109,49.0081372 C312.691758,48.7818958 308.702363,53.3077205 308.254544,58.2930047 C303.06913,52.6623844 291.868637,54.1538833 288.223104,61.0233497 C286.375848,64.5041784 287.905732,68.4041018 290.76908,70.8110312 C294.842441,74.2340537 300.740067,73.7820692 305.657589,72.7719562 C300.896005,77.715879 304.794936,85.7349906 310.970451,87.5234937 C318.568393,89.7246133 325.2612,83.9933305 325.475114,76.6394882 C333.447406,83.2124488 349.994747,84.0755548 353.879684,72.485417 C355.955349,66.2936781 351.723552,60.2449597 346.264748,57.6377019 L346.264748,57.6377019 Z" id="Fill-90" stroke="#FFFFFF" stroke-width="0.5" fill="#FFFFFF"></path>
                    <path d="M479.626157,24.7833772 C473.61274,11.4218036 457.966426,15.5606729 450.121966,24.5087246 C448.964094,16.1270498 441.221887,9.03478616 432.438097,10.1077892 C423.015222,11.2606272 417.034887,21.3906391 419.122064,30.2804464 C419.360656,31.290686 420.915012,30.8623886 420.677924,29.8506427 C418.883472,22.214597 423.734005,13.5266368 431.645632,11.8716916 C440.501601,10.0169078 448.630265,18.0044285 448.658836,26.6125536 C448.661343,27.4681442 449.718465,27.6443838 450.166075,27.0207667 C456.667704,17.9758084 472.271913,12.5505405 478.108392,25.419547 C480.479775,30.6474867 478.598608,36.3750231 473.336053,38.8900779 C468.641407,41.1344969 462.972344,40.4912976 458.182462,38.9779466 C457.414055,38.735931 456.841134,39.7692675 457.404031,40.3190749 C460.483169,43.3221778 464.016434,46.9227882 463.719698,51.5316298 C463.337249,57.5006797 457.591496,59.558817 452.395606,59.2429916 C446.125051,58.8588796 434.717251,56.2112686 433.526798,48.9156515 C433.378931,48.0058334 431.998006,48.266427 431.973445,49.1260344 C431.736357,57.3615961 423.266846,63.2056213 415.686542,59.0054949 C408.45009,54.9956671 408.608984,45.4300236 414.619395,40.4923018 C415.142191,40.0624981 414.721648,39.0693301 414.052488,39.1245619 C408.012505,39.6271712 393.897991,39.2541056 396.773624,29.3525524 C397.955556,25.2804633 402.120388,23.3388149 406.163919,24.0407607 C410.176373,24.7351749 413.0495,27.6529196 415.221889,30.9025572 C415.602834,31.4704404 416.493544,30.9648185 416.146683,30.3612857 C412.094631,23.3192327 400.349996,17.8563069 395.561618,27.5545066 C393.798243,31.1269991 395.152603,35.0042706 397.98112,37.5745571 C401.813126,41.0531555 407.016534,41.2113193 411.93273,40.8894686 C406.426571,47.1462259 407.80098,57.318917 415.998816,60.9255527 C423.459825,64.2088314 431.089753,59.5718718 433.067659,52.3796888 C434.619008,55.0900633 437.480606,56.7620801 440.54972,57.9676394 C445.468923,59.8992456 451.818675,61.7550337 457.123835,60.5394323 C461.153331,59.6175635 464.90163,56.7264305 465.484075,52.4223679 C466.06251,48.1499381 463.44251,44.3595312 460.587929,41.2765932 C465.832439,42.428427 471.731573,42.315955 476.145021,39.0964439 C480.756962,35.7318238 481.927867,29.8973386 479.626157,24.7833772" id="Fill-91" stroke="#FFFFFF" stroke-width="0.5" fill="#FFFFFF"></path>
                    <path d="M56.4876958,32.4740365 C51.7033052,27.3117855 44.3065724,27.6418592 37.8567452,28.5872304 C40.0168265,22.5778744 40.8395721,15.0985568 33.5021768,12.5597614 C30.7542063,11.608343 27.7748698,11.8844962 25.2163801,13.2758448 C23.6277331,14.1385716 22.2440245,15.4109929 21.1400494,16.8411441 C20.8303979,17.2422717 20.5282258,17.6736352 20.2649472,18.1080221 C19.9104186,18.6709111 19.6107398,19.2595004 19.3664092,19.8778216 C19.2362658,20.0380711 19.1709448,20.1907616 19.1370377,20.3409325 C18.7486021,20.2391388 18.2763959,20.3822547 18.0998796,20.8705622 C18.0545039,20.9950327 18.0091282,21.1195032 17.9642512,21.2434698 C17.8356037,21.5992438 18.0559998,21.9862615 18.3417169,22.1777546 L18.7456103,22.4518921 C18.9704941,22.6035748 19.3549407,22.6136533 19.5783286,22.4518921 C20.4559239,21.8164373 20.5576452,21.1048892 21.0692434,20.1222273 C22.5691337,17.2422717 25.0174253,14.6384694 28.2740022,13.8785442 C31.7609478,13.0657063 35.2094987,14.5568329 36.9113356,17.6469269 C39.0006109,21.4394983 37.2479134,25.706267 35.7579958,29.4101468 C35.4892322,30.0773491 36.2401746,30.5399561 36.7871758,30.4512646 C42.4322083,29.5416723 49.1363387,28.6885202 53.9730859,32.4826033 C59.400714,36.7392935 59.3797714,45.030441 52.1062012,47.2144703 C44.4013129,49.5270015 32.9013232,46.8813731 29.2942068,39.0951626 C29.0089883,38.4778493 27.9104982,38.6038316 27.7988042,39.2921989 C27.1640435,43.2419962 23.9752808,47.5485754 19.4058013,46.2343279 C13.945762,44.6630766 15.8141426,38.252089 17.9896815,34.7255923 C18.4249888,34.0195874 17.5553715,33.1412388 16.8572843,33.581169 C12.0913431,36.5835793 -0.84022397,37.1525154 3.17527345,27.9175084 C5.75320982,21.9907968 12.6777364,21.1119443 17.4765874,24.8133044 C18.0275777,25.2376128 18.7555829,24.2902259 18.2215462,23.8376974 C12.0544442,18.6225339 2.05584073,21.1623372 0.809256404,29.8843442 C-0.387963178,38.2536008 9.37329069,38.4108267 15.3239856,36.1708613 C13.3758236,40.3151752 12.8318142,45.0788182 17.901922,47.4200734 C22.8388945,49.6998492 27.2857101,46.2000607 28.882834,41.6561309 C34.5253732,49.7401636 51.4544869,53.6965119 57.9377227,45.4088919 C61.0656521,41.4107174 59.7158506,35.9622346 56.4876958,32.4740365" id="Fill-188" stroke="#FFFFFF" stroke-width="0.5" fill="#FFFFFF"></path>
                </g>
            </g>
        </g>
    </g>
</svg>