<?xml version="1.0" encoding="UTF-8"?>
<svg width="21px" height="27px" viewBox="0 0 21 27" version="1.1" xmlns="http://www.w3.org/2000/svg" xmlns:xlink="http://www.w3.org/1999/xlink">
    <!-- Generator: Sketch 46.2 (44496) - http://www.bohemiancoding.com/sketch -->
    <title>new-file@3x</title>
    <desc>Created with Sketch.</desc>
    <defs></defs>
    <g id="HOME-SCRREN-V3" stroke="none" stroke-width="1" fill="none" fill-rule="evenodd">
        <g id="HOME-SCREEN-3.3" transform="translate(-38.000000, -747.000000)" fill-rule="nonzero" fill="#F5A623">
            <g id="new-file" transform="translate(38.000000, 747.000000)">
                <path d="M15.656363,1.98912361 L6.00646227,11.0358236 C5.92979446,11.107699 5.87493033,11.1973532 5.8477518,11.295754 L5.0195164,14.2861897 C4.96536216,14.4819456 5.02570256,14.6898709 5.17822687,14.8329562 C5.29383705,14.9412447 5.4490995,15 5.60841844,15 C5.6594289,15 5.71074359,14.9940104 5.7613484,14.9817459 L8.9511753,14.2051872 C9.05613717,14.1796125 9.15187052,14.1281778 9.22843691,14.0563975 L18.8781348,5.00988762 C18.8783377,5.00969748 18.8785405,5.0096024 18.8786419,5.00950733 C18.8787433,5.00941226 18.8789461,5.00912704 18.8790475,5.00903196 L20.8217043,3.1878078 C21.059415,2.96505105 21.059415,2.60386758 20.8218057,2.38120591 L18.460417,0.167138864 C18.3462266,0.0600863266 18.1915726,0 18.030124,0 C17.8687768,0 17.7140214,0.0600863266 17.5999324,0.167138864 L15.6573771,1.98826795 C15.6571743,1.9884581 15.6569715,1.98855317 15.6568701,1.98864825 C15.6567687,1.98874332 15.6565658,1.98902854 15.656363,1.98912361 Z M8.48518513,13.1398909 L6.45764622,13.6335114 L6.98407819,11.7327109 L16.0870617,3.19874123 L17.5880672,4.60601624 L8.48518513,13.1398909 Z M18.030124,1.37713677 L19.5311295,2.78441178 L18.4485517,3.79931928 L16.9475462,2.39204427 L18.030124,1.37713677 Z" id="Shape"></path>
                <path d="M20.4063269,6.20301951 C20.0785203,6.20301951 19.8126537,6.46809434 19.8126537,6.79492461 L19.8126537,25.8160911 L1.18734628,25.8160911 L1.18734628,3.18381021 L12.1765329,3.18381021 C12.5043395,3.18381021 12.7702061,2.91873538 12.7702061,2.59190511 C12.7702061,2.26507484 12.5043395,2 12.1765329,2 L0.593673141,2 C0.265866621,2 0,2.26507484 0,2.59190511 L0,26.4080949 C0,26.7349252 0.265866621,27 0.593673141,27 L20.4063269,27 C20.7341334,27 21,26.7349252 21,26.4080949 L21,6.79492461 C21,6.46809434 20.7342323,6.20301951 20.4063269,6.20301951 Z" id="Shape"></path>
            </g>
        </g>
    </g>
</svg>