<svg id="Layer_1" data-name="Layer 1" xmlns="http://www.w3.org/2000/svg" xmlns:xlink="http://www.w3.org/1999/xlink" width="31" height="31" viewBox="0 0 31 31"><defs><style>.cls-1{fill:none;}.cls-2{fill:#00beb4;}.cls-3{clip-path:url(#clip-path);}.cls-4{fill:#0a9;}.cls-5{fill:#fff;}</style><clipPath id="clip-path"><path class="cls-1" d="M.13,15.11a15.47,15.47,0,1,1,30.95,0C31.08,23.67,24.21,31,15.65,31A15.83,15.83,0,0,1,.13,15.11Z"/></clipPath></defs><title>b-active</title><path class="cls-2" d="M0,15.49A15.49,15.49,0,1,1,15.49,31,15.49,15.49,0,0,1,0,15.49Z"/><g class="cls-3"><path class="cls-4" d="M21.89,9.73l8.93,8.84-.91,10.65-9.4,1.41L10.15,20.31S21.89,9.11,21.89,9.73Z"/></g><polygon class="cls-5" points="21.18 8.98 12.61 17.54 9.28 14.21 6.66 16.83 12.61 22.78 23.8 11.6 21.18 8.98"/></svg>