<svg id="Layer_1" data-name="Layer 1" xmlns="http://www.w3.org/2000/svg" xmlns:xlink="http://www.w3.org/1999/xlink" width="31" height="31" viewBox="0 0 31 31"><defs><style>.cls-1{fill:none;}.cls-2{fill:#00beb4;}.cls-3{clip-path:url(#clip-path);}.cls-4{opacity:0.74;}.cls-5{fill:#0a9;}.cls-6{fill:#fff;}</style><clipPath id="clip-path"><path class="cls-1" d="M0,15.49A15.49,15.49,0,1,1,15.49,31,15.49,15.49,0,0,1,0,15.49Z"/></clipPath></defs><title>b-Normal</title><path class="cls-2" d="M0,15.49A15.49,15.49,0,1,1,15.49,31,15.49,15.49,0,0,1,0,15.49Z"/><g class="cls-3"><g class="cls-4"><path class="cls-5" d="M21.5,7,31,16.43l-.26,14.4-14.18.06-6.22-6.26S21.5,6.39,21.5,7"/></g><polygon class="cls-6" points="10.29 7.02 21.52 7.02 21.52 24.57 16.03 20.02 10.34 24.62 10.29 7.02"/><rect class="cls-1" x="1.11" y="1.49" width="28.07" height="28.06"/></g></svg>