<?xml version="1.0" encoding="UTF-8"?>
<svg width="28px" height="28px" viewBox="0 0 28 28" version="1.1" xmlns="http://www.w3.org/2000/svg" xmlns:xlink="http://www.w3.org/1999/xlink">
    <!-- Generator: Sketch 46.2 (44496) - http://www.bohemiancoding.com/sketch -->
    <title>favorites@3x</title>
    <desc>Created with Sketch.</desc>
    <defs></defs>
    <g id="Page-1" stroke="none" stroke-width="1" fill="none" fill-rule="evenodd" opacity="0.271795743">
        <g id="KSP-Code" transform="translate(-18.000000, -502.000000)" fill-rule="nonzero" fill="#000000">
            <g id="Group-11" transform="translate(8.000000, 465.000000)">
                <g id="Group-5" transform="translate(0.000000, 20.000000)">
                    <g id="favorites" transform="translate(10.000000, 17.000000)">
                        <path d="M26.4357212,10.9442676 C26.9475296,10.4445084 27.1282166,9.7110453 26.9073954,9.03011854 C26.6865189,8.34919178 26.1099546,7.86226251 25.4026641,7.75934651 L19.2180129,6.8590942 C19.0966164,6.84145304 18.9916711,6.76508173 18.9373491,6.65481064 L16.1715077,1.0408839 C15.8552364,0.398834061 15.2147444,0 14.5000012,0 C13.785258,0 13.144766,0.398834061 12.8284947,1.0408839 L10.0626533,6.65486594 C10.0082761,6.76508173 9.903386,6.84145304 9.78193431,6.8591495 L3.59739347,7.75934651 C2.89010299,7.86226251 2.31359391,8.34919178 2.09266224,9.03011854 C1.87173058,9.7110453 2.05247278,10.4445084 2.56433644,10.9442676 L7.03955516,15.314133 C7.12738682,15.3999608 7.16752108,15.5235595 7.14676388,15.644725 L6.0902998,21.8150397 C5.96951057,22.5207415 6.25359712,23.2204707 6.83181757,23.6413148 C7.41003802,24.0622694 8.16237603,24.1166307 8.79491851,23.7835501 L14.3265461,20.870325 C14.4351902,20.813088 14.5648674,20.813088 14.6735667,20.870325 L20.2052495,23.7835501 C20.4803928,23.9284399 20.778115,24.0000553 21.074402,24 C21.459183,24 21.841535,23.8792216 22.1681848,23.6412595 C22.7464053,23.2203601 23.030547,22.5205756 22.9097026,21.8149844 L21.8532385,15.6446697 C21.8325365,15.5235042 21.8726156,15.3999055 21.9604472,15.3140777 L26.4357212,10.9442676 Z M20.3836179,15.8972868 L21.440082,22.067712 C21.4754134,22.2742076 21.3481651,22.3919444 21.2918005,22.4329228 C21.2353807,22.4738458 21.0842285,22.5588442 20.8991803,22.4612924 L15.3674975,19.5480673 C15.0959426,19.4051131 14.7980547,19.333553 14.5001116,19.333553 C14.2021685,19.333553 13.9042255,19.4051131 13.6327257,19.548012 L8.10109813,22.4611818 C7.91593951,22.5586783 7.76484257,22.4737905 7.70847794,22.4328122 C7.65211332,22.3918338 7.52480987,22.274097 7.56019647,22.0676014 L8.61666055,15.8972868 C8.72039134,15.2914594 8.52005125,14.6736316 8.08056176,14.2445476 L3.60534303,9.87468229 C3.45557102,9.72835465 3.48946708,9.55819209 3.51105236,9.49183035 C3.53252722,9.42541331 3.6050118,9.26774887 3.81197652,9.23766488 L9.99646215,8.33741257 C10.6036654,8.24904085 11.1283919,7.86723964 11.400002,7.31593948 L14.1658434,1.70195744 C14.2584228,1.51409841 14.4304425,1.49380278 14.5001668,1.49380278 C14.5697807,1.49380278 14.7418005,1.51404311 14.834435,1.70195744 L14.834435,1.70201274 L17.6002764,7.31599478 C17.8718313,7.86729494 18.3965026,8.24909616 19.0037059,8.33746787 L25.1883019,9.23772019 C25.3952666,9.26780417 25.467696,9.42546861 25.4892261,9.49188565 C25.5107561,9.55830269 25.5447074,9.72852056 25.3948802,9.87473759 L20.9196615,14.2446029 C20.4802272,14.6736316 20.2798871,15.2914594 20.3836179,15.8972868 Z" id="Shape"></path>
                        <path d="M22.7306782,1.1103872 C22.4387358,0.922816446 22.0302777,0.980063178 21.8182373,1.23822968 L21.1248016,2.08246923 C20.9127613,2.34063573 20.9774278,2.70204317 21.2693218,2.88961392 C21.3853539,2.96410313 21.5196687,3 21.6527743,3 C21.8548027,3 22.0539774,2.91738158 22.1817627,2.76181423 L22.8751984,1.91757468 C23.0872387,1.65936539 23.0225722,1.29795796 22.7306782,1.1103872 Z" id="Shape"></path>
                        <path d="M6.87517507,2.08241787 L6.18174286,1.23817044 C5.96975198,0.980087097 5.56124752,0.92283983 5.26930661,1.11032677 C4.97746243,1.29789928 4.9127479,1.65931009 5.12478715,1.917479 L5.81821936,2.76172644 C5.94605233,2.9174236 6.14522607,3 6.3473018,3 C6.4804551,3 6.61481757,2.9641028 6.73070398,2.88957011 C7.02254816,2.70204038 7.0872627,2.34062958 6.87517507,2.08241787 Z" id="Shape"></path>
                        <path d="M1.9735264,16.5402771 C1.88172391,16.1297861 1.57827786,15.9050664 1.29570143,16.038463 L0.371821905,16.4747073 C0.0892454826,16.6081039 -0.0653252143,17.0491517 0.0264772738,17.4596427 C0.10031754,17.7900379 0.311204383,18 0.537942589,18 C0.593024082,18 0.649061436,17.9875574 0.704302239,17.9614568 L1.62818177,17.5252124 C1.91071836,17.3918159 2.06532889,16.9508838 1.9735264,16.5402771 Z" id="Shape"></path>
                        <path d="M14,25 C13.4477269,25 13,25.3529103 13,25.7882266 L13,27.2117734 C13,27.6470897 13.4477269,28 14,28 C14.5522731,28 15,27.6470897 15,27.2117734 L15,25.7882266 C15,25.3528519 14.5523471,25 14,25 Z" id="Shape"></path>
                        <path d="M27.6281818,16.4746913 L26.7043022,16.0384258 C26.4218453,15.9051386 26.1182798,16.1296955 26.0264773,16.5403221 C25.9346748,16.9509488 26.0892455,17.3919022 26.3718219,17.5253052 L27.2957014,17.9615707 C27.3509422,17.9876146 27.4069398,18 27.4620213,18 C27.6887993,18 27.8996861,17.7899698 27.9735264,17.4596165 C28.0653289,17.0490477 27.9107184,16.6080943 27.6281818,16.4746913 Z" id="Shape"></path>
                    </g>
                </g>
            </g>
        </g>
    </g>
</svg>