<?xml version="1.0" encoding="UTF-8"?>
<svg width="432px" height="728px" viewBox="0 0 432 728" version="1.1" xmlns="http://www.w3.org/2000/svg" xmlns:xlink="http://www.w3.org/1999/xlink">
    <!-- Generator: Sketch 49.3 (51167) - http://www.bohemiancoding.com/sketch -->
    <title>BG</title>
    <desc>Created with Sketch.</desc>
    <defs>
        <linearGradient x1="-0.566202188%" y1="77.1131444%" x2="2.42456222%" y2="31.2538969%" id="linearGradient-1">
            <stop stop-color="#50463C" offset="0%"></stop>
            <stop stop-color="#BD5A9B" offset="100%"></stop>
        </linearGradient>
    </defs>
    <g id="Registration" stroke="none" stroke-width="1" fill="none" fill-rule="evenodd">
        <g id="Group-12">
            <path d="M43,125.058358 C30.5564856,125.275445 18.8900588,125.392544 18.1323685,125.392544 C14.1579773,125.392544 10.9360967,122.170663 10.9360967,118.196272 C10.9360967,114.221881 14.1579773,111 18.1323685,111 C18.686374,111 24.20899,111.062603 31.5823858,111.181121 C31.1673552,110.271842 30.9360967,109.261064 30.9360967,108.196272 C30.9360967,104.221881 34.1579773,101 38.1323685,101 C38.4357321,101 40.2289154,101.018771 43,101.055216 L43,96.5090044 C27.0354291,96.8265864 9.90828115,97 8.93609666,97 C4.51781866,97 0.936096662,93.418278 0.936096662,89 C0.936096662,84.581722 4.51781866,81 8.93609666,81 C9.98446281,81 27.0376301,81.2016563 43,81.5682957 L43,78.961735 C40.6742968,78.987046 39.2018076,79 38.9360967,79 C34.5178187,79 30.9360967,75.418278 30.9360967,71 C30.9360967,66.581722 34.5178187,63 38.9360967,63 C39.221259,63 40.6905769,63.01492 43,63.0440221 L43,61.7498686 C31.1767384,61.913772 22.3219307,62 21.5,62 C15.1487254,62 10,56.8512746 10,50.5 C10,44.1487254 15.1487254,39 21.5,39 C22.3854838,39 31.2138411,39.1000781 43,39.2895405 L43,36.9933741 C33.0138751,36.728407 25,28.5500739 25,18.5 C25,8.44992609 33.0138751,0.271592993 43,0.00662593326 L432,0 L432,285 L432,728 L43,728 L43,285 L43,125.058358 Z M3.73982484,106.607456 C2.19136853,106.607456 0.936096662,105.352184 0.936096662,103.803728 C0.936096662,102.255272 2.19136853,101 3.73982484,101 C4.43127948,101 24.9885209,101.250304 25.4773864,101.665245 C26.0832953,102.179531 26.4678014,102.946727 26.4678014,103.803728 C26.4678014,104.713824 26.0341764,105.522642 25.3622612,106.034846 C24.8909657,106.394117 4.37818517,106.607456 3.73982484,106.607456 Z" id="Combined-Shape" fill="url(#linearGradient-1)"></path>
            <g id="Group-11"></g>
        </g>
    </g>
</svg>