<?xml version="1.0" encoding="UTF-8"?>
<svg width="10px" height="15px" viewBox="0 0 10 15" version="1.1" xmlns="http://www.w3.org/2000/svg" xmlns:xlink="http://www.w3.org/1999/xlink">
    <!-- Generator: Sketch 46.2 (44496) - http://www.bohemiancoding.com/sketch -->
    <title>Shape@3x</title>
    <desc>Created with Sketch.</desc>
    <defs></defs>
    <g id="HOME-SCRREN-V3" stroke="none" stroke-width="1" fill="none" fill-rule="evenodd">
        <g id="HOME-SCREEN-3.3" transform="translate(-837.000000, -834.000000)" stroke-width="0.5" stroke="#333333" fill="#333333" fill-rule="nonzero">
            <g id="Group-82" transform="translate(100.000000, 725.000000)">
                <g id="Group-81" transform="translate(0.000000, 95.000000)">
                    <g id="Rectangle-+-Bitmap-Mask" transform="translate(407.000000, 0.000000)">
                        <g id="BOOKMARK" transform="translate(316.000000, 10.000000)">
                            <g id="Group-14">
                                <path d="M22.9838943,17.9145756 C23.0670441,17.9588541 23.150194,17.9883731 23.2499738,17.9883731 C23.3164937,17.9883731 23.3830135,17.9736136 23.4495334,17.9440946 C23.5992031,17.8850565 23.6823529,17.7522209 23.6823529,17.6046257 L23.6823529,5.82653284 C23.665723,5.36898787 23.2333438,5 22.7011849,5 L15.3174793,5 C14.7853203,5 14.3529412,5.36898787 14.3529412,5.82653284 L14.3529412,17.6193853 C14.3529412,17.7669804 14.436091,17.8850565 14.5857607,17.9588541 C14.7354304,18.0178922 14.9017301,18.0178922 15.0347698,17.9293351 C15.0513998,17.9145756 15.0680298,17.899816 15.0846597,17.8850565 L19.0093321,13.3834045 L22.9340044,17.870297 C22.9506344,17.8850565 22.9506344,17.899816 22.9838943,17.9145756 Z M19.0093321,12.7930239 C18.9261822,12.7930239 18.8596624,12.8225429 18.8097725,12.881581 L14.8518402,17.4127521 L14.8518402,5.82653284 C14.8518402,5.61989963 15.0680298,5.44278545 15.3174793,5.44278545 L22.7011849,5.44278545 C22.9672643,5.44278545 23.1668239,5.61989963 23.1668239,5.82653284 L23.1668239,17.4127521 L19.2088917,12.881581 C19.1590018,12.8225429 19.0924819,12.7930239 19.0093321,12.7930239 Z" id="Shape"></path>
                            </g>
                        </g>
                    </g>
                </g>
            </g>
        </g>
    </g>
</svg>