<svg id="Layer_1" data-name="Layer 1" xmlns="http://www.w3.org/2000/svg" xmlns:xlink="http://www.w3.org/1999/xlink" width="31" height="31" viewBox="0 0 31 31"><defs><style>.cls-1,.cls-10{fill:none;}.cls-2{fill:#2bb1ef;}.cls-3{clip-path:url(#clip-path);}.cls-4{clip-path:url(#clip-path-2);}.cls-5{opacity:0.8;}.cls-6{clip-path:url(#clip-path-3);}.cls-7{fill:#16a6d8;}.cls-8{clip-path:url(#clip-path-4);}.cls-9{fill:#fff;}.cls-10{stroke:#2bb1ef;stroke-miterlimit:10;stroke-width:1.2px;}</style><clipPath id="clip-path"><path class="cls-1" d="M0,15.49A15.49,15.49,0,1,1,15.49,31,15.49,15.49,0,0,1,0,15.49Z"/></clipPath><clipPath id="clip-path-2"><circle class="cls-1" cx="15.55" cy="15.55" r="15.54"/></clipPath><clipPath id="clip-path-3"><rect class="cls-1" x="8.21" y="9.72" width="22.87" height="21.19"/></clipPath><clipPath id="clip-path-4"><rect class="cls-1" width="31.08" height="31.08"/></clipPath></defs><title>c-Normal</title><path class="cls-2" d="M0,15.49A15.49,15.49,0,1,1,15.49,31,15.49,15.49,0,0,1,0,15.49Z"/><g class="cls-3"><g class="cls-4"><g class="cls-5"><g class="cls-6"><path class="cls-7" d="M24,9.72l7.06,7,0,13L18.71,30.92,8.21,20.46S21.17,12,24,9.72"/></g></g></g><g class="cls-8"><path class="cls-9" d="M23.32,20.78h-9v2.65l-3.48-2.65H9a1,1,0,0,1-1-1V10.47a1,1,0,0,1,1-1H23.32a1,1,0,0,1,1,1v9.27a1,1,0,0,1-1,1"/><line class="cls-10" x1="10.5" y1="13.72" x2="21.64" y2="13.72"/><line class="cls-10" x1="10.5" y1="16.43" x2="16.07" y2="16.43"/></g></g></svg>