<?xml version="1.0" encoding="UTF-8"?>
<svg width="14px" height="14px" viewBox="0 0 14 14" version="1.1" xmlns="http://www.w3.org/2000/svg" xmlns:xlink="http://www.w3.org/1999/xlink">
    <!-- Generator: Sketch 51.2 (57519) - http://www.bohemiancoding.com/sketch -->
    <title>close</title>
    <desc>Created with Sketch.</desc>
    <defs></defs>
    <g id="Page-2" stroke="none" stroke-width="1" fill="none" fill-rule="evenodd">
        <g id="Download-app-bottom" transform="translate(-346.000000, -635.000000)">
            <g id="Group-3" transform="translate(0.000000, 617.000000)">
                <g id="close" transform="translate(346.000000, 18.000000)">
                    <g id="Group-2">
                        <circle id="Oval-2" fill-opacity="0.8" fill="#F3F3F3" cx="7" cy="7" r="7"></circle>
                        <path d="M6.74779253,6.74779253 L6.74779253,4.63220747 C6.74779253,4.49291713 6.86070966,4.38 7,4.38 C7.13929034,4.38 7.25220747,4.49291713 7.25220747,4.63220747 L7.25220747,6.74779253 L9.36779253,6.74779253 C9.50708287,6.74779253 9.62,6.86070966 9.62,7 C9.62,7.13929034 9.50708287,7.25220747 9.36779253,7.25220747 L7.25220747,7.25220747 L7.25220747,9.36779253 C7.25220747,9.50708287 7.13929034,9.62 7,9.62 C6.86070966,9.62 6.74779253,9.50708287 6.74779253,9.36779253 L6.74779253,7.25220747 L4.63220747,7.25220747 C4.49291713,7.25220747 4.38,7.13929034 4.38,7 C4.38,6.86070966 4.49291713,6.74779253 4.63220747,6.74779253 L6.74779253,6.74779253 Z" id="Shape" fill="#000000" fill-rule="nonzero" transform="translate(7.000000, 7.000000) rotate(45.000000) translate(-7.000000, -7.000000) "></path>
                    </g>
                </g>
            </g>
        </g>
    </g>
</svg>