<?xml version="1.0" encoding="UTF-8"?>
<svg width="30px" height="30px" viewBox="0 0 30 30" version="1.1" xmlns="http://www.w3.org/2000/svg" xmlns:xlink="http://www.w3.org/1999/xlink">
    <!-- Generator: Sketch 46.2 (44496) - http://www.bohemiancoding.com/sketch -->
    <title>ICO@3x</title>
    <desc>Created with Sketch.</desc>
    <defs></defs>
    <g id="HOME-SCRREN-V3" stroke="none" stroke-width="1" fill="none" fill-rule="evenodd">
        <g id="HOME-SCREEN-3.3" transform="translate(-117.000000, -2639.000000)" stroke="#863697" stroke-width="0.3" fill="#863697" fill-rule="nonzero">
            <g id="HEADER" transform="translate(100.000000, 2619.000000)">
                <g id="ICO" transform="translate(18.000000, 21.000000)">
                    <path d="M27.9779104,22.9180962 L24.3893004,8.75869481 L26.1020461,7.24890272 C26.1756216,7.25689723 26.2498459,7.25689723 26.3234214,7.24890272 C26.7392822,7.25254657 27.1156683,7.00307058 27.2745286,6.61849038 C27.433389,6.23391018 27.3428747,5.79132788 27.0458039,5.5001088 C26.6422265,5.11221069 26.0046162,5.11221069 25.6010388,5.5001088 C25.3569742,5.74173884 25.2517335,6.09056688 25.3214069,6.42696958 L24.0688888,7.52870975 L23.6144869,5.72745201 C23.586641,5.57002959 23.4954045,5.43095913 23.3621305,5.34278893 C23.2288565,5.25461873 23.0652427,5.22508757 22.9095814,5.26110697 L22.1988502,5.44181567 L22.3852715,4.62571185 C22.4199757,4.47414711 22.3927264,4.31499013 22.3095821,4.18362753 C22.2264379,4.05226493 22.0942903,3.9595851 21.9425209,3.92619428 L4.6228174,0.0147252116 C4.4713475,-0.0200007247 4.31229012,0.00726563597 4.18100971,0.0904619514 C4.0497293,0.173658267 3.95710747,0.305888547 3.92373754,0.457753004 L0.0147159976,17.7999594 C-0.0199882096,17.9515241 0.00726108965,18.1106811 0.0904053467,18.2420437 C0.173549604,18.3734063 0.305697143,18.4660861 0.457466575,18.4994769 L7.73372278,20.1375139 L9.6037614,27.5582294 C9.67178539,27.8224139 9.91382287,28.0040556 10.1863279,27.9954279 C10.234684,28.001524 10.2836135,28.001524 10.3319696,27.9954279 L27.5409854,23.6467604 C27.6981556,23.6126296 27.8342326,23.5150017 27.9169784,23.3770058 C27.9997241,23.2390098 28.0217762,23.0729242 27.9779104,22.9180962 Z M1.29636241,17.5026644 L4.93740334,1.29717409 L21.1211021,4.94049475 L20.9288551,5.77991583 L5.69473985,9.62726245 C5.54277984,9.66188362 5.41101907,9.75598698 5.32891177,9.88853637 C5.24680447,10.0210858 5.22119743,10.1810281 5.25781494,10.3326093 L7.41331117,18.8667237 L1.29636241,17.5026644 Z M10.6174272,26.7188084 L6.53946135,10.6299043 L21.5114217,6.84668012 L21.5114217,6.84668012 L22.6124724,6.5668731 L23.0727,8.38561877 L20.5385355,10.6182457 C20.3136159,10.8344183 20.2987241,11.1894894 20.5047521,11.4237587 C20.7107801,11.658028 21.0646426,11.6883921 21.3075234,11.4926426 L23.3931116,9.65640902 L26.6729613,22.6557772 L10.6174272,26.7188084 Z M22.7348114,13.3638521 C22.7758728,13.5130474 22.7559628,13.6724573 22.6794691,13.8069519 C22.6029754,13.9414464 22.4761762,14.0399869 22.3270148,14.0808576 L11.1883424,17.1762229 C11.1361525,17.1833381 11.0832393,17.1833381 11.0310494,17.1762229 C10.7093068,17.2196853 10.4132717,16.9939314 10.3698364,16.6719873 C10.3264012,16.3500432 10.5520139,16.0538227 10.8737565,16.0103603 L22.0182546,12.9558002 C22.1673565,12.9147131 22.3266667,12.9346356 22.461077,13.0111772 C22.5954874,13.0877188 22.6939663,13.2145974 22.7348114,13.3638521 L22.7348114,13.3638521 Z M20.8705985,17.6833731 C20.9653479,17.9908143 20.7932632,18.3169364 20.4861045,18.4120372 L12.4408605,20.8894953 C12.1374096,20.9731302 11.8224397,20.8004584 11.7295439,20.4995395 C11.6366481,20.1986207 11.7994218,19.8782813 12.0971462,19.7760965 L20.1423903,17.2986384 C20.2907095,17.2513131 20.4517885,17.2653573 20.5896925,17.3376379 C20.7275965,17.4099186 20.8308521,17.534422 20.8764241,17.6833731 L20.8705985,17.6833731 Z M6.1258391,5.36020529 C6.15281653,5.20789001 6.23919031,5.07254967 6.36593963,4.98398826 C6.49268896,4.89542685 6.64941931,4.86090716 6.8016163,4.88803093 L13.6118193,6.1238453 C13.9335619,6.15282027 14.1709117,6.43729636 14.1419548,6.75924043 C14.112998,7.0811845 13.8286999,7.31868288 13.5069573,7.28970792 L13.4020953,7.28970792 L6.597718,6.04223492 C6.44429102,6.01531179 6.30802951,5.92802785 6.21936459,5.79987612 C6.13069967,5.67172438 6.09701708,5.51337981 6.1258391,5.36020529 Z" id="Shape"></path>
                </g>
            </g>
        </g>
    </g>
</svg>