<?xml version="1.0" encoding="UTF-8"?>
<svg width="29px" height="24px" viewBox="0 0 29 24" version="1.1" xmlns="http://www.w3.org/2000/svg" xmlns:xlink="http://www.w3.org/1999/xlink">
    <!-- Generator: Sketch 46.2 (44496) - http://www.bohemiancoding.com/sketch -->
    <title>Shape@3x</title>
    <desc>Created with Sketch.</desc>
    <defs></defs>
    <g id="HOME-SCRREN-V3" stroke="none" stroke-width="1" fill="none" fill-rule="evenodd">
        <g id="HOME-SCREEN-3.3" transform="translate(-119.000000, -3994.000000)" stroke="#FA652C" stroke-width="0.3" fill="#FA652C" fill-rule="nonzero">
            <g id="HEADER" transform="translate(100.000000, 3971.000000)">
                <path d="M42.9504265,28.3530599 L40.7448247,28.3530599 L42.32326,24.9177798 C42.4722333,24.5936051 42.3315047,24.2096839 42.0093924,24.0598888 C41.686143,23.9098079 41.304612,24.0515986 41.1562072,24.3757734 L39.3287249,28.3530599 L24.0501422,28.3530599 C21.8169633,28.3530599 20,30.1800447 20,32.4255407 C20,39.910718 26.0561651,46 33.5,46 C40.9438349,46 47,39.9104321 47,32.4255407 C47.0002843,30.1800447 45.1836053,28.3530599 42.9504265,28.3530599 Z M42.9504265,29.6457567 C44.4748447,29.6457567 45.7146783,30.8927145 45.7146783,32.4252548 C45.7146783,33.9577951 44.4745604,35.2047529 42.9504265,35.2047529 L37.5964831,35.2047529 L40.1509213,29.6457567 L42.9504265,29.6457567 Z M24.0501422,29.6457567 L38.7345372,29.6457567 L36.180099,35.2047529 L24.0501422,35.2047529 C22.5257239,35.2047529 21.2858903,33.9577951 21.2858903,32.4252548 C21.2858903,30.8927145 22.5260082,29.6457567 24.0501422,29.6457567 Z M33.5002843,44.7073033 C27.9197536,44.7073033 23.2049173,40.9232637 21.7512899,35.7742027 C22.4051806,36.2293051 23.1966726,36.4977355 24.0504265,36.4977355 L36.5897757,36.4977355 L36.5909129,36.4977355 L36.5917658,36.4977355 L42.9504265,36.4977355 C43.8041803,36.4977355 44.5956723,36.2293051 45.249563,35.7742027 C43.7956513,40.9232637 39.080815,44.7073033 33.5002843,44.7073033 Z" id="Shape"></path>
            </g>
        </g>
    </g>
</svg>