<?xml version="1.0" encoding="UTF-8"?>
<svg width="22px" height="14px" viewBox="0 0 22 14" version="1.1" xmlns="http://www.w3.org/2000/svg" xmlns:xlink="http://www.w3.org/1999/xlink">
    <!-- Generator: Sketch 46.2 (44496) - http://www.bohemiancoding.com/sketch -->
    <title>Shape@3x</title>
    <desc>Created with Sketch.</desc>
    <defs></defs>
    <g id="HOME-SCRREN-V3" stroke="none" stroke-width="1" fill="none" fill-rule="evenodd">
        <g id="HOME-SCREEN-3.3" transform="translate(-911.000000, -9241.000000)" fill-rule="nonzero" fill="#999999">
            <g id="15-FOOTER" transform="translate(0.000000, 9019.000000)">
                <g id="TEXTBOX" transform="translate(895.000000, 204.000000)">
                    <path d="M35.6137194,18 L18.3862806,18 C17.0705608,18 16,19.0369289 16,20.311315 L16,29.688685 C16,30.9630711 17.0705608,32 18.3862806,32 L35.6137194,32 C36.9294392,32 38,30.9630711 38,29.688685 L38,20.311315 C38,19.0366856 36.9294392,18 35.6137194,18 Z M18.3862806,19.2164816 L35.6137194,19.2164816 C36.2369154,19.2164816 36.7440628,19.7076969 36.7440628,20.311315 L36.7440628,21.4618633 L28.3383266,27.1438055 C28.1544574,27.2742123 27.560148,27.6128808 27.0258723,27.6128808 C26.284367,27.6128808 25.7747077,27.2158212 25.7739541,27.2153346 L17.2559372,21.5294997 L17.2559372,20.311315 C17.2559372,19.7074536 17.7630846,19.2164816 18.3862806,19.2164816 Z M35.6137194,30.7832751 L18.3862806,30.7832751 C17.7630846,30.7832751 17.2559372,30.2920599 17.2559372,29.6884417 L17.2559372,23.006065 L24.9899982,28.16565 C25.1615592,28.2984898 25.9161262,28.8293624 27.0258723,28.8293624 C28.0723191,28.8293624 28.9851343,28.1938724 29.070538,28.1320751 L36.7440628,22.945241 L36.7440628,29.6889283 C36.7440628,30.2923031 36.2369154,30.7832751 35.6137194,30.7832751 Z" id="Shape"></path>
                </g>
            </g>
        </g>
    </g>
</svg>