<svg id="Layer_1" data-name="Layer 1" xmlns="http://www.w3.org/2000/svg" width="21.7" height="21.7" viewBox="0 0 21.7 21.7"><defs><style>.cls-1{fill:#2dccbb;}.cls-2{fill:none;stroke:#2dccbb;stroke-miterlimit:10;}</style></defs><title>events</title><path id="Shape" class="cls-1" d="M20.54,19.18l0-14.63A1.71,1.71,0,0,0,18.8,2.85H16.13V1.46a.43.43,0,0,0-.85,0V2.75H7.36V1.48a.43.43,0,0,0-.85,0V2.76H3A1.71,1.71,0,0,0,1.28,4.48l0,14A1.69,1.69,0,0,0,3,20.18s12.86,0,16.54,0A1,1,0,0,0,20.54,19.18ZM2.24,4.59a.84.84,0,0,1,.85-.86H6.62v.85a.85.85,0,1,0,.86.85V3.61h7.91v.85a.85.85,0,1,0,.86.85V3.6h2.67a.84.84,0,0,1,.86.85V7.12l-17.52,0Zm16.58,9.48M3.12,19.33a.84.84,0,0,1-.86-.85L2.24,8,19.66,8l0,10.32a1,1,0,0,1-1,1Z"/><line class="cls-2" x1="5.68" y1="11.16" x2="16.1" y2="11.14"/><line class="cls-2" x1="5.48" y1="13.73" x2="16.1" y2="13.71"/><line class="cls-2" x1="5.49" y1="16.31" x2="11.16" y2="16.3"/></svg>