<?xml version="1.0" encoding="UTF-8"?>
<svg width="20px" height="20px" viewBox="0 0 20 20" version="1.1" xmlns="http://www.w3.org/2000/svg" xmlns:xlink="http://www.w3.org/1999/xlink">
    <!-- Generator: Sketch 46.2 (44496) - http://www.bohemiancoding.com/sketch -->
    <title>Group 23@3x</title>
    <desc>Created with Sketch.</desc>
    <defs></defs>
    <g id="HOME-SCRREN-V3" stroke="none" stroke-width="1" fill="none" fill-rule="evenodd">
        <g id="HOME-SCREEN-3.3" transform="translate(-1146.000000, -89.000000)" fill-rule="nonzero" fill="#333333">
            <g id="SUBHEADER" transform="translate(0.000000, 70.000000)">
                <g id="SHARE" transform="translate(1088.000000, 19.000000)">
                    <g id="bra-facebook" transform="translate(58.000000, 0.000000)">
                        <g id="Group-23">
                            <path d="M10,0 C4.48590909,0 0,4.48590909 0,10 C0,15.5140909 4.48590909,20 10,20 C15.5140909,20 20,15.5140909 20,10 C20,4.48590909 15.5140909,0 10,0 L10,0 Z M10,19.0909091 C4.98727273,19.0909091 0.909090909,15.0127273 0.909090909,10 C0.909090909,4.98727273 4.98727273,0.909090909 10,0.909090909 C15.0127273,0.909090909 19.0909091,4.98727273 19.0909091,10 C19.0909091,15.0127273 15.0127273,19.0909091 10,19.0909091 L10,19.0909091 Z" id="Shape"></path>
                            <path d="M8.16409091,6.08590909 L8.16409091,7.27272727 L6.36363636,7.27272727 L6.36363636,9.54545455 L8.16409091,9.54545455 L8.16409091,16.3636364 L10.9090909,16.3636364 L10.9090909,9.54545455 L13.1818182,9.54545455 L13.1818182,7.27272727 L10.9090909,7.27272727 L10.9090909,6.82636364 C10.9090909,6.32 11.3213636,5.90909091 11.8290909,5.90909091 L13.1818182,5.90909091 L13.1818182,3.63636364 L10.6204545,3.63636364 C9.26409091,3.63636364 8.16409091,4.73363636 8.16409091,6.08590909 L8.16409091,6.08590909 Z" id="Shape"></path>
                        </g>
                    </g>
                </g>
            </g>
        </g>
    </g>
</svg>