<svg id="Layer_1" data-name="Layer 1" xmlns="http://www.w3.org/2000/svg" viewBox="0 0 493 510.56"><defs><style>.cls-1{fill:none;stroke:#9fce0f;stroke-linecap:round;stroke-miterlimit:10;stroke-width:20.4px;}.cls-2{fill:#9fce0f;}</style></defs><title>FAQ</title><path class="cls-1" d="M128.44,451.23A234,234,0,0,1,13.51,249.68c0-129.3,104.82-234.11,234.11-234.11S481.74,120.38,481.74,249.68A234,234,0,0,1,363.15,453.35"/><path class="cls-2" d="M223.51,387V374q0-28.28,8.7-46.53t32.39-38.55q32.87-27.79,41.45-41.81t8.58-33.84q0-24.65-15.83-38.07t-45.56-13.41A154.92,154.92,0,0,0,216,166.25q-18.13,4.48-41.57,16.32l-14.26-32.63Q205.86,126,255.65,126q46.16,0,71.79,22.72t25.62,64.05q0,17.65-4.71,31.06a91.23,91.23,0,0,1-13.9,25.38q-9.19,12-39.64,38.55-24.42,20.79-32.27,34.56t-7.86,36.74v8Zm-11.84,71.79q0-32.87,29-32.87,14,0,21.63,8.46t7.61,24.41q0,15.47-7.74,24t-21.51,8.58q-12.57,0-20.79-7.61T211.67,458.83Z"/></svg>