<?xml version="1.0" encoding="UTF-8"?>
<svg width="82px" height="82px" viewBox="0 0 82 82" version="1.1" xmlns="http://www.w3.org/2000/svg" xmlns:xlink="http://www.w3.org/1999/xlink">
    <!-- Generator: Sketch 46.2 (44496) - http://www.bohemiancoding.com/sketch -->
    <title>Group 77@3x</title>
    <desc>Created with Sketch.</desc>
    <defs>
        <polygon id="path-1" points="0.00743202417 0.0856176471 0.00743202417 35.2488688 37.0966699 35.2488688 37.0966699 0.0856176471"></polygon>
    </defs>
    <g id="HOME-SCRREN-V3" stroke="none" stroke-width="1" fill="none" fill-rule="evenodd">
        <g id="HOME-SCREEN-3.3" transform="translate(-160.000000, -8092.000000)">
            <g id="Group-77" transform="translate(160.000000, 8092.000000)">
                <path d="M54.6413565,22.1006697 C54.6413565,19.0424284 57.1239003,16.563629 60.1867613,16.563629 C63.2497462,16.563629 65.73229,19.0424284 65.73229,22.1006697 C65.73229,25.1590347 63.2497462,27.6378341 60.1867613,27.6378341 C57.1239003,27.6378341 54.6413565,25.1590347 54.6413565,22.1006697 Z M44.8009849,21.2699095 L35.760423,23.7808658 C35.6521631,23.8100543 35.5566616,23.8733786 35.4844471,23.959089 L29.0542598,31.6798281 C28.9712689,31.7801327 28.9274199,31.903813 28.9274199,32.0304615 C28.9274199,32.0850045 28.9352236,32.1375686 28.9518218,32.1911222 C29.0064471,32.3684796 29.1459215,32.5057647 29.323423,32.5573394 L38.4518066,35.2095385 C38.3737704,37.1419186 38.8165952,38.8473454 39.7822628,40.2508688 L36.8910816,43.7649955 C36.7086254,43.987991 36.7272054,44.3124042 36.9369124,44.5120241 L39.6866375,47.1213062 C39.7930393,47.2226003 39.9363535,47.2761538 40.0846224,47.2713303 C40.2319003,47.2665068 40.3714985,47.2021931 40.4709637,47.0931071 L43.6664864,43.6139819 C44.4780634,43.9110618 46.5001934,44.4438763 49.5768036,43.878905 L52.8465227,52.8201207 C52.9099426,52.9943861 53.0572205,53.124003 53.2376949,53.1658069 C53.4181692,53.208724 53.6073142,53.1561599 53.7419577,53.0285219 L61.0267039,46.1055204 C61.1115529,46.0246335 61.1681601,45.920371 61.1895891,45.8044827 L62.8225287,36.6851674 C64.8094804,34.9689804 66.8198429,32.9722866 68.8019637,30.7486395 C80.2128459,17.9447662 81.9160181,7.93606637 81.9160181,3.11006335 C81.9160181,1.52139065 81.7229094,0.64585822 81.7151057,0.608877828 C81.6663021,0.391571644 81.4906586,0.226087481 81.2711662,0.188117647 C80.7034834,0.0906576169 67.1759607,-1.99174661 49.5718489,15.5856893 C49.549429,15.6090649 47.2620997,17.9651735 44.8009849,21.2699095 L44.8009849,21.2699095 Z" id="Fill-34" fill="#FFFFFE"></path>
                <g id="Group-39" transform="translate(0.000000, 46.751131)">
                    <mask id="mask-2" fill="white">
                        <use xlink:href="#path-1"></use>
                    </mask>
                    <g id="Clip-36"></g>
                    <path d="M36.8059849,2.47471795 L-27.7404018,66.9233786 C-28.1279819,67.3104977 -28.7563595,67.3104977 -29.1439396,66.9233786 L-29.842426,66.225822 C-30.230006,65.8387029 -30.230006,65.211644 -29.842426,64.8245249 L34.7039607,0.375864253 C35.0915408,-0.0111312217 35.7199184,-0.0111312217 36.1074985,0.375864253 L36.8059849,1.07329713 C37.193565,1.46029261 37.193565,2.08772247 36.8059849,2.47471795" id="Fill-35" fill="#FFFFFE" mask="url(#mask-2)"></path>
                    <path d="M35.8771057,10.6805309 L-28.6694048,75.1295626 C-29.0569849,75.5166817 -29.6852387,75.5166817 -30.0728187,75.1295626 L-30.771429,74.432006 C-31.1588852,74.0448869 -31.1588852,73.4178281 -30.771429,73.0307089 L33.7750816,8.5818009 C34.1626616,8.19480543 34.7909154,8.19480543 35.1784955,8.5818009 L35.8771057,9.27923379 C36.2645619,9.66622926 36.2645619,10.2936591 35.8771057,10.6805309" id="Fill-37" fill="#FFFFFE" mask="url(#mask-2)"></path>
                    <path d="M27.8736828,3.75394268 L-36.6728278,68.2034691 C-37.0604079,68.5893514 -37.6886616,68.5893514 -38.0762417,68.2034691 L-38.774852,67.5059125 C-39.1623082,67.1187934 -39.1623082,66.4917345 -38.774852,66.1046154 L25.7716586,1.65508899 C26.1592387,1.26809351 26.7874924,1.26809351 27.1750725,1.65508899 L27.8736828,2.35252187 C28.261139,2.73951735 28.261139,3.36694721 27.8736828,3.75394268" id="Fill-38" fill="#FFFFFE" mask="url(#mask-2)"></path>
                </g>
            </g>
        </g>
    </g>
</svg>