<?xml version="1.0" encoding="UTF-8"?>
<svg width="25px" height="25px" viewBox="0 0 25 25" version="1.1" xmlns="http://www.w3.org/2000/svg" xmlns:xlink="http://www.w3.org/1999/xlink">
    <!-- Generator: Sketch 46.2 (44496) - http://www.bohemiancoding.com/sketch -->
    <title>ICO@3x</title>
    <desc>Created with Sketch.</desc>
    <defs></defs>
    <g id="HOME-SCRREN-V3" stroke="none" stroke-width="1" fill="none" fill-rule="evenodd">
        <g id="HOME-SCREEN-3.3" transform="translate(-120.000000, -2025.000000)" fill-rule="nonzero" fill="#339FFF">
            <g id="HEADER" transform="translate(100.000000, 2002.000000)">
                <g id="ICO" transform="translate(20.000000, 23.000000)">
                    <path d="M12.4925181,17.4476114 C12.0132813,17.4476114 11.6247296,17.0592909 11.6247296,16.5797458 C11.6247296,16.1003549 12.0130501,15.7118803 12.4925181,15.7118803 C14.3588452,15.7118803 15.8768394,14.1935778 15.8768394,12.3274819 C15.8768394,10.4612319 14.358537,8.94300648 12.4925181,8.94300648 C12.0132813,8.94300648 11.6247296,8.5546089 11.6247296,8.07506386 C11.6247296,7.59574996 12.0130501,7.20742943 12.4925181,7.20742943 C15.3157009,7.20742943 17.6123394,9.5043762 17.6123394,12.3274819 C17.6123394,15.1509728 15.3156238,17.4476114 12.4925181,17.4476114 Z" id="Shape"></path>
                    <path d="M12.327636,21.1548397 C7.46037711,21.1548397 3.50043224,17.1949719 3.50043224,12.3278671 C3.50043224,11.8484762 3.88875277,11.4600016 4.36837486,11.4600016 C4.8479199,11.4600016 5.23624043,11.8483991 5.23624043,12.3278671 C5.23624043,16.2381162 8.41769509,19.4192627 12.3278671,19.4192627 C16.2383474,19.4192627 19.4199561,16.2379621 19.4199561,12.3278671 C19.4199561,8.41777214 16.2380392,5.23624043 12.327713,5.23624043 C11.848245,5.23624043 11.4597704,4.84784285 11.4597704,4.36845191 C11.4597704,3.88913801 11.8480909,3.50066338 12.327713,3.50066338 C17.1953572,3.50066338 21.1549168,7.46045416 21.1549168,12.327636 C21.1548397,17.195049 17.1952801,21.1548397 12.327636,21.1548397 Z" id="Shape"></path>
                    <path d="M12.327636,24.655272 C5.53010046,24.655272 0,19.1250174 0,12.327713 C0,9.28794914 1.1160363,6.36776332 3.14239146,4.10564212 C3.46237066,3.74929639 4.01079637,3.71893959 4.36768143,4.0384565 C4.72448944,4.35812751 4.7547692,4.90686141 4.43502114,5.26382352 C2.69420485,7.20696714 1.7355,9.71564107 1.7355,12.3275589 C1.7355,18.1678535 6.48726434,22.9196179 12.327636,22.9196179 C18.1678535,22.9196179 22.9196179,18.1680076 22.9196179,12.3275589 C22.9196179,6.4870332 18.1678535,1.73557705 12.327636,1.73557705 C11.848168,1.73557705 11.4596934,1.34725652 11.4596934,0.867788526 C11.4596934,0.388474629 11.8480139,0 12.327636,0 C19.1250174,0 24.655272,5.53025455 24.655272,12.327713 C24.655272,19.1250174 19.1250174,24.655272 12.327636,24.655272 Z" id="Shape"></path>
                </g>
            </g>
        </g>
    </g>
</svg>