<?xml version="1.0" encoding="UTF-8"?>
<svg width="20px" height="20px" viewBox="0 0 20 20" version="1.1" xmlns="http://www.w3.org/2000/svg" xmlns:xlink="http://www.w3.org/1999/xlink">
    <!-- Generator: Sketch 46.2 (44496) - http://www.bohemiancoding.com/sketch -->
    <title>bra-google@3x</title>
    <desc>Created with Sketch.</desc>
    <defs></defs>
    <g id="HOME-SCRREN-V3" stroke="none" stroke-width="1" fill="none" fill-rule="evenodd">
        <g id="HOME-SCREEN-3.3" transform="translate(-1226.000000, -89.000000)" fill-rule="nonzero" fill="#333333">
            <g id="SUBHEADER" transform="translate(0.000000, 70.000000)">
                <g id="SHARE" transform="translate(1088.000000, 19.000000)">
                    <g id="bra-google" transform="translate(138.000000, 0.000000)">
                        <path d="M10,0 C4.48590909,0 0,4.48590909 0,10 C0,15.5140909 4.48590909,20 10,20 C15.5140909,20 20,15.5140909 20,10 C20,4.48590909 15.5140909,0 10,0 L10,0 Z M10,19.0909091 C4.98727273,19.0909091 0.909090909,15.0127273 0.909090909,10 C0.909090909,4.98727273 4.98727273,0.909090909 10,0.909090909 C15.0127273,0.909090909 19.0909091,4.98727273 19.0909091,10 C19.0909091,15.0127273 15.0127273,19.0909091 10,19.0909091 L10,19.0909091 Z" id="Shape"></path>
                        <path d="M10.5559091,11.255 C10.225,11.0227273 9.59272727,10.4563636 9.59272727,10.1245455 C9.59272727,9.735 9.70545455,9.54136364 10.2945455,9.08409091 C10.9004545,8.61363636 11.3290909,7.95227273 11.3290909,7.18363636 C11.3290909,6.26863636 10.9181818,5.375 10.1486364,5.08181818 L11.3095455,5.08181818 L12.1277273,4.49318182 L8.46863636,4.49318182 C6.82727273,4.49318182 5.28409091,5.72954545 5.28409091,7.16 C5.28409091,8.62227273 6.40181818,9.80363636 8.07227273,9.80363636 C8.18681818,9.80363636 8.3,9.80045455 8.41,9.79363636 C8.30181818,9.99909091 8.225,10.2327273 8.225,10.4731818 C8.225,10.8790909 8.44409091,11.2081818 8.72272727,11.4786364 C8.51272727,11.4786364 8.31045455,11.4845455 8.08954545,11.4845455 C6.05590909,11.4845455 4.49272727,12.7709091 4.49272727,14.1063636 C4.49272727,15.4195455 6.20636364,16.2413636 8.23863636,16.2413636 C10.5554545,16.2413636 11.8359091,14.9354545 11.8359091,13.6204545 C11.8363636,12.5663636 11.5236364,11.9354545 10.5559091,11.255 L10.5559091,11.255 Z M8.60181818,9.43363636 C7.65909091,9.40545455 6.76272727,8.38363636 6.59818182,7.15318182 C6.43681818,5.92136364 7.06863636,4.98045455 8.01227273,5.00772727 C8.95454545,5.03590909 9.85090909,6.02318182 10.0145455,7.25454545 C10.1763636,8.48545455 9.54318182,9.46 8.60181818,9.43363636 L8.60181818,9.43363636 Z M8.23181818,15.6604545 C6.82772727,15.6604545 5.81318182,14.7763636 5.81318182,13.7145455 C5.81318182,12.6731818 7.07136364,11.8077273 8.47636364,11.8227273 C8.80454545,11.8263636 9.10954545,11.8781818 9.38636364,11.9677273 C10.1495455,12.4945455 10.6959091,12.7918182 10.8509091,13.3931818 C10.88,13.5154545 10.8954545,13.64 10.8954545,13.7681818 C10.895,14.8304545 10.2063636,15.6604545 8.23181818,15.6604545 L8.23181818,15.6604545 Z" id="Shape"></path>
                        <polygon id="Shape" points="14.5454545 4.54545455 13.6363636 4.54545455 13.6363636 6.36363636 11.8359091 6.36363636 11.8359091 7.27272727 13.6363636 7.27272727 13.6363636 9.09090909 14.5454545 9.09090909 14.5454545 7.27272727 16.3636364 7.27272727 16.3636364 6.36363636 14.5454545 6.36363636"></polygon>
                    </g>
                </g>
            </g>
        </g>
    </g>
</svg>