<?xml version="1.0" encoding="UTF-8"?>
<svg width="39px" height="22px" viewBox="0 0 39 22" version="1.1" xmlns="http://www.w3.org/2000/svg" xmlns:xlink="http://www.w3.org/1999/xlink">
    <!-- Generator: Sketch 46.2 (44496) - http://www.bohemiancoding.com/sketch -->
    <title>group (1)@3x</title>
    <desc>Created with Sketch.</desc>
    <defs></defs>
    <g id="HOME-SCRREN-V3" stroke="none" stroke-width="1" fill="none" fill-rule="evenodd">
        <g id="HOME-SCREEN-3.3" transform="translate(-253.000000, -749.000000)" fill-rule="nonzero" fill="#1FEEFF">
            <g id="group-(1)" transform="translate(253.000000, 749.000000)">
                <path d="M31.2322624,6.54616445 L31.8286479,6.54616445 C32.8078983,6.54616445 33.5957162,7.38952687 33.5957162,8.42030317 L33.5957162,11.3642627 C33.5957162,11.5516766 33.5073628,11.7234727 33.3601071,11.8249885 C33.1539491,11.9655489 33.0361446,12.2076252 33.0361446,12.4653192 L33.0361446,15.2999541 C33.0361446,15.6513551 33.2202142,15.9559026 33.5147256,16.1120808 C33.8607764,16.2916858 35.6572959,17.2521819 37.3212851,18.7046394 C37.461178,18.829582 37.5421687,19.009187 37.5421687,19.2122186 L37.5421687,21.2269178 C37.5421687,21.6564079 37.8661312,22 38.2710843,22 C38.6760375,22 39,21.6564079 39,21.2269178 L39,19.2122186 C39,18.5484612 38.727577,17.9315572 38.2416332,17.509876 C36.7764391,16.2292145 35.208166,15.307763 34.4866131,14.9095085 L34.4866131,12.8245292 C34.8400268,12.4340836 35.0461847,11.9186955 35.0461847,11.3642627 L35.0461847,8.42030317 C35.0461847,6.53054662 33.5957162,5 31.8212851,5 L31.2248996,5 C29.4431058,5 28,6.53835554 28,8.42030317 L28,11.3642627 C28,11.9186955 28.206158,12.4340836 28.5595716,12.8245292 L28.5595716,13.8318787 C28.5595716,14.2613689 28.8835341,14.604961 29.2884873,14.604961 C29.6934404,14.604961 30.0174029,14.2613689 30.0174029,13.8318787 L30.0174029,12.4731282 C30.0174029,12.2154341 29.8922356,11.9733578 29.6934404,11.8327974 C29.5461847,11.7312816 29.4578313,11.5594855 29.4578313,11.3720717 L29.4578313,8.42811208 C29.4578313,7.38952687 30.253012,6.54616445 31.2322624,6.54616445 Z" id="Shape"></path>
                <path d="M0.758874749,17.509876 C0.279973208,17.9315572 0,18.5484612 0,19.2122186 L0,21.2269178 C0,21.6564079 0.324179504,22 0.729403885,22 C1.13462827,22 1.45880777,21.6564079 1.45880777,21.2269178 L1.45880777,19.2122186 C1.45880777,19.0169959 1.53985265,18.829582 1.67983925,18.7046394 C3.34494307,17.2599908 5.14266577,16.2916858 5.48894843,16.1120808 C5.78365707,15.9559026 5.96784997,15.6513551 5.96784997,15.2999541 L5.96784997,12.4653192 C5.96784997,12.2076252 5.84259879,11.9655489 5.64367046,11.8249885 C5.49631614,11.7234727 5.40790355,11.5516766 5.40790355,11.3642627 L5.40790355,8.42030317 C5.40790355,7.38171796 6.20361688,6.54616445 7.17615539,6.54616445 L7.77294039,6.54616445 C8.75284662,6.54616445 9.54119223,7.38952687 9.54119223,8.42030317 L9.54119223,11.3642627 C9.54119223,11.5516766 9.45277964,11.7234727 9.30542532,11.8249885 C9.09912927,11.9655489 8.98124581,12.2076252 8.98124581,12.4653192 L8.98124581,13.8865411 C8.98124581,14.3160312 9.30542532,14.6596233 9.7106497,14.6596233 C10.1158741,14.6596233 10.4400536,14.3160312 10.4400536,13.8865411 L10.4400536,12.8245292 C10.793704,12.4340836 11,11.9186955 11,11.3642627 L11,8.42030317 C11,6.53054662 9.54855995,5 7.77294039,5 L7.17615539,5 C5.39316812,5 3.94909578,6.53835554 3.94909578,8.42030317 L3.94909578,11.3642627 C3.94909578,11.9186955 4.15539183,12.4340836 4.5090422,12.8245292 L4.5090422,14.9095085 C3.79437374,15.307763 2.22505023,16.2370234 0.758874749,17.509876 Z" id="Shape"></path>
                <path d="M29.1907357,22 C29.640327,22 30,21.6492754 30,21.2108696 L30,18.5485507 C30,17.7434783 29.640327,16.9942029 29.0027248,16.484058 C26.8201635,14.7304348 24.4822888,13.4869565 23.5258856,13.0086957 L23.5258856,10.0115942 C24.0326975,9.53333333 24.3269755,8.87971014 24.3269755,8.17826087 L24.3269755,4.2884058 C24.3269755,1.92101449 22.3487738,0 19.9291553,0 L19.0708447,0 C16.6430518,0 14.6730245,1.92898551 14.6730245,4.2884058 L14.6730245,8.17826087 C14.6730245,8.87971014 14.9673025,9.53333333 15.4741144,10.0115942 L15.4741144,13.0086957 C14.5177112,13.4869565 12.1798365,14.7304348 9.9972752,16.484058 C9.35967302,16.9942029 9,17.7434783 9,18.5485507 L9,21.2108696 C9,21.6492754 9.35967302,22 9.80926431,22 C10.2588556,22 10.6185286,21.6492754 10.6185286,21.2108696 L10.6185286,18.5485507 C10.6185286,18.2217391 10.7656676,17.9108696 11.027248,17.7036232 C13.4386921,15.7746377 16.0463215,14.4913043 16.5449591,14.2521739 C16.8882834,14.0927536 17.1008174,13.757971 17.1008174,13.3913043 L17.1008174,9.64492754 C17.1008174,9.38188406 16.9618529,9.13478261 16.7411444,8.99130435 C16.4632153,8.80797101 16.2997275,8.51304348 16.2997275,8.18623188 L16.2997275,4.29637681 C16.2997275,2.79782609 17.5504087,1.58623188 19.0790191,1.58623188 L19.9373297,1.58623188 C21.4741144,1.58623188 22.7166213,2.8057971 22.7166213,4.29637681 L22.7166213,8.18623188 C22.7166213,8.50507246 22.5531335,8.80797101 22.2752044,8.99130435 C22.0463215,9.13478261 21.9155313,9.38188406 21.9155313,9.64492754 L21.9155313,13.3913043 C21.9155313,13.757971 22.1280654,14.0927536 22.4713896,14.2601449 C22.9700272,14.4992754 25.5776567,15.7826087 27.9891008,17.7115942 C28.2506812,17.9188406 28.3978202,18.2297101 28.3978202,18.5565217 L28.3978202,21.2188406 C28.3814714,21.6492754 28.7411444,22 29.1907357,22 Z" id="Shape"></path>
            </g>
        </g>
    </g>
</svg>