<svg id="Layer_1" data-name="Layer 1" xmlns="http://www.w3.org/2000/svg" width="21.7" height="21.7" viewBox="0 0 21.7 21.7"><defs><style>.cls-1{fill:#db63d5;}</style></defs><title>hand</title><path class="cls-1" d="M18.79,10.61a17.64,17.64,0,0,0-3.5.73c-.12-1.25-1.72-1.69-3.37-2a7.45,7.45,0,0,1-1.86-.69A4.7,4.7,0,0,0,7.92,8a9.09,9.09,0,0,0-2.34.33,1.3,1.3,0,0,0-1-.92L1,6.71a.43.43,0,0,0-.52.43v7a.43.43,0,0,0,.43.43H3.69a1.3,1.3,0,0,0,1.19-.82c1,.46,5.48,2.56,7.39,2.56,1.69,0,5.16-1.71,7.46-2.84.6-.29,1.09-.54,1.41-.68a.44.44,0,0,0,.26-.4C21.4,11.33,20.32,10.61,18.79,10.61Zm-14-1.86-.65,4.53a.44.44,0,0,1-.43.37H1.4v-6l3,.6A.43.43,0,0,1,4.76,8.75Zm14.58,3.89c-2.09,1-5.59,2.75-7.07,2.75s-5.73-1.85-7.2-2.56h0l.51-3.58a8.36,8.36,0,0,1,2.35-.37,3.92,3.92,0,0,1,1.76.54,8.3,8.3,0,0,0,2.06.75c1.89.38,2.7.78,2.7,1.31a.26.26,0,0,1-.11.23c-.28.21-1.36.55-5.41-.65a.43.43,0,0,0-.25.83,17.63,17.63,0,0,0,4.62.89,2.61,2.61,0,0,0,1.56-.38l.08-.07H15a20.44,20.44,0,0,1,3.78-.85,2,2,0,0,1,1.67.62Z"/></svg>