<?xml version="1.0" encoding="UTF-8"?>
<svg width="28px" height="27px" viewBox="0 0 28 27" version="1.1" xmlns="http://www.w3.org/2000/svg" xmlns:xlink="http://www.w3.org/1999/xlink">
    <!-- Generator: Sketch 46.2 (44496) - http://www.bohemiancoding.com/sketch -->
    <title>home@3x</title>
    <desc>Created with Sketch.</desc>
    <defs></defs>
    <g id="HOME-SCRREN-V3" stroke="none" stroke-width="1" fill="none" fill-rule="evenodd">
        <g id="HOME-SCREEN-3.3" transform="translate(-72.000000, -747.000000)" fill-rule="nonzero" fill="#1E201D">
            <g id="home" transform="translate(72.000000, 747.000000)">
                <path d="M14.4651133,0.19130684 L21.1252745,6.47861151 L27.7854356,12.7659162 C28.0546555,13.0297837 28.0740588,13.4591066 27.8236357,13.7420415 C27.6890258,13.8884295 27.5059077,13.9567029 27.323396,13.9567029 L27.323396,13.9665441 L23.9551153,13.9665441 L23.9551153,26.3068096 C23.9551153,26.6875415 23.6470889,27 23.2717576,27 L17.9686103,27 C17.593279,27 17.2949542,26.6875415 17.2949542,26.3068096 L17.2949542,16.8174204 L10.7117996,16.8174204 L10.7117996,26.3068096 C10.7117996,26.6875415 10.4037732,27 10.0284419,27 L4.7252946,27 C4.34996323,27 4.05163846,26.6875415 4.05163846,26.3068096 L4.05163846,13.9665441 L0.67365614,13.9665441 C0.298324771,13.9665441 0,13.6547007 0,13.2739688 C0,13.0593073 0.0964098347,12.8637132 0.25042303,12.7370076 L6.88147933,6.47922659 L13.5410341,0.181465627 C13.8011588,-0.0621043835 14.2049887,-0.0621043835 14.4651133,0.19130684 L14.4651133,0.19130684 Z M20.2011953,7.48426042 L14.0030737,1.62689372 L7.80495215,7.4848755 L2.40600141,12.5813935 L4.7252946,12.5813935 C5.10062597,12.5813935 5.40865236,12.8938519 5.40865236,13.2745839 L5.40865236,25.6148493 L9.35478572,25.6148493 L9.35478572,16.1340712 C9.35478572,15.7533393 9.65311049,15.4408808 10.0284419,15.4408808 L17.9686103,15.4408808 C18.3439417,15.4408808 18.6519681,15.7533393 18.6519681,16.1340712 L18.6519681,25.6136192 L22.5981014,25.6136192 L22.5981014,13.2739688 C22.5981014,12.8932369 22.8964262,12.5807784 23.2717576,12.5807784 L25.6007524,12.5807784 L20.2011953,7.48426042 Z" id="Shape"></path>
            </g>
        </g>
    </g>
</svg>