<svg id="Layer_1" data-name="Layer 1" xmlns="http://www.w3.org/2000/svg" xmlns:xlink="http://www.w3.org/1999/xlink" width="102" height="93" viewBox="0 0 102 93">
  <defs>
    <style>
      .cls-1, .cls-2, .cls-6 {
        fill: none;
      }

      .cls-2 {
        clip-path: url(#clip-path);
      }

      .cls-3 {
        clip-path: url(#clip-path-5);
      }

      .cls-4 {
        clip-path: url(#clip-path-6);
      }

      .cls-5 {
        clip-path: url(#clip-path-7);
      }

      .cls-6 {
        stroke: #000;
        stroke-miterlimit: 10;
        stroke-width: 0.3px;
      }

      .cls-7 {
        clip-path: url(#clip-path-8);
      }
    </style>
    <clipPath id="clip-path">
      <rect class="cls-1" width="102" height="93"/>
    </clipPath>
    <clipPath id="clip-path-5">
      <path class="cls-2" d="M30,57a3,3,0,1,0-3-3,3,3,0,0,0,3,3Z"/>
    </clipPath>
    <clipPath id="clip-path-6">
      <path class="cls-2" d="M69,57a3,3,0,1,0-3-3,3,3,0,0,0,3,3Z"/>
    </clipPath>
    <clipPath id="clip-path-7">
      <path class="cls-2" d="M99,54.76a11.3,11.3,0,0,0-9.26-11.13V42a38.74,38.74,0,1,0-77.48,0v1.68a11.31,11.31,0,0,0,.14,22.28C13.14,74.5,17,80.84,24,84.79c6.22,3.51,15,5.21,27,5.21s20.75-1.71,27-5.21c7-3.95,10.89-10.29,11.64-18.87A11.3,11.3,0,0,0,99,54.76Zm-92,0a7.32,7.32,0,0,1,5.29-7V61.8a7.32,7.32,0,0,1-5.29-7Zm78.81,8c0,8.76-3.19,14.83-9.75,18.53C70.41,84.47,62.23,86,51,86s-19.41-1.54-25-4.7c-6.56-3.71-9.75-9.77-9.75-18.53V42A35,35,0,0,1,41,8.46c10.91.14,16.72,8.06,16.72,13.79a8,8,0,0,1-7.92,8,6,6,0,0,1-5.94-6,4.37,4.37,0,0,1,4.36-4.38,2,2,0,0,0,0-4,8.36,8.36,0,0,0-8.32,8.37,10,10,0,0,0,9.91,10,11.94,11.94,0,0,0,11.89-12,17.13,17.13,0,0,0-5.54-11.92A20.19,20.19,0,0,0,51.48,7a34.91,34.91,0,0,1,34.3,35V62.77Zm4-1V47.73a7.32,7.32,0,0,1,0,14.07Z"/>
    </clipPath>
    <clipPath id="clip-path-8">
      <path class="cls-2" d="M56.78,63.45a12,12,0,0,1-14.57,0,2.19,2.19,0,0,0-2.66,0,1.35,1.35,0,0,0,0,2.18,16.38,16.38,0,0,0,19.9,0,1.35,1.35,0,0,0,0-2.18,2.19,2.19,0,0,0-2.66,0Z"/>
    </clipPath>
  </defs>
  <title>ksp</title>
  <g>
    <g class="cls-3">
      <rect x="12" y="36" width="36" height="36"/>
    </g>
    <g class="cls-4">
      <rect x="51" y="36" width="36" height="36"/>
    </g>
    <g class="cls-5">
      <rect x="-12" y="-12" width="126" height="117"/>
    </g>
    <path class="cls-6" d="M99,54.76a11.3,11.3,0,0,0-9.26-11.13V42a38.74,38.74,0,1,0-77.48,0v1.68a11.31,11.31,0,0,0,.14,22.28C13.14,74.5,17,80.84,24,84.79c6.22,3.51,15,5.21,27,5.21s20.75-1.71,27-5.21c7-3.95,10.89-10.29,11.64-18.87A11.3,11.3,0,0,0,99,54.76Zm-92,0a7.32,7.32,0,0,1,5.29-7V61.8a7.32,7.32,0,0,1-5.29-7Zm78.81,8c0,8.76-3.19,14.83-9.75,18.53C70.41,84.47,62.23,86,51,86s-19.41-1.54-25-4.7c-6.56-3.71-9.75-9.77-9.75-18.53V42A35,35,0,0,1,41,8.46c10.91.14,16.72,8.06,16.72,13.79a8,8,0,0,1-7.92,8,6,6,0,0,1-5.94-6,4.37,4.37,0,0,1,4.36-4.38,2,2,0,0,0,0-4,8.36,8.36,0,0,0-8.32,8.37,10,10,0,0,0,9.91,10,11.94,11.94,0,0,0,11.89-12,17.13,17.13,0,0,0-5.54-11.92A20.19,20.19,0,0,0,51.48,7a34.91,34.91,0,0,1,34.3,35V62.77Zm4-1V47.73a7.32,7.32,0,0,1,0,14.07Z"/>
    <g class="cls-7">
      <rect x="24" y="48" width="51" height="36"/>
    </g>
  </g>
</svg>
