<svg xmlns="http://www.w3.org/2000/svg" width="100" height="90" viewBox="0 0 100 90">
  <g fill="none" fill-rule="evenodd">
    <rect width="100" height="89.725" fill="#483F35"/>
    <g transform="scale(-1 1) rotate(-5 289.653 1022.814)">
      <path fill="#DA2E4E" d="M2.38473905,19.3220376 L2.04493136,17.7531444 C2.04493136,17.7531444 0.120508281,11.5247093 1.92781597,6.58444215 C3.73512367,1.64417497 12.5855083,-0.77166472 16.2101237,0.54703757 C19.8349314,1.8659307 21.6987775,4.0529536 21.6987775,4.0529536 C21.6987775,4.0529536 12.0174314,8.23768643 9.21820059,13.7487551 L6.4685852,17.6371139 C6.4685852,17.6371139 3.9010852,14.1777628 4.87127751,10.740549 C4.87127751,10.740549 3.62031597,15.004862 3.72185443,19.3418849 C3.80070059,22.7081063 2.38473905,19.3220376 2.38473905,19.3220376"/>
      <path d="M2.47057692,19.2620229 L2.13076923,17.6931298 C2.13076923,17.6931298 0.206346154,11.4646947 2.01365385,6.52442748 C3.82096154,1.58416031 12.6713462,-0.831679389 16.2959615,0.487022901 C19.9207692,1.80591603 21.7846154,3.99293893 21.7846154,3.99293893 C21.7846154,3.99293893 12.1032692,8.17767176 9.30403846,13.6887405 L6.55442308,17.5770992 C6.55442308,17.5770992 3.98692308,14.1177481 4.95711538,10.6805344 C4.95711538,10.6805344 3.70615385,14.9448473 3.80769231,19.2818702 C3.88653846,22.6480916 2.47057692,19.2620229 2.47057692,19.2620229"/>
      <path fill="#DA2E4E" d="M5.84923077,16.4099237 C5.76653846,16.251145 5.68134615,16.078626 5.59692308,15.8942748 C5.73980769,15.0704198 6.35403846,13.3354962 8.81653846,11.0131679 C8.81653846,11.0131679 8.51269231,11.8278626 8.61288462,12.1055344 C8.61288462,12.1055344 11.9813462,7.15935115 14.3861538,6.20343511 C14.3861538,6.20343511 14.0942308,6.72729008 14.3090385,7.06812977 C14.3090385,7.06812977 14.8,5.70209924 15.7084615,5.30839695 C15.7084615,5.30839695 15.1778846,6.07290076 15.3546154,6.48187023 C15.3546154,6.48187023 18.4107692,3.66526718 21.1942308,3.40171756 C21.5867308,3.76068702 21.7846154,3.99293893 21.7846154,3.99293893 C21.7846154,3.99293893 12.1032692,8.17767176 9.30403846,13.6887405 L8.28192308,15.1343511 L6.78096154,16.3633588 L5.84923077,16.4099237"/>
      <path d="M4.97712379,10.8408949 C5.43834461,9.18124499 6.31894969,7.25722423 7.99555197,5.72519084 C7.99555197,5.72519084 6.46959048,12.227188 8.32796182,15.1397911 L6.71002318,17.4277972 C6.65218805,17.4279743 6.59469924,17.4276078 6.53776665,17.4267693 C6.10752168,16.7963493 4.24271743,13.8343049 4.97712379,10.8408949"/>
      <path d="M2.38473905,19.3220376 L2.04493136,17.7531444 C2.04493136,17.7531444 0.120508281,11.5247093 1.92781597,6.58444215 C3.73512367,1.64417497 12.5855083,-0.77166472 16.2101237,0.54703757 C19.8349314,1.8659307 21.6987775,4.0529536 21.6987775,4.0529536 C21.6987775,4.0529536 12.0174314,8.23768643 9.21820059,13.7487551 L6.4685852,17.6371139 C6.4685852,17.6371139 3.9010852,14.1777628 4.87127751,10.740549 C4.87127751,10.740549 3.62031597,15.004862 3.72185443,19.3418849 C3.80070059,22.7081063 2.38473905,19.3220376 2.38473905,19.3220376"/>
      <path d="M15.6402199,0.353048212 C14.5759859,0.359136957 13.2908143,0.607770859 11.8091086,1.32299177 C8.30383442,3.01513461 7.17749659,2.57120882 7.9005075,1.4536601 C10.6183774,0.342294312 13.6407218,-0.0682155759 15.6402199,0.353048212"/>
      <path d="M2.38473905,19.3220376 L2.04493136,17.7531444 C2.04493136,17.7531444 0.120508281,11.5247093 1.92781597,6.58444215 C3.73512367,1.64417497 12.5855083,-0.77166472 16.2101237,0.54703757 C19.8349314,1.8659307 21.6987775,4.0529536 21.6987775,4.0529536 C21.6987775,4.0529536 12.0174314,8.23768643 9.21820059,13.7487551 L6.4685852,17.6371139 C6.4685852,17.6371139 3.9010852,14.1777628 4.87127751,10.740549 C4.87127751,10.740549 3.62031597,15.004862 3.72185443,19.3418849 C3.80070059,22.7081063 2.38473905,19.3220376 2.38473905,19.3220376"/>
      <path fill="#FFFFFE" d="M0.12087988,21.0387484 C0.12087988,21.0387484 -0.0120047358,21.9767255 0.000879879631,22.087985 C0.0139568027,22.1990538 0.0770337258,23.080924 0.868572187,23.9461912 C0.868572187,23.9461912 0.756072187,23.6912293 1.07222603,23.8498171 C1.38837988,24.0082141 1.34607219,24.460695 1.34607219,24.460695 C1.34607219,24.460695 1.95030296,24.747527 2.33203373,24.6000079 C2.33203373,24.6000079 3.01780296,24.9019163 3.41491834,24.8074507 C3.41491834,24.8074507 3.2489568,24.567756 3.92107219,24.490466 C4.59337988,24.412985 5.16357219,24.2500079 5.45818757,23.9358858 C5.45818757,23.9358858 5.08607219,23.8509621 5.66837988,23.3971454 C6.25049526,22.9433286 6.51549526,21.7954278 6.54780296,21.4414202 C6.54780296,21.4414202 6.41837988,21.727298 6.26087988,21.8490538 C6.26087988,21.8490538 6.47164911,20.4482904 5.68011065,19.5830232 C5.68011065,19.5830232 5.9614568,20.1538247 5.83472603,20.3814965 C5.83472603,20.3814965 5.62087988,19.3127942 5.15914911,18.9853133 C4.69741834,18.6576415 4.81549526,19.0643209 4.27491834,18.7977179 C3.73434142,18.530924 3.0712645,18.1078324 1.9539568,18.446382 C1.9539568,18.446382 2.34164911,18.7185194 1.84780296,18.8788247 C1.35414911,19.0393209 0.405687572,19.6933286 0.136456803,20.0960003 C0.136456803,20.0960003 0.415302957,20.5906568 0.12087988,21.0387484"/>
      <path fill="#FFF" d="M11.2007427,16.9780534 C10.6038196,16.8267176 9.68381958,17.2896947 9.68381958,17.2896947 C10.6613196,15.7769084 13.7238196,13.9700382 13.7238196,13.9700382 C13.5626657,14.3230916 13.8338196,14.5398855 13.8338196,14.5398855 C14.2736273,13.3259542 16.788435,11.3040076 16.788435,11.3040076 C16.4247811,12.2217557 16.7599734,12.4874046 16.7599734,12.4874046 C17.1415119,11.0062977 18.2501657,10.048855 18.2501657,10.048855 C17.5165119,10.785687 17.7690119,11.4744275 17.7690119,11.4744275 C17.7690119,11.4744275 19.3626657,9.73263359 21.2667042,8.85515267 C23.1705503,7.9778626 24.2572811,8.04637405 24.2572811,8.04637405 C24.188435,6.87881679 22.5993965,6.1851145 22.5993965,6.1851145 C22.610358,5.65687023 23.2382427,6.21660305 23.2382427,6.21660305 C22.5292042,5.36354962 20.590935,4.18530534 19.9655503,3.81679389 C17.4790119,4.6519084 15.4561273,6.63225191 15.4561273,6.63225191 C15.3824734,6.16068702 16.0599734,5.52290076 16.0599734,5.52290076 C14.8145888,6.14293893 14.4449734,7.27900763 14.4449734,7.27900763 C14.5197811,6.70801527 14.865358,6.35400763 14.865358,6.35400763 C11.0017042,8.29923664 8.58478112,12.4616412 8.58478112,12.4616412 C8.57458881,11.9475191 8.91131958,11.2624046 8.91131958,11.2624046 C8.91131958,11.2624046 5.1743965,14.2562977 5.61266573,16.3526718 C6.05093496,18.448855 7.69958881,20.0099237 7.69958881,20.0099237 C7.32670419,19.3711832 7.48747342,18.9265267 7.48747342,18.9265267 C7.72362727,19.3326336 8.0068965,19.6574427 8.29651189,19.9164122 C9.03901189,18.3087786 11.2007427,16.9780534 11.2007427,16.9780534"/>
      <path fill="#FFF" d="M24.1755769,6.04005972 C23.325,5.01658643 21.6657692,3.90628109 21.6657692,3.90628109 C22.0486538,3.83376201 22.4267308,4.1625788 22.4267308,4.1625788 C21.9892308,3.38318949 21.4076923,3.43586124 21.4076923,3.43586124 C21.0426923,3.47536506 19.7196154,3.16811315 19.3653846,3.26734979 C19.3055769,3.28414369 19.2459615,3.30170094 19.1865385,3.32002155 C19.1161538,3.34139559 19.0461538,3.36334216 18.9767308,3.3866246 C19.6021154,3.75513605 21.5403846,4.93338033 22.2494231,5.78643376 C22.2494231,5.78643376 21.6215385,5.22670094 21.6105769,5.75494521 C21.6105769,5.75494521 23.1996154,6.4486475 23.2684615,7.61620475 C23.2684615,7.61620475 22.1817308,7.5476933 20.2778846,8.42498338 C18.3738462,9.3024643 16.7801923,11.0442582 16.7801923,11.0442582 C16.7801923,11.0442582 16.5276923,10.3555177 17.2613462,9.61868567 C17.2613462,9.61868567 16.1526923,10.5761284 15.7711538,12.0572353 C15.7711538,12.0572353 15.4359615,11.7915864 15.7996154,10.8738383 C15.7996154,10.8738383 13.2848077,12.8957849 12.845,14.1097162 C12.845,14.1097162 12.5738462,13.8929223 12.735,13.5398689 C12.735,13.5398689 9.6725,15.3467391 8.695,16.8595254 C8.695,16.8595254 9.615,16.3965483 10.2119231,16.5478841 C10.2119231,16.5478841 7.66557692,17.6877696 6.92307692,19.2954032 C7.75,20.0347162 8.05384615,20.998075 8.05384615,20.998075 C8.36903846,19.1017009 12.1380769,16.8015101 12.1380769,16.8015101 C11.5409615,16.6499834 10.6211538,17.1129605 10.6211538,17.1129605 C11.5986538,15.6001742 14.6611538,13.7934948 14.6611538,13.7934948 C14.5,14.1465483 14.7709615,14.3633422 14.7709615,14.3633422 C15.2109615,13.14922 17.7257692,11.1274643 17.7257692,11.1274643 C17.3619231,12.0450215 17.6971154,12.3108612 17.6971154,12.3108612 C18.0788462,10.8295635 19.1875,9.87231162 19.1875,9.87231162 C18.4536538,10.6089528 18.7061538,11.2976933 18.7061538,11.2976933 C18.7061538,11.2976933 20.2998077,9.55589941 22.2038462,8.67860933 C24.1078846,7.80112842 24.9578846,8.73299865 24.9578846,8.73299865 C25.2336538,7.3226933 23.5365385,6.00838033 23.5365385,6.00838033 C23.5476923,5.48013605 24.1755769,6.04005972 24.1755769,6.04005972 Z"/>
      <path fill="#EAE8E4" d="M6.18384615,21.8489021 C6.18384615,21.8489021 6.39461538,20.4481387 5.60307692,19.5828716 C5.60307692,19.5828716 5.88442308,20.1536731 5.75769231,20.3813449 C5.75769231,20.3813449 5.54384615,19.3126426 5.08211538,18.9851617 C4.62038462,18.6574899 4.73846154,19.0641693 4.19788462,18.7975662 C3.69038462,18.5471846 3.07480769,18.1590166 2.07711538,18.3926044 C2.65903846,18.3971846 3.06923077,18.6435586 3.42057692,18.816841 C3.90288462,19.0546273 3.7975,18.6920319 4.20942308,18.9842075 C4.62115385,19.2761922 4.81192308,20.2294365 4.81192308,20.2294365 C4.925,20.026383 4.67403846,19.5174136 4.67403846,19.5174136 C5.37980769,20.2889784 5.19192308,21.5382151 5.19192308,21.5382151 C5.3325,21.4298181 5.44769231,21.1748563 5.44769231,21.1748563 C5.41903846,21.4905052 5.18288462,22.514551 4.66346154,22.9191311 C4.14423077,23.3237113 4.47596154,23.3996655 4.47596154,23.3996655 C4.21326923,23.6798181 3.70461538,23.825238 3.105,23.894322 C2.50557692,23.9632151 2.65365385,24.1769555 2.65365385,24.1769555 C2.29942308,24.2613067 1.68788462,23.9920319 1.68788462,23.9920319 C1.52807692,24.0538639 1.325,24.030009 1.15384615,23.9874517 C1.29403846,24.1840166 1.26903846,24.4605433 1.26903846,24.4605433 C1.26903846,24.4605433 1.87326923,24.7473754 2.255,24.5998563 C2.255,24.5998563 2.94076923,24.9017647 3.33788462,24.8072991 C3.33788462,24.8072991 3.17192308,24.5676044 3.84403846,24.4903143 C4.51634615,24.4128334 5.08653846,24.2498563 5.38115385,23.9357342 C5.38115385,23.9357342 5.00903846,23.8508105 5.59134615,23.3969937 C6.17346154,22.9431769 6.43846154,21.7952762 6.47076923,21.4412685 C6.47076923,21.4412685 6.34134615,21.7271464 6.18384615,21.8489021"/>
    </g>
    <path fill="#F05B89" d="M59.625,44.4916667 C59.625,50.7416667 55.875,54.575 50.2916667,54.575 C44.7083333,54.575 41.2083333,50.2416667 41.2083333,44.825 C41.2083333,39.075 44.875,34.825 50.4583333,34.825 C56.375,34.825 59.625,39.2416667 59.625,44.4916667 Z"/>
    <path fill="#FFF" d="M12.0416667,12.325 L16.2916667,12.325 L16.2916667,20.7416667 L16.375,20.7416667 C16.7704126,20.017035 17.2159405,19.3208977 17.7083333,18.6583333 L22.0416667,12.325 L27.375,12.325 L21.0416667,20.4083333 L27.7083333,31.4083333 L22.7083333,31.4083333 L17.9583333,23.1583333 L16.375,25.1583333 L16.375,31.4083333 L12.125,31.4083333 L12.125,12.325 L12.0416667,12.325 Z"/>
    <polygon fill="#FFF" points="33.792 12.325 33.792 31.408 29.458 31.408 29.458 12.325"/>
    <path fill="#FFF" fill-rule="nonzero" d="M37.5416667,12.6583333 C39.4752398,12.3952261 41.4236611,12.2560532 43.375,12.2416667 C47.0416667,12.2416667 49.375,12.9083333 51.2083333,14.2416667 C53.2083333,15.7416667 54.4583333,18.075 54.4583333,21.4083333 C54.4583333,25.075 53.125,27.575 51.2916667,29.1583333 C49.2916667,30.825 46.2083333,31.6583333 42.4583333,31.6583333 C40.816272,31.658171 39.1752754,31.5747305 37.5416667,31.4083333 L37.5416667,12.6583333 Z M41.7916667,28.1583333 C42.2884967,28.2275969 42.7902218,28.2554705 43.2916667,28.2416667 C47.2083333,28.2416667 49.7916667,26.1583333 49.7916667,21.575 C49.7916667,17.575 47.4583333,15.4916667 43.7083333,15.4916667 C43.0648535,15.4606209 42.4201295,15.5166839 41.7916667,15.6583333 L41.7916667,28.1583333 Z"/>
    <path fill="#FFF" d="M57.375 26.9916667C58.8447487 27.7481676 60.4720194 28.1478481 62.125 28.1583333 64.125 28.1583333 65.125 27.325 65.125 26.075 65.125 24.825 64.2083333 24.2416667 61.9583333 23.4083333 58.7916667 22.2416667 56.7083333 20.4916667 56.7083333 17.7416667 56.7083333 14.4916667 59.4583333 11.9916667 63.9583333 11.9916667 65.6286609 11.9034315 67.2934822 12.2478772 68.7916667 12.9916667L67.875 16.4916667C66.6257236 15.8944617 65.2596676 15.5814072 63.875 15.575 62.0416667 15.575 61.125 16.4083333 61.125 17.4083333 61.125 18.6583333 62.2083333 19.1583333 64.625 20.075 67.9583333 21.325 69.5416667 23.075 69.5416667 25.7416667 69.5416667 28.9083333 67.125 31.6583333 61.875 31.6583333 60.0080945 31.6491138 58.1635 31.2518165 56.4583333 30.4916667L57.375 26.9916667zM12.2916667 49.825C13.7614154 50.581501 15.388686 50.9811815 17.0416667 50.9916667 19.0416667 50.9916667 20.0416667 50.1583333 20.0416667 48.9083333 20.0416667 47.6583333 19.125 47.075 16.875 46.2416667 13.7083333 45.075 11.625 43.325 11.625 40.575 11.625 37.325 14.375 34.825 18.875 34.825 20.5715056 34.7448246 22.2612637 35.0885043 23.7916667 35.825L22.7916667 39.325C21.5423903 38.727795 20.1763342 38.4147405 18.7916667 38.4083333 16.9583333 38.4083333 16.0416667 39.2416667 16.0416667 40.2416667 16.0416667 41.4916667 17.125 41.9916667 19.5416667 42.9083333 22.875 44.1583333 24.4583333 45.9083333 24.4583333 48.575 24.4583333 51.7416667 22.0416667 54.4916667 16.7916667 54.4916667 14.9247612 54.4824471 13.0801667 54.0851498 11.375 53.325L12.2916667 49.825z"/>
    <polygon fill="#FFF" points="31.125 38.742 25.958 38.742 25.958 35.158 40.625 35.158 40.625 38.742 35.458 38.742 35.458 54.242 31.125 54.242"/>
    <path fill="#FFF" fill-rule="nonzero" d="M62.5 35.4083333C64.4335731 35.1452261 66.3819944 35.0060532 68.3333333 34.9916667 71 34.9916667 72.9166667 35.4916667 74.1666667 36.4916667 75.5071157 37.5547927 76.251934 39.1995999 76.1666667 40.9083333 76.2361528 42.5867015 75.6018074 44.2178756 74.4166667 45.4083333 72.6930091 46.8399789 70.4858108 47.555827 68.25 47.4083333 67.7485551 47.4221372 67.24683 47.3942636 66.75 47.325L66.75 54.1666667 62.5 54.1666667 62.5 35.4083333zM66.75 44.075C67.2136882 44.1855939 67.6932101 44.2138011 68.1666667 44.1583333 70.5 44.1583333 71.8333333 42.9916667 71.8333333 41.075 71.8333333 39.325 70.5833333 38.2416667 68.4166667 38.2416667 67.8283918 38.214387 67.2392164 38.2704989 66.6666667 38.4083333L66.75 44.075zM12.625 58.6583333C14.5540644 58.3538721 16.5055797 58.2144782 18.4583333 58.2416667 21.125 58.2416667 23.0416667 58.7416667 24.2916667 59.7416667 25.6232683 60.8191808 26.3903773 62.4454518 26.375 64.1583333 26.4444862 65.8367015 25.8101407 67.4678756 24.625 68.6583333 22.8816743 70.0538784 20.6888806 70.7650548 18.4583333 70.6583333 17.9568884 70.6721372 17.4551634 70.6442636 16.9583333 70.575L16.9583333 77.4083333 12.7083333 77.4083333 12.7083333 58.6583333 12.625 58.6583333zM16.875 67.325C17.3386882 67.4355939 17.8182101 67.4638011 18.2916667 67.4083333 20.625 67.4083333 21.9583333 66.2416667 21.9583333 64.325 21.9583333 62.575 20.7083333 61.4916667 18.5416667 61.4916667 17.9533918 61.464387 17.3642164 61.5204989 16.7916667 61.6583333L16.875 67.325zM29.0416667 58.6583333C30.9473051 58.3952358 32.8680058 58.2560546 34.7916667 58.2416667 37.625 58.2416667 39.625 58.6583333 40.9583333 59.7416667 42.3157886 60.9319685 42.9481574 62.7478657 42.6236933 64.5238799 42.2992292 66.299894 41.0656386 67.7748948 39.375 68.4083333L39.375 68.4916667C40.7083333 69.075 41.4583333 70.2416667 41.9583333 71.9916667 42.5416667 74.1583333 43.125 76.6583333 43.4583333 77.4083333L39.1666667 77.4083333C38.5969482 75.9768755 38.1508737 74.4992538 37.8333333 72.9916667 37.25 70.575 36.5 69.9916667 34.6666667 69.9083333L33.3333333 69.9083333 33.3333333 77.4083333 29.0833333 77.4083333 29.0416667 58.6583333zM33.2916667 66.9083333L34.9583333 66.9083333C37.125 66.9083333 38.375 65.825 38.375 64.1583333 38.375 62.4916667 37.2916667 61.4916667 35.2916667 61.4916667 34.6481868 61.4606209 34.0034629 61.5166839 33.375 61.6583333L33.2916667 66.9083333z"/>
    <polygon fill="#FFF" points="57.208 69.408 50.208 69.408 50.208 73.992 58.042 73.992 58.042 77.492 45.875 77.492 45.875 58.408 57.625 58.408 57.625 61.992 50.208 61.992 50.208 65.908 57.208 65.908"/>
    <path fill="#FFF" d="M61.125 73.075C62.5947487 73.831501 64.2220194 74.2311815 65.875 74.2416667 67.875 74.2416667 68.875 73.4083333 68.875 72.1583333 68.875 70.9083333 67.9583333 70.325 65.7083333 69.4916667 62.5416667 68.325 60.4583333 66.575 60.4583333 63.825 60.4583333 60.575 63.2083333 58.075 67.7083333 58.075 69.3786609 57.9867648 71.0434822 58.3312106 72.5416667 59.075L71.6666667 62.575C70.4173903 61.977795 69.0513342 61.6647405 67.6666667 61.6583333 65.8333333 61.6583333 64.9166667 62.575 64.9166667 63.4916667 64.9166667 64.7416667 66 65.2416667 68.4166667 66.1583333 71.75 67.4083333 73.3333333 69.1583333 73.3333333 71.825 73.3333333 74.9916667 70.9166667 77.7416667 65.6666667 77.7416667 63.7997612 77.7324471 61.9551667 77.3351498 60.25 76.575L61.125 73.075zM76.4583333 73.075C77.9542713 73.8412943 79.610882 74.2411659 81.2916667 74.2416667 83.2916667 74.2416667 84.2916667 73.4083333 84.2916667 72.1583333 84.2916667 70.9083333 83.375 70.325 81.125 69.4916667 77.9583333 68.325 75.875 66.575 75.875 63.825 75.875 60.575 78.625 58.075 83.125 58.075 84.7953275 57.9867648 86.4601488 58.3312106 87.9583333 59.075L86.9583333 62.4916667C85.7090569 61.8944617 84.3430009 61.5814072 82.9583333 61.575 81.125 61.575 80.2083333 62.4916667 80.2083333 63.4083333 80.2083333 64.6583333 81.2916667 65.1583333 83.7083333 66.075 87.0416667 67.325 88.625 69.075 88.625 71.7416667 88.625 74.9083333 86.2083333 77.6583333 80.9583333 77.6583333 79.0914278 77.6491138 77.2468333 77.2518165 75.5416667 76.4916667L76.4583333 73.075zM43.7083333 46.2416667C43.7322455 45.9901633 43.955165 45.8054353 44.2067333 45.8286546 44.4583015 45.8518738 44.6436429 46.0742835 44.6211168 46.3259148 44.5985906 46.5775461 44.3766924 46.7634995 44.125 46.7416667 43.8736269 46.7153343 43.6889044 46.4936674 43.7083333 46.2416667zM47.9583333 46.575C47.6614502 46.6706793 47.3532284 46.7267196 47.0416667 46.7416667 46.6018029 46.788318 46.1614355 46.6582015 45.8175635 46.3799777 45.4736914 46.101754 45.2545227 45.6982458 45.2083333 45.2583333L45.2083333 45C45.170489 43.9904568 45.9495199 43.1372325 46.9583333 43.0833333L47.2083333 43.0833333C47.52324 43.0570798 47.8394886 43.1145795 48.125 43.25L47.9583333 43.9166667C47.7476716 43.8222514 47.5219754 43.7658274 47.2916667 43.75 46.6473345 43.75 46.125 44.2723345 46.125 44.9166667 46.125 45.5609989 46.6473345 46.0833333 47.2916667 46.0833333 47.5172417 46.1010983 47.7440719 46.0727445 47.9583333 46L47.9583333 46.575z"/>
    <path fill="#FFF" fill-rule="nonzero" d="M51.7916667,44.825 C51.9366232,45.7339643 51.3172922,46.5883427 50.4083333,46.7333333 L50,46.7333333 C49.0795254,46.7333333 48.3333333,45.9871412 48.3333333,45.0666667 L48.3333333,44.9 C48.2891249,44.4601815 48.4214473,44.0208155 48.7011901,43.6785603 C48.9809329,43.3363051 49.3851804,43.1191974 49.825,43.075 L50.0833333,43.075 C51.0038079,43.075 51.75,43.8211921 51.75,44.7416667 C51.7456131,44.7753393 51.7620964,44.808306 51.7916667,44.825 Z M49.125,44.9083333 C49.125,45.575 49.4583333,46.075 49.9583333,46.075 C50.4583333,46.075 50.7916667,45.575 50.7916667,44.825 C50.7916667,44.075 50.4583333,43.6583333 49.9583333,43.6583333 C49.4583333,43.6583333 49.1666667,44.2416667 49.125,44.9083333 Z"/>
    <path fill="#FFF" d="M55.4583333,45.325 L55.4583333,43.825 C55.3580155,44.307721 55.2186688,44.7814998 55.0416667,45.2416667 L54.625,46.6583333 L53.9583333,46.6583333 L53.5416667,45.2416667 C53.4583333,44.825 53.2916667,44.325 53.2083333,43.825 C53.2221372,44.3264449 53.1942636,44.82817 53.125,45.325 L53.0416667,46.6583333 L52.2916667,46.6583333 L52.5416667,43.075 L53.625,43.075 L53.9583333,44.2416667 C54.0416667,44.6583333 54.2083333,45.075 54.2916667,45.4916667 C54.375,45.075 54.5416667,44.575 54.625,44.2416667 L54.9583333,43.075 L56.0416667,43.075 L56.2083333,46.6583333 L55.4583333,46.6583333 L55.4583333,45.325 Z"/>
  </g>
</svg>
