<svg id="Layer_1" data-name="Layer 1" xmlns="http://www.w3.org/2000/svg" viewBox="0 0 128.58 128.58"><defs><style>.cls-1{fill:#473f34;}.cls-2{fill:#ef5b88;}.cls-3,.cls-4{fill:#fff;}.cls-4{font-size:12px;font-family:Roboto-Italic, Roboto;font-style:italic;}</style></defs><title>KSP-----</title><polygon class="cls-1" points="128.58 128.58 0 128.58 0 0 128.58 0 128.58 128.58 128.58 128.58"/><path class="cls-2" d="M75.68,51.43c0,9-5.38,14.37-13.39,14.37S49.46,59.68,49.46,51.87c0-8.18,5.26-14.29,13.27-14.29,8.38,0,13,6.27,13,13.84Z" transform="translate(2.6 3.6)"/><path class="cls-3" d="M7.74,5.47h6.11V17.53h.08c.61-1.05,1.25-2,1.9-3L22,5.47h7.61l-9,11.61L30,32.75H22.87L16.15,21l-2.31,2.87v8.9H7.74V5.47Z" transform="translate(2.6 3.6)"/><polygon class="cls-3" points="41.37 9.08 41.37 36.35 35.22 36.35 35.22 9.08 41.37 9.08 41.37 9.08"/><path class="cls-3" d="M44.12,5.88a54.47,54.47,0,0,1,8.29-.61c5.22,0,8.62,1,11.21,2.92,2.83,2.1,4.61,5.46,4.61,10.28,0,5.22-1.9,8.82-4.49,11C60.87,31.9,56.46,33,51.12,33a52.48,52.48,0,0,1-7-.41V5.88ZM50.27,28.1a11.43,11.43,0,0,0,2.14.12c5.62,0,9.31-3,9.31-9.55C61.72,13,58.4,10,53.06,10a13.12,13.12,0,0,0-2.79.24V28.1Z" transform="translate(2.6 3.6)"/><path class="cls-3" d="M72.48,26.4a15.6,15.6,0,0,0,6.84,1.7c2.83,0,4.33-1.17,4.33-3s-1.29-2.67-4.57-3.8c-4.53-1.62-7.53-4.13-7.53-8.09,0-4.66,3.93-8.18,10.32-8.18a16,16,0,0,1,7,1.38l-1.38,4.94a12.74,12.74,0,0,0-5.66-1.29c-2.67,0-4,1.25-4,2.63,0,1.74,1.5,2.51,5.06,3.85,4.81,1.78,7,4.29,7,8.13,0,4.57-3.48,8.46-11,8.46a17.74,17.74,0,0,1-7.73-1.7l1.26-5.06Z" transform="translate(2.6 3.6)"/><path class="cls-3" d="M8.06,59a15.59,15.59,0,0,0,6.84,1.7c2.83,0,4.33-1.17,4.33-3s-1.29-2.67-4.57-3.8c-4.53-1.62-7.52-4.13-7.52-8.09,0-4.66,3.93-8.17,10.32-8.17a15.93,15.93,0,0,1,7,1.38L23,44a12.73,12.73,0,0,0-5.67-1.3c-2.67,0-4,1.26-4,2.63,0,1.74,1.5,2.51,5.06,3.84,4.82,1.78,7,4.29,7,8.13,0,4.58-3.48,8.46-11,8.46a17.78,17.78,0,0,1-7.73-1.7L8.06,59Z" transform="translate(2.6 3.6)"/><polygon class="cls-3" points="37.61 46.85 30.24 46.85 30.24 41.68 51.21 41.68 51.21 46.85 43.76 46.85 43.76 68.95 37.61 68.95 37.61 46.85 37.61 46.85"/><path class="cls-3" d="M79.73,38.44a50.49,50.49,0,0,1,8.34-.57c3.8,0,6.51.73,8.34,2.19a7.85,7.85,0,0,1,2.92,6.31,8.5,8.5,0,0,1-2.51,6.47c-2.1,1.94-5.22,2.87-8.86,2.87a10.44,10.44,0,0,1-2.1-.16v9.79H79.73V38.44Zm6.11,12.38A9.39,9.39,0,0,0,87.9,51c3.28,0,5.3-1.66,5.3-4.41,0-2.51-1.74-4-4.86-4a10.94,10.94,0,0,0-2.51.2v8.05Z" transform="translate(2.6 3.6)"/><path class="cls-3" d="M8.53,71.68a50.62,50.62,0,0,1,8.34-.57c3.8,0,6.51.73,8.33,2.18a7.85,7.85,0,0,1,2.92,6.31,8.5,8.5,0,0,1-2.51,6.47C23.51,88,20.39,89,16.75,89a10.62,10.62,0,0,1-2.1-.16v9.8H8.53V71.68Zm6.11,12.38a9.24,9.24,0,0,0,2.06.16c3.28,0,5.3-1.66,5.3-4.41,0-2.51-1.74-4-4.85-4a11.12,11.12,0,0,0-2.51.2v8.05Z" transform="translate(2.6 3.6)"/><path class="cls-3" d="M32,71.68a53.93,53.93,0,0,1,8.22-.57c4,0,6.88.61,8.82,2.15A6.92,6.92,0,0,1,51.63,79a7.22,7.22,0,0,1-4.82,6.68v.12c1.9.77,3,2.55,3.64,5.06.85,3.11,1.66,6.68,2.19,7.73H46.33a36.86,36.86,0,0,1-1.86-6.36c-.77-3.44-1.95-4.33-4.49-4.37H38.16V98.6H32V71.68Zm6.11,11.74h2.43c3.08,0,4.9-1.54,4.9-3.92s-1.7-3.76-4.53-3.76a12.39,12.39,0,0,0-2.79.2v7.49Z" transform="translate(2.6 3.6)"/><polygon class="cls-3" points="74.87 90.66 64.83 90.66 64.83 97.14 76.04 97.14 76.04 102.2 58.68 102.2 58.68 74.92 75.47 74.92 75.47 79.98 64.83 79.98 64.83 85.65 74.87 85.65 74.87 90.66 74.87 90.66"/><path class="cls-3" d="M77.85,92.24a15.6,15.6,0,0,0,6.84,1.7c2.83,0,4.33-1.17,4.33-3s-1.3-2.67-4.57-3.8c-4.53-1.62-7.53-4.13-7.53-8.1,0-4.65,3.92-8.17,10.32-8.17a15.92,15.92,0,0,1,7,1.38l-1.37,4.94a12.76,12.76,0,0,0-5.67-1.3c-2.67,0-4,1.26-4,2.63,0,1.74,1.5,2.51,5.06,3.84,4.82,1.78,7,4.29,7,8.14,0,4.57-3.48,8.46-11,8.46a17.8,17.8,0,0,1-7.73-1.7l1.26-5.06Z" transform="translate(2.6 3.6)"/><path class="cls-3" d="M99.7,92.24a15.61,15.61,0,0,0,6.84,1.7c2.83,0,4.33-1.17,4.33-3s-1.29-2.67-4.57-3.8c-4.53-1.62-7.53-4.13-7.53-8.1,0-4.65,3.93-8.17,10.32-8.17a16,16,0,0,1,7,1.38l-1.38,4.94a12.78,12.78,0,0,0-5.67-1.3c-2.67,0-4,1.26-4,2.63,0,1.74,1.5,2.51,5.06,3.84,4.82,1.78,7,4.29,7,8.14,0,4.57-3.48,8.46-11,8.46a17.81,17.81,0,0,1-7.73-1.7l1.26-5.06Z" transform="translate(2.6 3.6)"/><path class="cls-3" d="M53,53.94a.68.68,0,1,1,.67.7.66.66,0,0,1-.67-.7Z" transform="translate(2.6 3.6)"/><path class="cls-3" d="M59,54.42a3.4,3.4,0,0,1-1.31.22A2.44,2.44,0,0,1,55,52.07a2.61,2.61,0,0,1,2.8-2.71,2.91,2.91,0,0,1,1.26.23l-.24.91a2.43,2.43,0,0,0-1-.19,1.68,1.68,0,0,0,0,3.37,2.76,2.76,0,0,0,1-.17l.17.91Z" transform="translate(2.6 3.6)"/><path class="cls-3" d="M64.46,51.95a2.44,2.44,0,0,1-2.52,2.7A2.4,2.4,0,0,1,59.53,52,2.48,2.48,0,0,1,62,49.35a2.39,2.39,0,0,1,2.43,2.6Zm-3.7.06c0,1,.47,1.72,1.25,1.72S63.24,53,63.24,52,62.8,50.27,62,50.27,60.76,51,60.76,52Z" transform="translate(2.6 3.6)"/><path class="cls-3" d="M69.74,52.6c0-.62,0-1.36,0-2.11h0c-.17.65-.38,1.38-.58,2l-.62,2h-.91l-.55-2c-.17-.61-.33-1.34-.46-2h0c0,.69-.05,1.48-.08,2.12l-.1,1.95H65.3l.33-5.12h1.54l.5,1.71c.17.59.32,1.23.43,1.83h0c.14-.59.31-1.27.49-1.84l.54-1.7h1.52L71,54.56H69.83l-.08-2Z" transform="translate(2.6 3.6)"/><text class="cls-4" transform="translate(4.54 118.69)">#SimplifyingParenting</text></svg>