<?xml version="1.0" encoding="UTF-8"?>
<svg width="48px" height="51px" viewBox="0 0 48 51" version="1.1" xmlns="http://www.w3.org/2000/svg" xmlns:xlink="http://www.w3.org/1999/xlink">
    <!-- Generator: Sketch 46.2 (44496) - http://www.bohemiancoding.com/sketch -->
    <title>noun_748994_cc@3x</title>
    <desc>Created with Sketch.</desc>
    <defs></defs>
    <g id="HOME-SCRREN-V3" stroke="none" stroke-width="1" fill="none" fill-rule="evenodd">
        <g id="HOME-SCREEN-3.3" transform="translate(-621.000000, -6784.000000)" fill-rule="nonzero" fill="#50463C">
            <g id="Group-67" transform="translate(621.000000, 6784.000000)">
                <g id="noun_748994_cc">
                    <path d="M47.9893193,16.1144363 L47.9893193,42.5549028 C47.9893193,45.3965817 45.6777934,47.7002176 42.8263817,47.7002176 L38.464681,47.7002176 L38.464681,49.8471835 C38.464681,50.1529262 38.3428092,50.4461465 38.125876,50.6623393 C37.9089428,50.878532 37.6147182,50.9999879 37.3079283,50.9999879 L33.8748136,50.9999879 C33.5671054,51.0013946 33.2715158,50.88056 33.0534336,50.6642146 C32.8353514,50.4478692 32.7127514,50.1538447 32.7127547,49.8471835 L32.7127547,47.6896414 L15.287177,47.6896414 L15.287177,49.8471835 C15.287177,50.4838598 14.7692812,50.9999879 14.1304243,50.9999879 L10.6920034,50.9999879 C10.0531465,50.9999879 9.53525063,50.4838598 9.53525063,49.8471835 L9.53525063,47.6896414 L5.1629376,47.6896414 C2.31359682,47.6896429 0.00292840779,45.3892283 0,42.5496147 L0,16.1091482 C0,13.2674693 2.3115259,10.9638334 5.1629376,10.9638334 L15.7753479,10.9638334 C16.3165402,9.47341182 17.2537145,8.15743864 18.4868187,7.15640618 L14.1410367,2.78315301 C13.5021798,2.14647675 13.5021798,1.11422058 14.1410367,0.477544326 C14.7798936,-0.159131932 15.8156852,-0.159131932 16.4545421,0.477544326 L21.5113556,5.51709726 C23.1346374,5.03139612 24.8652943,5.03139612 26.488576,5.51709726 L31.5453895,0.477544326 C31.9586575,0.0656870028 32.5610086,-0.0951615918 33.1255431,0.0555886513 C33.6900777,0.206338894 34.1310293,0.645785427 34.2822959,1.20839299 C34.4335624,1.77100056 34.2721629,2.37129569 33.858895,2.78315301 L29.5237254,7.10352525 C30.7566337,8.10474035 31.6937663,9.42065487 32.2351962,10.9109524 L42.8476065,10.9109524 C44.2196718,10.913745 45.5341909,11.4607066 46.5008988,12.4310601 C47.4676068,13.4014136 48.0069853,14.7153409 47.9999317,16.0827077 L47.9893193,16.1144363 Z M42.1524936,17.1297502 C42.1524936,17.0385884 42.1161557,16.9511603 42.0514738,16.8866991 C41.9867918,16.822238 41.8990643,16.7860241 41.8075903,16.7860241 L6.18172899,16.7860241 C5.99124413,16.7860241 5.83682565,16.9399155 5.83682565,17.1297502 L5.83682565,41.5607413 C5.83682565,41.6519031 5.87316358,41.7393312 5.9378455,41.8037923 C6.00252742,41.8682535 6.09025493,41.9044674 6.18172899,41.9044674 L41.8182027,41.9044674 C41.9096767,41.9044674 41.9974043,41.8682535 42.0620862,41.8037923 C42.1267681,41.7393312 42.163106,41.6519031 42.163106,41.5607413 L42.1524936,17.1297502 Z" id="Shape"></path>
                </g>
            </g>
        </g>
    </g>
</svg>