<svg id="Layer_1" data-name="Layer 1" xmlns="http://www.w3.org/2000/svg" viewBox="0 0 120 107.67"><defs><style>.cls-1{fill:#483f35;}.cls-2{fill:#f05b89;}.cls-3{fill:#fff;}</style></defs><title>KSP-Logo</title><rect class="cls-1" width="120" height="107.67"/><path class="cls-2" d="M71.55,53.39c0,7.5-4.5,12.1-11.2,12.1s-10.9-5.2-10.9-11.7c0-6.9,4.4-12,11.1-12C67.65,41.79,71.55,47.09,71.55,53.39Z"/><path class="cls-3" d="M14.45,14.79h5.1v10.1h.1a21.28,21.28,0,0,1,1.6-2.5l5.2-7.6h6.4l-7.6,9.7,8,13.2h-6l-5.7-9.9-1.9,2.4v7.5h-5.1V14.79Z"/><polygon class="cls-3" points="40.55 14.79 40.55 37.69 35.35 37.69 35.35 14.79 40.55 14.79"/><path class="cls-3" d="M45.05,15.19a54.92,54.92,0,0,1,7-.5c4.4,0,7.2.8,9.4,2.4,2.4,1.8,3.9,4.6,3.9,8.6,0,4.4-1.6,7.4-3.8,9.3-2.4,2-6.1,3-10.6,3a58.28,58.28,0,0,1-5.9-.3Zm5.1,18.6a10.87,10.87,0,0,0,1.8.1c4.7,0,7.8-2.5,7.8-8,0-4.8-2.8-7.3-7.3-7.3a8.58,8.58,0,0,0-2.3.2Z"/><path class="cls-3" d="M68.85,32.39a12.63,12.63,0,0,0,5.7,1.4c2.4,0,3.6-1,3.6-2.5s-1.1-2.2-3.8-3.2c-3.8-1.4-6.3-3.5-6.3-6.8,0-3.9,3.3-6.9,8.7-6.9a11.66,11.66,0,0,1,5.8,1.2l-1.1,4.2a11.25,11.25,0,0,0-4.8-1.1c-2.2,0-3.3,1-3.3,2.2,0,1.5,1.3,2.1,4.2,3.2,4,1.5,5.9,3.6,5.9,6.8,0,3.8-2.9,7.1-9.2,7.1a16.16,16.16,0,0,1-6.5-1.4Z"/><path class="cls-3" d="M14.75,59.79a12.63,12.63,0,0,0,5.7,1.4c2.4,0,3.6-1,3.6-2.5s-1.1-2.2-3.8-3.2c-3.8-1.4-6.3-3.5-6.3-6.8,0-3.9,3.3-6.9,8.7-6.9a12.27,12.27,0,0,1,5.9,1.2l-1.2,4.2a11.25,11.25,0,0,0-4.8-1.1c-2.2,0-3.3,1-3.3,2.2,0,1.5,1.3,2.1,4.2,3.2,4,1.5,5.9,3.6,5.9,6.8,0,3.8-2.9,7.1-9.2,7.1a16.16,16.16,0,0,1-6.5-1.4Z"/><polygon class="cls-3" points="37.35 46.49 31.15 46.49 31.15 42.19 48.75 42.19 48.75 46.49 42.55 46.49 42.55 65.09 37.35 65.09 37.35 46.49"/><path class="cls-3" d="M75,42.49a54.92,54.92,0,0,1,7-.5c3.2,0,5.5.6,7,1.8a6.36,6.36,0,0,1,2.4,5.3,7.23,7.23,0,0,1-2.1,5.4,10.5,10.5,0,0,1-7.4,2.4,10.87,10.87,0,0,1-1.8-.1V65H75Zm5.1,10.4a4.88,4.88,0,0,0,1.7.1c2.8,0,4.4-1.4,4.4-3.7,0-2.1-1.5-3.4-4.1-3.4a7.49,7.49,0,0,0-2.1.2Z"/><path class="cls-3" d="M15.15,70.39a41.22,41.22,0,0,1,7-.5c3.2,0,5.5.6,7,1.8a6.74,6.74,0,0,1,2.5,5.3,7.23,7.23,0,0,1-2.1,5.4,11,11,0,0,1-7.4,2.4,10.87,10.87,0,0,1-1.8-.1v8.2h-5.1V70.39Zm5.1,10.4a4.88,4.88,0,0,0,1.7.1c2.8,0,4.4-1.4,4.4-3.7,0-2.1-1.5-3.4-4.1-3.4a7.49,7.49,0,0,0-2.1.2Z"/><path class="cls-3" d="M34.85,70.39a53.37,53.37,0,0,1,6.9-.5c3.4,0,5.8.5,7.4,1.8a6.16,6.16,0,0,1-1.9,10.4v.1c1.6.7,2.5,2.1,3.1,4.2.7,2.6,1.4,5.6,1.8,6.5H47a32.38,32.38,0,0,1-1.6-5.3c-.7-2.9-1.6-3.6-3.8-3.7H40v9h-5.1Zm5.1,9.9h2c2.6,0,4.1-1.3,4.1-3.3s-1.3-3.2-3.7-3.2a8.58,8.58,0,0,0-2.3.2Z"/><polygon class="cls-3" points="68.65 83.29 60.25 83.29 60.25 88.79 69.65 88.79 69.65 92.99 55.05 92.99 55.05 70.09 69.15 70.09 69.15 74.39 60.25 74.39 60.25 79.09 68.65 79.09 68.65 83.29"/><path class="cls-3" d="M73.35,87.69a12.63,12.63,0,0,0,5.7,1.4c2.4,0,3.6-1,3.6-2.5s-1.1-2.2-3.8-3.2c-3.8-1.4-6.3-3.5-6.3-6.8,0-3.9,3.3-6.9,8.7-6.9a11.66,11.66,0,0,1,5.8,1.2L86,75.09a11.25,11.25,0,0,0-4.8-1.1c-2.2,0-3.3,1.1-3.3,2.2,0,1.5,1.3,2.1,4.2,3.2,4,1.5,5.9,3.6,5.9,6.8,0,3.8-2.9,7.1-9.2,7.1a16.16,16.16,0,0,1-6.5-1.4Z"/><path class="cls-3" d="M91.75,87.69a12.73,12.73,0,0,0,5.8,1.4c2.4,0,3.6-1,3.6-2.5s-1.1-2.2-3.8-3.2c-3.8-1.4-6.3-3.5-6.3-6.8,0-3.9,3.3-6.9,8.7-6.9a11.66,11.66,0,0,1,5.8,1.2l-1.2,4.1a11.25,11.25,0,0,0-4.8-1.1c-2.2,0-3.3,1.1-3.3,2.2,0,1.5,1.3,2.1,4.2,3.2,4,1.5,5.9,3.6,5.9,6.8,0,3.8-2.9,7.1-9.2,7.1a16.16,16.16,0,0,1-6.5-1.4Z"/><path class="cls-3" d="M52.45,55.49a.55.55,0,1,1,.5.6A.56.56,0,0,1,52.45,55.49Z"/><path class="cls-3" d="M57.55,55.89a4.25,4.25,0,0,1-1.1.2,2,2,0,0,1-2.2-1.78V54a2.22,2.22,0,0,1,2.1-2.3h.3a2.15,2.15,0,0,1,1.1.2l-.2.8a2.35,2.35,0,0,0-.8-.2,1.4,1.4,0,0,0,0,2.8,2,2,0,0,0,.8-.1Z"/><path class="cls-3" d="M62.15,53.79a2,2,0,0,1-1.66,2.29H60a2,2,0,0,1-2-2v-.2a2,2,0,0,1,1.79-2.19h.31a2,2,0,0,1,2,2h0A.1.1,0,0,0,62.15,53.79Zm-3.2.1c0,.8.4,1.4,1,1.4s1-.6,1-1.5-.4-1.4-1-1.4S59,53.09,58.95,53.89Z"/><path class="cls-3" d="M66.55,54.39v-1.8h0a10.93,10.93,0,0,1-.5,1.7l-.5,1.7h-.8l-.5-1.7c-.1-.5-.3-1.1-.4-1.7h0a10.87,10.87,0,0,1-.1,1.8l-.1,1.6h-.9l.3-4.3h1.3l.4,1.4c.1.5.3,1,.4,1.5h0c.1-.5.3-1.1.4-1.5l.4-1.4h1.3l.2,4.3h-.9Z"/></svg>