<svg id="Layer_1" data-name="Layer 1" xmlns="http://www.w3.org/2000/svg" xmlns:xlink="http://www.w3.org/1999/xlink" width="90" height="69" viewBox="0 0 90 69">
  <defs>
    <style>
      .cls-1, .cls-2, .cls-3, .cls-7 {
        fill: none;
      }

      .cls-2, .cls-6 {
        clip-path: url(#clip-path);
      }

      .cls-3 {
        clip-path: url(#clip-path-2);
      }

      .cls-4 {
        clip-path: url(#clip-path-10);
      }

      .cls-5 {
        fill: #303030;
      }

      .cls-7 {
        stroke: #303030;
        stroke-miterlimit: 10;
        stroke-width: 1.8px;
      }

      .cls-8 {
        clip-path: url(#clip-path-12);
      }

      .cls-9 {
        clip-path: url(#clip-path-13);
      }

      .cls-10 {
        clip-path: url(#clip-path-14);
      }

      .cls-11 {
        clip-path: url(#clip-path-15);
      }

      .cls-12 {
        clip-path: url(#clip-path-16);
      }

      .cls-13 {
        clip-path: url(#clip-path-17);
      }

      .cls-14 {
        clip-path: url(#clip-path-18);
      }

      .cls-15 {
        clip-path: url(#clip-path-19);
      }
    </style>
    <clipPath id="clip-path">
      <rect class="cls-1" width="90" height="69"/>
    </clipPath>
    <clipPath id="clip-path-2">
      <rect class="cls-1" width="90" height="69"/>
    </clipPath>
    <clipPath id="clip-path-10">
      <path class="cls-2" d="M81.86,3H9A6,6,0,0,0,3,9V59.51a6,6,0,0,0,6,6h72.9a6,6,0,0,0,6-6V9a6,6,0,0,0-6-6ZM85,59.51a3.14,3.14,0,0,1-3.13,3.15H9a3.14,3.14,0,0,1-3.13-3.15V9A3.14,3.14,0,0,1,9,5.84h72.9A3.14,3.14,0,0,1,85,9V59.51Z"/>
    </clipPath>
    <clipPath id="clip-path-12">
      <path class="cls-2" d="M67,25.32h1.49c.82,0,1.49-1,1.49-2.23s-.67-2.23-1.49-2.23H67c-.82,0-1.49,1-1.49,2.23s.67,2.23,1.49,2.23Z"/>
    </clipPath>
    <clipPath id="clip-path-13">
      <path class="cls-2" d="M67,34.25h1.49c.82,0,1.49-1,1.49-2.23s-.67-2.23-1.49-2.23H67c-.82,0-1.49,1-1.49,2.23s.67,2.23,1.49,2.23Z"/>
    </clipPath>
    <clipPath id="clip-path-14">
      <path class="cls-2" d="M67,43.18h1.49c.82,0,1.49-1,1.49-2.23s-.67-2.23-1.49-2.23H67c-.82,0-1.49,1-1.49,2.23s.67,2.23,1.49,2.23Z"/>
    </clipPath>
    <clipPath id="clip-path-15">
      <path class="cls-3" d="M50.62,47.64H49.13c-.82,0-1.49,1-1.49,2.23s.67,2.23,1.49,2.23h1.49c.82,0,1.49-1,1.49-2.23s-.67-2.23-1.49-2.23Z"/>
    </clipPath>
    <clipPath id="clip-path-16">
      <path class="cls-2" d="M64,47.64H62.52c-.82,0-1.49,1-1.49,2.23s.67,2.23,1.49,2.23H64c.82,0,1.49-1,1.49-2.23s-.67-2.23-1.49-2.23Z"/>
    </clipPath>
    <clipPath id="clip-path-17">
      <path class="cls-2" d="M19.37,47.64H17.88c-.82,0-1.49,1-1.49,2.23s.67,2.23,1.49,2.23h1.49c.82,0,1.49-1,1.49-2.23s-.67-2.23-1.49-2.23Z"/>
    </clipPath>
    <clipPath id="clip-path-18">
      <path class="cls-2" d="M32.76,47.64H31.27c-.82,0-1.49,1-1.49,2.23s.67,2.23,1.49,2.23h1.49c.82,0,1.49-1,1.49-2.23s-.67-2.23-1.49-2.23Z"/>
    </clipPath>
    <clipPath id="clip-path-19">
      <path class="cls-2" d="M41.69,47.64H40.2c-.82,0-1.49,1-1.49,2.23s.67,2.23,1.49,2.23h1.49c.82,0,1.49-1,1.49-2.23s-.67-2.23-1.49-2.23Z"/>
    </clipPath>
  </defs>
  <title>ksp-code</title>
  <g>
    <g class="cls-4">
      <rect class="cls-5" x="-12" y="-12" width="114.82" height="92.5"/>
    </g>
    <g class="cls-6">
      <path class="cls-7" d="M81.86,3H9A6,6,0,0,0,3,9V59.51a6,6,0,0,0,6,6h72.9a6,6,0,0,0,6-6V9a6,6,0,0,0-6-6ZM85,59.51a3.14,3.14,0,0,1-3.13,3.15H9a3.14,3.14,0,0,1-3.13-3.15V9A3.14,3.14,0,0,1,9,5.84h72.9A3.14,3.14,0,0,1,85,9V59.51Z"/>
    </g>
    <g class="cls-8">
      <rect class="cls-5" x="50.5" y="5.86" width="34.46" height="34.46"/>
    </g>
    <g class="cls-9">
      <rect class="cls-5" x="50.5" y="14.78" width="34.46" height="34.46"/>
    </g>
    <g class="cls-10">
      <rect class="cls-5" x="50.5" y="23.71" width="34.46" height="34.46"/>
    </g>
    <g class="cls-11">
      <rect class="cls-5" x="32.64" y="32.64" width="34.46" height="34.46"/>
    </g>
    <g class="cls-12">
      <rect class="cls-5" x="46.03" y="32.64" width="34.46" height="34.46"/>
    </g>
    <g class="cls-13">
      <rect class="cls-5" x="1.39" y="32.64" width="34.46" height="34.46"/>
    </g>
    <g class="cls-14">
      <rect class="cls-5" x="14.78" y="32.64" width="34.46" height="34.46"/>
    </g>
    <g class="cls-15">
      <rect class="cls-5" x="23.71" y="32.64" width="34.46" height="34.46"/>
    </g>
    <path class="cls-5" d="M20.71,39V33.91l2.18-2.28L28.2,39h3.72L25,29.52,31.51,22H27.87l-7.15,8.11V22H17.4V39Zm24.7-15.26a12.35,12.35,0,0,0-2.64-1.33,9.41,9.41,0,0,0-3.31-.56,8.19,8.19,0,0,0-2.42.35,6,6,0,0,0-2,1,4.65,4.65,0,0,0-1.33,1.68,5.29,5.29,0,0,0-.48,2.3,4.32,4.32,0,0,0,.3,1.69,3.5,3.5,0,0,0,.9,1.25,5.58,5.58,0,0,0,1.5.94,15.49,15.49,0,0,0,2.12.73l1.82.53a8.52,8.52,0,0,1,1.39.53,2.65,2.65,0,0,1,.89.67,1.44,1.44,0,0,1,.31.94q0,1.75-2.74,1.75A7.69,7.69,0,0,1,37.83,36a10.32,10.32,0,0,1-1.7-.59,11.82,11.82,0,0,1-1.33-.7,4.61,4.61,0,0,1-.78-.56L32.55,37a11.7,11.7,0,0,0,3.36,1.63,12.83,12.83,0,0,0,3.79.58,10.13,10.13,0,0,0,2.39-.28,6,6,0,0,0,2-.88,4.34,4.34,0,0,0,1.39-1.57A4.93,4.93,0,0,0,46,34.13a4.58,4.58,0,0,0-.38-2,4,4,0,0,0-1.09-1.38,6.15,6.15,0,0,0-1.73-1q-1-.38-2.27-.72-1-.24-1.69-.46a6.13,6.13,0,0,1-1.21-.48,2.17,2.17,0,0,1-.73-.61,1.45,1.45,0,0,1-.25-.88,1.67,1.67,0,0,1,.67-1.42,3.39,3.39,0,0,1,2-.5,6,6,0,0,1,1.51.19,9.37,9.37,0,0,1,1.38.47,7.48,7.48,0,0,1,1.08.56,4.12,4.12,0,0,1,.61.46l1.46-2.69ZM52.15,39V33.29h4a4.86,4.86,0,0,0,2.16-.48A5.31,5.31,0,0,0,60,31.54a5.83,5.83,0,0,0,1.08-1.81,5.92,5.92,0,0,0,.38-2.1,5.49,5.49,0,0,0-.41-2.05A6.13,6.13,0,0,0,60,23.75a5.63,5.63,0,0,0-1.72-1.3A4.84,4.84,0,0,0,56.07,22H48.84V39Zm0-14.14h3.7a2.15,2.15,0,0,1,.85.18,2,2,0,0,1,.73.54,2.84,2.84,0,0,1,.5.88,3.32,3.32,0,0,1,.19,1.16,3.08,3.08,0,0,1-.61,2,1.9,1.9,0,0,1-1.52.74H52.15V24.86Z"/>
  </g>
</svg>
