<?xml version="1.0" encoding="UTF-8" standalone="no"?>
<svg
   xmlns:dc="http://purl.org/dc/elements/1.1/"
   xmlns:cc="http://creativecommons.org/ns#"
   xmlns:rdf="http://www.w3.org/1999/02/22-rdf-syntax-ns#"
   xmlns:svg="http://www.w3.org/2000/svg"
   xmlns="http://www.w3.org/2000/svg"
   viewBox="0 0 591.73749 418.11249"
   height="418.11249"
   width="591.73749"
   xml:space="preserve"
   version="1.1"
   id="svg2"><metadata
     id="metadata8"><rdf:RDF><cc:Work
         rdf:about=""><dc:format>image/svg+xml</dc:format><dc:type
           rdf:resource="http://purl.org/dc/dcmitype/StillImage" /></cc:Work></rdf:RDF></metadata><defs
     id="defs6"><clipPath
       id="clipPath18"
       clipPathUnits="userSpaceOnUse"><path
         id="path20"
         d="M 0,3344.88 0,0 l 4733.86,0 0,3344.88 -4733.86,0 z" /></clipPath></defs><g
     transform="matrix(1.25,0,0,-1.25,0,418.1125)"
     id="g10"><g
       transform="scale(0.1,0.1)"
       id="g12"><g
         id="g14"><g
           clip-path="url(#clipPath18)"
           id="g16"><path
             id="path22"
             style="fill:#231f20;fill-opacity:1;fill-rule:nonzero;stroke:none"
             d="M 0,0 5,0 5,0 0,0 Z" /><path
             id="path24"
             style="fill:#231f20;fill-opacity:1;fill-rule:nonzero;stroke:none"
             d="m 4728.86,0 5,0 0,0 -5,0 z" /><path
             id="path26"
             style="fill:#41382f;fill-opacity:1;fill-rule:nonzero;stroke:none"
             d="m 0,0 4790.55,0 0,3401.58 L 0,3401.58 0,0 Z" /><path
             id="path28"
             style="fill:#41382f;fill-opacity:1;fill-rule:nonzero;stroke:none"
             d="m 1162.2,571.891 2409.45,0 0,2409.44 -2409.45,0 0,-2409.44 z" /><path
             id="path30"
             style="fill:#f03788;fill-opacity:1;fill-rule:nonzero;stroke:none"
             d="m 2594.52,1786.66 c 0,-149.15 -89.39,-238.54 -222.42,-238.54 -133.76,0 -213.04,101.49 -213.04,231.16 0,135.75 87.39,237.21 220.41,237.21 139.09,0 215.05,-104.13 215.05,-229.83" /><path
             id="path32"
             style="fill:#ffffff;fill-opacity:1;fill-rule:nonzero;stroke:none"
             d="m 1466.26,2549.74 101.5,0 0,-200.26 1.31,0 c 10.1,17.48 20.83,33.6 31.6,49.75 l 102.15,150.51 126.34,0 -149.9,-192.84 157.27,-260.1 -118.89,0 -111.6,195.57 -38.28,-47.72 0,-147.85 -101.5,0 0,452.94" /><path
             id="path34"
             style="fill:#ffffff;fill-opacity:1;fill-rule:nonzero;stroke:none"
             d="m 1879.51,2096.8 102.168,0 0,452.941 -102.168,0 0,-452.941 z" /><path
             id="path36"
             style="fill:#ffffff;fill-opacity:1;fill-rule:nonzero;stroke:none"
             d="m 2070.34,2543.04 c 37.62,6.03 86.7,10.07 137.73,10.07 86.71,0 143.18,-16.12 186.17,-48.41 47.02,-34.93 76.6,-90.72 76.6,-170.67 0,-86.66 -31.6,-146.5 -74.59,-183.48 -47.7,-39.62 -120.94,-58.48 -209.66,-58.48 -53.07,0 -91.39,3.38 -116.25,6.77 l 0,444.2 z m 102.14,-368.95 c 8.75,-2.04 23.53,-2.04 35.59,-2.04 93.39,-0.62 154.61,50.43 154.61,158.62 0,94.05 -55.14,143.79 -143.81,143.79 -22.18,0 -37.64,-1.98 -46.39,-4.01 l 0,-296.36" /><path
             id="path38"
             style="fill:#ffffff;fill-opacity:1;fill-rule:nonzero;stroke:none"
             d="m 2541.37,2202.31 c 26.86,-14.09 69.87,-28.22 113.57,-28.22 47.03,0 71.88,19.48 71.88,49.07 0,28.22 -21.5,44.35 -75.93,63.14 -75.27,26.88 -124.98,68.56 -124.98,134.41 0,77.31 65.19,135.78 171.37,135.78 51.75,0 88.7,-10.1 115.59,-22.88 l -22.9,-81.98 c -17.47,8.74 -50.36,21.48 -94.02,21.48 -44.39,0 -65.89,-20.81 -65.89,-43.66 0,-28.89 24.88,-41.68 83.99,-63.86 79.95,-29.52 116.96,-71.21 116.96,-135.05 0,-75.94 -57.81,-140.44 -182.14,-140.44 -51.73,0 -102.82,14.07 -128.34,28.24 l 20.84,83.97" /><path
             id="path40"
             style="fill:#ffffff;fill-opacity:1;fill-rule:nonzero;stroke:none"
             d="m 1471.68,1661.02 c 26.87,-14.1 69.86,-28.23 113.57,-28.23 47.04,0 71.88,19.49 71.88,49.05 0,28.22 -21.49,44.36 -75.94,63.18 -75.22,26.87 -124.95,68.55 -124.95,134.4 0,77.3 65.19,135.74 171.34,135.74 51.73,0 88.69,-10.04 115.59,-22.85 l -22.85,-81.99 c -17.45,8.76 -50.4,21.54 -94.11,21.54 -44.36,0 -65.81,-20.84 -65.81,-43.71 0,-28.89 24.85,-41.64 83.98,-63.82 79.97,-29.54 116.92,-71.22 116.92,-135.08 0,-75.98 -57.78,-140.46 -182.11,-140.46 -51.74,0 -102.82,14.1 -128.37,28.23 l 20.86,84" /><path
             id="path42"
             style="fill:#ffffff;fill-opacity:1;fill-rule:nonzero;stroke:none"
             d="m 1919.19,1922.44 -122.32,0 0,85.99 348.12,0 0,-85.99 -123.66,0 0,-366.91 -102.14,0 0,366.91" /><path
             id="path44"
             style="fill:#ffffff;fill-opacity:1;fill-rule:nonzero;stroke:none"
             d="m 2661.67,2002.41 c 31.57,5.38 75.93,9.39 138.46,9.39 63.08,0 108.14,-12.1 138.41,-36.29 29.59,-22.83 48.41,-60.48 48.41,-104.84 0,-44.32 -14.13,-82.66 -41.69,-107.5 -34.95,-32.24 -86.7,-47.7 -147.2,-47.7 -13.4,0 -25.56,0.63 -34.94,2.68 l 0,-162.62 -101.45,0 0,446.88 z m 101.45,-205.65 c 8.77,-1.97 18.82,-2.67 34.29,-2.67 54.44,0 88.02,27.57 88.02,73.26 0,41.65 -28.86,66.5 -80.63,66.5 -20.14,0 -34.26,-1.33 -41.68,-3.37 l 0,-133.72" /><path
             id="path46"
             style="fill:#ffffff;fill-opacity:1;fill-rule:nonzero;stroke:none"
             d="m 1479.52,1450.36 c 31.58,5.36 75.96,9.41 138.47,9.41 63.16,0 108.12,-12.1 138.39,-36.28 29.61,-22.87 48.41,-60.5 48.41,-104.86 0,-44.35 -14.11,-82.66 -41.65,-107.48 -34.94,-32.28 -86.74,-47.71 -147.2,-47.71 -13.41,0 -25.54,0.64 -34.92,2.65 l 0,-162.65 -101.5,0 0,446.92 z m 101.5,-205.64 c 8.75,-2 18.78,-2.7 34.28,-2.7 54.4,0 87.98,27.57 87.98,73.23 0,41.68 -28.88,66.57 -80.61,66.57 -20.14,0 -34.29,-1.38 -41.65,-3.36 l 0,-133.74" /><path
             id="path48"
             style="fill:#ffffff;fill-opacity:1;fill-rule:nonzero;stroke:none"
             d="m 1869.9,1450.36 c 32.96,5.36 81.31,9.41 136.43,9.41 67.23,0 114.26,-10.08 146.52,-35.64 27.56,-21.51 42.35,-53.74 42.35,-95.4 0,-57.11 -41,-96.75 -80.03,-110.86 l 0,-2.03 c 31.62,-12.79 49.1,-42.38 60.51,-84.02 14.17,-51.72 27.55,-110.86 36.3,-128.38 l -104.86,0 c -6.68,13.48 -18.13,49.79 -30.87,105.55 -12.8,57.1 -32.3,71.88 -74.59,72.57 l -30.25,0 0,-178.12 -101.51,0 0,446.92 z m 101.51,-194.87 40.27,0 c 51.09,0 81.32,25.51 81.32,65.17 0,41 -28.18,62.5 -75.24,62.5 -24.85,0 -38.98,-1.34 -46.35,-3.33 l 0,-124.34" /><path
             id="path50"
             style="fill:#ffffff;fill-opacity:1;fill-rule:nonzero;stroke:none"
             d="m 2537.86,1195 -166.67,0 0,-107.54 186.19,0 0,-84.02 -288.35,0 0,452.95 278.9,0 0,-83.98 -176.74,0 0,-94.1 166.67,0 0,-83.31" /><path
             id="path52"
             style="fill:#ffffff;fill-opacity:1;fill-rule:nonzero;stroke:none"
             d="m 2630.56,1108.99 c 26.85,-14.09 69.9,-28.22 113.58,-28.22 47.05,0 71.89,19.44 71.89,49.05 0,28.23 -21.52,44.36 -75.92,63.15 -75.25,26.87 -125,68.56 -125,134.45 0,77.22 65.16,135.71 171.35,135.71 51.77,0 88.73,-10.1 115.55,-22.87 l -22.82,-81.95 c -17.44,8.72 -50.39,21.52 -94.11,21.52 -44.29,0 -65.78,-20.91 -65.78,-43.73 0,-28.9 24.84,-41.66 83.96,-63.84 79.97,-29.54 116.92,-71.21 116.92,-135.09 0,-75.89 -57.76,-140.428 -182.1,-140.428 -51.74,0 -102.83,14.128 -128.36,28.228 l 20.84,84.02" /><path
             id="path54"
             style="fill:#ffffff;fill-opacity:1;fill-rule:nonzero;stroke:none"
             d="m 2993.39,1108.99 c 26.87,-14.09 69.9,-28.22 113.59,-28.22 47.03,0 71.87,19.44 71.87,49.05 0,28.23 -21.5,44.36 -75.9,63.15 -75.28,26.87 -125.01,68.56 -125.01,134.45 0,77.22 65.21,135.71 171.36,135.71 51.72,0 88.68,-10.1 115.61,-22.87 l -22.85,-81.95 c -17.48,8.72 -50.43,21.52 -94.1,21.52 -44.35,0 -65.88,-20.91 -65.88,-43.73 0,-28.9 24.9,-41.66 84.01,-63.84 79.98,-29.54 116.95,-71.21 116.95,-135.09 0,-75.89 -57.82,-140.428 -182.12,-140.428 -51.73,0 -102.83,14.128 -128.37,28.228 l 20.84,84.02" /><path
             id="path56"
             style="fill:#ffffff;fill-opacity:1;fill-rule:nonzero;stroke:none"
             d="m 2217.79,1744.89 c 0,6.95 4.67,11.74 11.36,11.74 6.56,0 11.1,-4.67 11.23,-11.74 0,-6.69 -4.55,-11.62 -11.49,-11.62 -6.43,0 -11.1,4.93 -11.1,11.62" /><path
             id="path58"
             style="fill:#ffffff;fill-opacity:1;fill-rule:nonzero;stroke:none"
             d="m 2318.14,1736.93 c -3.4,-1.64 -11.48,-3.66 -21.7,-3.66 -29.42,0 -44.57,18.44 -44.57,42.67 0,29.03 20.7,45.06 46.46,45.06 9.97,0 17.54,-1.89 20.95,-3.78 l -4.04,-15.16 c -3.79,1.65 -9.21,3.16 -16.16,3.16 -15.14,0 -27.01,-9.21 -27.01,-28.14 0,-17.05 10.1,-27.77 27.14,-27.77 5.93,0 12.24,1.14 16.16,2.78 l 2.77,-15.16" /><path
             id="path60"
             style="fill:#ffffff;fill-opacity:1;fill-rule:nonzero;stroke:none"
             d="m 2408.17,1778.09 c 0,-28.02 -16.8,-44.82 -41.79,-44.82 -25.12,0 -40.01,19.07 -40.01,43.43 0,25.5 16.41,44.55 41.4,44.55 26.13,0 40.4,-19.56 40.4,-43.16 z m -61.48,-1.01 c 0,-16.79 7.83,-28.53 20.71,-28.53 13,0 20.44,12.37 20.44,28.9 0,15.41 -7.19,28.53 -20.44,28.53 -13.13,0 -20.71,-12.37 -20.71,-28.9" /><path
             id="path62"
             style="fill:#ffffff;fill-opacity:1;fill-rule:nonzero;stroke:none"
             d="m 2495.92,1767.23 c -0.38,10.22 -0.76,22.6 -0.76,34.97 l -0.25,0 c -2.78,-10.86 -6.31,-22.98 -9.59,-32.95 l -10.35,-33.2 -15.03,0 -9.08,32.82 c -2.78,10.1 -5.56,22.22 -7.7,33.33 l -0.26,0 c -0.37,-11.5 -0.88,-24.62 -1.38,-35.22 l -1.65,-32.32 -17.79,0 5.42,85.08 25.63,0 8.33,-28.4 c 2.78,-9.84 5.3,-20.45 7.2,-30.42 l 0.5,0 c 2.28,9.84 5.17,21.08 8.08,30.55 l 8.96,28.27 25.24,0 4.55,-85.08 -18.68,0 -1.39,32.57" /><g
             transform="scale(10,10)"
             id="g64"><text
               id="text66"
               style="font-style:italic;font-variant:normal;font-size:24px;font-family:RobotoCondensed;-inkscape-font-specification:RobotoCondensed-Italic;writing-mode:lr-tb;fill:#ffffff;fill-opacity:1;fill-rule:nonzero;stroke:none"
               transform="matrix(1,0,0,-1,134.095,36.3551)"><tspan
                 id="tspan68"
                 y="0"
                 x="0 12.768 24.936001 30.384001 48.023998 59.616001 65.064003 70.512001 78 87.816002 93.264 104.64 116.232 129.14102 140.41441 147.38708 158.40309 169.78197 176.77806 182.22728 193.60619">#SimplifyingParenting</tspan></text>
</g></g></g></g></g></svg>