<?xml version="1.0" encoding="UTF-8"?>
<svg width="30px" height="32px" viewBox="0 0 30 32" version="1.1" xmlns="http://www.w3.org/2000/svg" xmlns:xlink="http://www.w3.org/1999/xlink">
    <!-- Generator: Sketch 46.2 (44496) - http://www.bohemiancoding.com/sketch -->
    <title>coffe@3x</title>
    <desc>Created with Sketch.</desc>
    <defs></defs>
    <g id="HOME-SCRREN-V3" stroke="none" stroke-width="1" fill="none" fill-rule="evenodd">
        <g id="HOME-SCREEN-3.3" transform="translate(-109.000000, -744.000000)" stroke="#E45B80" fill-rule="nonzero" stroke-width="0.2" fill="#E45B80">
            <g id="Group-82" transform="translate(100.000000, 725.000000)">
                <g id="coffe" transform="translate(10.000000, 20.000000)">
                    <path d="M17.916,1.464 C17.724,1.2 17.352,1.116 17.076,1.296 C16.8,1.488 16.728,1.86 16.908,2.136 C18.312,4.236 18.252,5.988 17.268,7.14 C16.968,7.5 16.704,7.728 16.296,7.98 C15.744,8.304 15.168,8.652 14.796,9.288 C14.184,10.344 14.28,11.628 15.072,12.912 C15.18,13.104 15.372,13.2 15.576,13.2 L15.888,13.116 C16.176,12.936 16.26,12.564 16.092,12.288 C15.696,11.652 15.336,10.728 15.828,9.888 C16.0548,9.516 16.452,9.276 16.9068,9.012 C17.3628,8.736 17.7468,8.424 18.18,7.92 C19.812,6.012 19.308,3.552 17.916,1.464 Z" id="Shape"></path>
                    <path d="M11.88,0.252 C11.7,-0.012 11.316,-0.084 11.052,0.108 C10.776,0.3 10.716,0.672 10.908,0.948 C11.508,1.812 12.12,3.156 11.976,4.308 C11.82,5.616 10.824,5.904 9.12,6.276 C8.604,6.396 8.088,6.504 7.596,6.672 C6.144,7.176 5.28,7.968 4.968,9.096 C4.596,10.38 4.836,11.928 5.556,12.948 C5.676,13.116 5.856,13.2 6.048,13.2 C6.168,13.2 6.288,13.164 6.396,13.092 C6.672,12.9 6.732,12.528 6.54,12.252 C6.036,11.544 5.856,10.356 6.12,9.42 C6.324,8.688 6.924,8.172 7.992,7.8 C8.412,7.656 8.88,7.56 9.372,7.452 C10.968,7.104 12.888,6.672 13.176,4.452 C13.392,2.568 12.24,0.756 11.88,0.252 Z" id="Shape"></path>
                    <path d="M23.964,16.812 C23.976,16.416 24,16.02 24,15.6 C24,14.94 23.46,14.4 22.8,14.4 L1.2,14.4 C0.54,14.4 0,14.94 0,15.6 C0,22.308 2.496,26.796 6.564,28.8 L6,28.8 C5.664,28.8 5.4,29.064 5.4,29.4 C5.4,29.736 5.664,30 6,30 L18,30 C18.336,30 18.6,29.736 18.6,29.4 C18.6,29.064 18.336,28.8 18,28.8 L17.436,28.8 C18.108,28.464 18.744,28.068 19.332,27.6 C27.528,27.552 28.8708,23.136 28.8708,21 C28.872,18.096 26.988,16.884 23.964,16.812 Z M12,28.8 C5.04,28.8 1.2,23.556 1.2,15.6 L22.8,15.6 C22.8,17.34 22.62,18.948 22.248,20.4 L15,20.4 C14.664,20.4 14.4,20.664 14.4,21 C14.4,21.336 14.664,21.6 15,21.6 L21.9,21.6 C21.612,22.476 21.24,23.28 20.808,24 L16.2,24 C15.864,24 15.6,24.264 15.6,24.6 C15.6,24.936 15.864,25.2 16.2,25.2 L19.992,25.2 C18.168,27.492 15.468,28.8 12,28.8 Z M20.652,26.34 C22.404,24.336 23.52,21.54 23.868,18 C27.1332,18.06 27.5292,19.476 27.5292,21 C27.528,21.936 27.228,25.776 20.652,26.34 Z" id="Shape"></path>
                    <rect id="Rectangle-path" x="1.2" y="16.8" width="21.6" height="1.2"></rect>
                </g>
            </g>
        </g>
    </g>
</svg>