<?xml version="1.0" encoding="UTF-8"?>
<svg width="180px" height="121px" viewBox="0 0 180 121" version="1.1" xmlns="http://www.w3.org/2000/svg" xmlns:xlink="http://www.w3.org/1999/xlink">
    <!-- Generator: Sketch 46.2 (44496) - http://www.bohemiancoding.com/sketch -->
    <title>Group 83@3x</title>
    <desc>Created with Sketch.</desc>
    <defs>
        <linearGradient x1="100%" y1="0%" x2="1.54854911%" y2="98.4514509%" id="linearGradient-1">
            <stop stop-color="#FF9270" offset="0%"></stop>
            <stop stop-color="#F94E62" offset="100%"></stop>
        </linearGradient>
    </defs>
    <g id="HOME-SCRREN-V3" stroke="none" stroke-width="1" fill="none" fill-rule="evenodd">
        <g id="HOME-SCREEN-3.3" transform="translate(-219.000000, -6181.000000)" fill-rule="nonzero" fill="url(#linearGradient-1)">
            <g id="Group-58" transform="translate(150.000000, 6181.000000)">
                <g id="ICO" transform="translate(69.000000, 0.000000)">
                    <g id="Group-83">
                        <g id="Group">
                            <path d="M144.019531,120.265115 C143.477425,120.265115 142.935319,119.759799 142.935319,118.749168 L142.935319,74.7867101 C142.935319,74.0287367 143.477425,73.2707633 144.019531,73.2707633 L149.440593,73.2707633 C149.982699,73.2707633 150.524805,74.0287367 150.524805,74.7867101 L150.524805,118.749168 C150.524805,119.507142 149.982699,120.265115 149.440593,120.265115 L144.019531,120.265115 Z M175.064143,77.565946 C177.846954,80.3451818 179.617834,84.1350489 179.617834,88.4302316 L179.617834,104.095015 C179.617834,113.190696 172.281331,120.517773 163.173948,120.517773 L158.620257,120.517773 C157.861308,120.517773 157.102359,119.759799 157.102359,119.001826 L157.102359,75.0393679 C157.102359,74.2813945 157.861308,73.5234211 158.620257,73.5234211 L162.415,73.5234211 C163.426931,73.5234211 164.18588,72.7654477 163.932897,71.7548165 C157.608325,36.3827239 126.744416,9.60099657 89.8089172,9.60099657 C52.8734189,9.60099657 22.0095093,36.3827239 15.6849377,71.5021587 C15.4319548,72.5127899 16.1909034,73.2707633 17.2028348,73.2707633 L20.744595,73.2707633 C21.5035436,73.2707633 22.2624922,74.0287367 22.2624922,74.7867101 L22.2624922,119.001826 C22.2624922,119.759799 21.5035436,120.517773 20.744595,120.517773 L16.4438862,120.517773 C7.3365031,120.517773 0,113.190696 0,104.095015 L0,88.4302316 C0,84.1350489 1.51789719,80.5978396 4.30070871,77.8186038 C4.80667444,77.3132882 5.31264017,76.8079726 5.31264017,76.0499992 C9.86633175,33.3508302 46.0428815,7.10542736e-15 89.8089172,7.10542736e-15 C133.827936,7.10542736e-15 170.004486,33.3508302 174.305194,76.0499992 C174.305194,76.5553148 174.558177,77.0606304 175.064143,77.565946 Z M30.1772418,120.265115 C29.6351357,120.265115 29.2737316,119.759799 29.0930295,118.749168 L29.0930295,74.7867101 C29.0930295,74.0287367 29.6351357,73.2707633 30.1772418,73.2707633 L35.5983032,73.2707633 C36.1404093,73.2707633 36.6825155,74.0287367 36.6825155,74.7867101 L36.6825155,118.749168 C36.6825155,119.507142 36.1404093,120.265115 35.5983032,120.265115 L30.1772418,120.265115 Z M124.46757,94.7692927 C126.322777,94.7692927 127.756347,96.3670201 127.756347,98.3197981 C127.756347,100.272576 126.23845,101.870303 124.383242,101.870303 L114.938548,101.870303 L108.023684,112.610582 C106.758769,114.56336 104.650579,115.717274 102.45806,115.717274 C102.12075,115.717274 101.867767,115.717274 101.530457,115.628512 C99.000628,115.273461 96.8924374,113.409446 96.0491612,110.83533 L89.4716067,89.9761104 L83.5686732,104.79947 C82.725397,106.929774 80.8701893,108.527501 78.6776711,108.971314 C76.485153,109.415127 74.2083072,108.793789 72.6060824,107.107299 L65.8598726,100.183813 L57.7644209,100.183813 C55.9092132,100.183813 54.391316,98.586086 54.391316,96.633308 C54.391316,94.6805301 55.9092132,93.0828026 57.7644209,93.0828026 L65.8598726,93.0828026 C67.6307527,93.0828026 69.3173051,93.7929037 70.5822194,95.1243432 L77.3284292,102.047829 L83.2313627,87.2244688 C84.3276218,84.4728271 86.8574504,82.786337 89.7245896,82.8750997 C92.5917287,82.9638623 94.9529021,84.9166403 95.880506,87.7570446 L102.45806,108.616264 L109.372925,97.8759849 C110.63784,95.9232069 112.661703,94.7692927 114.938548,94.7692927 L124.46757,94.7692927 Z" id="Combined-Shape"></path>
                        </g>
                    </g>
                </g>
            </g>
        </g>
    </g>
</svg>