<svg id="Layer_1" data-name="Layer 1" xmlns="http://www.w3.org/2000/svg" xmlns:xlink="http://www.w3.org/1999/xlink" width="31" height="31" viewBox="0 0 31 31"><defs><style>.cls-1{fill:none;}.cls-2{fill:#ff6265;}.cls-3{clip-path:url(#clip-path);}.cls-4{fill:#ed5463;}.cls-5{fill:#fff;}</style><clipPath id="clip-path"><path class="cls-1" d="M0,15.49A15.49,15.49,0,1,1,15.49,31,15.49,15.49,0,0,1,0,15.49Z"/></clipPath></defs><title>l-Normal</title><path class="cls-2" d="M0,15.49A15.49,15.49,0,1,1,15.49,31,15.49,15.49,0,0,1,0,15.49Z"/><g class="cls-3"><path class="cls-4" d="M21.76,10.11l8.93,8.84L29.78,29.6l-8.63.64L10.79,19.92S21.76,9.49,21.76,10.11Z"/></g><path class="cls-5" d="M22.28,10.59a4.8,4.8,0,0,0-6.79,0h0a4.8,4.8,0,0,0-6.79,0c-1.87,1.87-1.6,4.68,0,6.79s4.8,5.92,6.79,5.92h0c2,0,5.09-3.69,6.79-5.92S24.15,12.47,22.28,10.59Z"/></svg>