<svg id="Layer_1" data-name="Layer 1" xmlns="http://www.w3.org/2000/svg" width="17" height="16" viewBox="0 0 17 16">
  <defs>
    <style>
      .cls-1 {
        fill: none;
        stroke: #fff;
      }
    </style>
  </defs>
  <title>like</title>
  <g id="HOME-SCRREN-V3">
    <g id="HOME-SCREEN-3.3">
      <g id="Group-82">
        <g id="Group-81">
          <g id="Group-20">
            <path id="Shape" class="cls-1" d="M8.18,15.75,7,14.49A43.15,43.15,0,0,1,2.48,9.92,6.88,6.88,0,0,1,.73,5.64,4.52,4.52,0,0,1,1.95,2.49,4.12,4.12,0,0,1,5,1.21,4.47,4.47,0,0,1,8.18,2.64a4.47,4.47,0,0,1,3.23-1.44,4.12,4.12,0,0,1,3,1.28,4.52,4.52,0,0,1,1.22,3.15,6.88,6.88,0,0,1-1.75,4.28,43.24,43.24,0,0,1-4.51,4.57Z"/>
          </g>
        </g>
      </g>
    </g>
  </g>
</svg>
