<svg id="Layer_1" data-name="Layer 1" xmlns="http://www.w3.org/2000/svg" width="14.8" height="14.5" viewBox="0 0 14.8 14.5">
  <defs>
    <style>
      .cls-1 {
        fill: #e45b80;
      }
    </style>
  </defs>
  <title>like-active</title>
  <g id="HOME-SCRREN-V3">
    <g id="HOME-SCREEN-3.3">
      <g id="Group-82">
        <g id="Group-81">
          <g id="Group-20">
            <path id="Shape" class="cls-1" d="M8.2,15.7,7,14.5A31.39,31.39,0,0,1,2.5,9.9,6.93,6.93,0,0,1,.7,5.6,4.27,4.27,0,0,1,4.9,1.2,4.31,4.31,0,0,1,8.1,2.6a4.31,4.31,0,0,1,3.2-1.4,4.16,4.16,0,0,1,3,1.3,4.3,4.3,0,0,1,1.2,3.1,6.93,6.93,0,0,1-1.8,4.3,60.79,60.79,0,0,1-4.5,4.6Z" transform="translate(-0.7 -1.2)"/>
          </g>
        </g>
      </g>
    </g>
  </g>
</svg>
