<svg id="Layer_1" data-name="Layer 1" xmlns="http://www.w3.org/2000/svg" width="86.99" height="20" viewBox="0 0 86.99 20">
  <title>loading</title>
  <g>
    <path d="M0,15.2V.92H1.66V13.69H8v1.5Z"/>
    <path d="M19.38,9.83a5.9,5.9,0,0,1-1.32,4.09,4.64,4.64,0,0,1-3.64,1.47,4.82,4.82,0,0,1-2.55-.67,4.45,4.45,0,0,1-1.72-1.93,6.74,6.74,0,0,1-.61-2.95,5.89,5.89,0,0,1,1.31-4.08A4.63,4.63,0,0,1,14.48,4.3a4.53,4.53,0,0,1,3.57,1.49A5.88,5.88,0,0,1,19.38,9.83Zm-8.15,0A5.08,5.08,0,0,0,12,13,2.85,2.85,0,0,0,14.45,14,2.87,2.87,0,0,0,16.87,13a5.05,5.05,0,0,0,.83-3.13,5,5,0,0,0-.83-3.1,2.9,2.9,0,0,0-2.44-1.06,2.85,2.85,0,0,0-2.4,1A5,5,0,0,0,11.22,9.83Z"/>
    <path d="M28.8,15.2l-.32-1.52H28.4A4.5,4.5,0,0,1,26.8,15a4.86,4.86,0,0,1-2,.36,3.57,3.57,0,0,1-2.5-.82,3,3,0,0,1-.9-2.33q0-3.24,5.19-3.4l1.82-.06V8.12a2.71,2.71,0,0,0-.54-1.86,2.23,2.23,0,0,0-1.73-.6,7.06,7.06,0,0,0-3,.82l-.5-1.24a7.6,7.6,0,0,1,1.73-.67,7.52,7.52,0,0,1,1.89-.24,4.08,4.08,0,0,1,2.84.85A3.55,3.55,0,0,1,30,7.89v7.3Zm-3.66-1.14a3.29,3.29,0,0,0,2.38-.83,3.07,3.07,0,0,0,.86-2.32v-1L26.76,10a5.89,5.89,0,0,0-2.79.6,1.81,1.81,0,0,0-.85,1.66,1.67,1.67,0,0,0,.53,1.34A2.21,2.21,0,0,0,25.14,14.05Z"/>
    <path d="M40.63,13.76h-.09a3.81,3.81,0,0,1-3.36,1.63A4,4,0,0,1,33.91,14a6.32,6.32,0,0,1-1.17-4.08,6.43,6.43,0,0,1,1.17-4.11A3.94,3.94,0,0,1,37.18,4.3a3.89,3.89,0,0,1,3.34,1.58h.13l-.07-.77,0-.75V0h1.62V15.2H40.84ZM37.38,14a3,3,0,0,0,2.41-.9,4.56,4.56,0,0,0,.75-2.92V9.87a5.37,5.37,0,0,0-.76-3.25,2.87,2.87,0,0,0-2.42-1,2.48,2.48,0,0,0-2.18,1.11,5.51,5.51,0,0,0-.76,3.13,5.28,5.28,0,0,0,.75,3.1A2.55,2.55,0,0,0,37.38,14Z"/>
    <path d="M45.46,1.59a1.08,1.08,0,0,1,.27-.82,1,1,0,0,1,1.36,0,1.06,1.06,0,0,1,.28.81,1.07,1.07,0,0,1-.28.82,1,1,0,0,1-.67.27.94.94,0,0,1-.68-.27A1.1,1.1,0,0,1,45.46,1.59Zm1.76,13.6H45.6V4.49h1.62Z"/>
    <path d="M58,15.2V8.27a2.79,2.79,0,0,0-.6-2,2.43,2.43,0,0,0-1.87-.64,3.08,3.08,0,0,0-2.46.91,4.58,4.58,0,0,0-.78,3V15.2H50.65V4.49H52L52.24,6h.08a3.31,3.31,0,0,1,1.4-1.23,4.54,4.54,0,0,1,2-.43,4.07,4.07,0,0,1,2.91.93,4,4,0,0,1,1,3v7Z"/>
    <path d="M71.69,4.49v1l-2,.23a3.48,3.48,0,0,1,.7,2.14,3.16,3.16,0,0,1-1.07,2.51,4.33,4.33,0,0,1-2.95.94,4.9,4.9,0,0,1-.9-.08,1.6,1.6,0,0,0-1,1.38.7.7,0,0,0,.36.65,2.64,2.64,0,0,0,1.24.21h1.89a4.24,4.24,0,0,1,2.67.73,2.54,2.54,0,0,1,.93,2.13,3,3,0,0,1-1.43,2.71A7.63,7.63,0,0,1,66,20a5.68,5.68,0,0,1-3.24-.78A2.52,2.52,0,0,1,61.59,17a2.48,2.48,0,0,1,.63-1.69,3.18,3.18,0,0,1,1.76-1,1.7,1.7,0,0,1-.69-.58,1.52,1.52,0,0,1-.28-.91,1.72,1.72,0,0,1,.31-1,3.29,3.29,0,0,1,1-.85A2.89,2.89,0,0,1,63,9.83,3.42,3.42,0,0,1,62.43,8a3.46,3.46,0,0,1,1.05-2.71,4.31,4.31,0,0,1,3-1,5.43,5.43,0,0,1,1.51.2ZM63.15,17a1.45,1.45,0,0,0,.73,1.32,4,4,0,0,0,2.1.45,5.86,5.86,0,0,0,3-.61,1.87,1.87,0,0,0,1-1.66,1.31,1.31,0,0,0-.54-1.21,4.17,4.17,0,0,0-2-.34H65.49a2.56,2.56,0,0,0-1.72.53A1.88,1.88,0,0,0,63.15,17ZM64,7.92a2.18,2.18,0,0,0,.63,1.7,2.53,2.53,0,0,0,1.77.58,2.07,2.07,0,0,0,2.37-2.3,2.13,2.13,0,0,0-2.4-2.41,2.38,2.38,0,0,0-1.76.62A2.48,2.48,0,0,0,64,7.92Z"/>
    <path d="M73.65,14.16a1.45,1.45,0,0,1,.3-1,1.08,1.08,0,0,1,.85-.34,1.16,1.16,0,0,1,.88.34,1.4,1.4,0,0,1,.32,1,1.37,1.37,0,0,1-.32,1,1.28,1.28,0,0,1-1.7,0A1.34,1.34,0,0,1,73.65,14.16Z"/>
    <path d="M79.15,14.16a1.45,1.45,0,0,1,.3-1,1.08,1.08,0,0,1,.85-.34,1.16,1.16,0,0,1,.88.34,1.4,1.4,0,0,1,.32,1,1.37,1.37,0,0,1-.32,1,1.28,1.28,0,0,1-1.7,0A1.34,1.34,0,0,1,79.15,14.16Z"/>
    <path d="M84.64,14.16a1.45,1.45,0,0,1,.3-1,1.08,1.08,0,0,1,.85-.34,1.16,1.16,0,0,1,.88.34,1.4,1.4,0,0,1,.32,1,1.37,1.37,0,0,1-.32,1,1.28,1.28,0,0,1-1.7,0A1.34,1.34,0,0,1,84.64,14.16Z"/>
  </g>
</svg>
