<?xml version="1.0" encoding="UTF-8"?>
<svg width="10px" height="14px" viewBox="0 0 10 14" version="1.1" xmlns="http://www.w3.org/2000/svg" xmlns:xlink="http://www.w3.org/1999/xlink">
    <!-- Generator: Sketch 46.2 (44496) - http://www.bohemiancoding.com/sketch -->
    <title>ICO@3x</title>
    <desc>Created with Sketch.</desc>
    <defs></defs>
    <g id="HOME-SCRREN-V3" stroke="none" stroke-width="1" fill="none" fill-rule="evenodd">
        <g id="HOME-SCREEN-3.3" transform="translate(-1177.000000, -1524.000000)" stroke-width="0.5" stroke="#E45B80" fill="#E45B80" fill-rule="nonzero">
            <g id="Group-63" transform="translate(1177.599976, 1525.000000)">
                <g id="ICO">
                    <path d="M4.5,2.38461538 C3.41129032,2.38461538 2.51129032,3.35384615 2.51129032,4.53846154 C2.51129032,5.72307692 3.39677419,6.69230769 4.5,6.69230769 C5.60322581,6.69230769 6.48870968,5.72307692 6.48870968,4.53846154 C6.48870968,3.35384615 5.58870968,2.38461538 4.5,2.38461538 Z M4.5,6.23076923 C3.64354839,6.23076923 2.94677419,5.47692308 2.94677419,4.53846154 C2.94677419,3.6 3.64354839,2.84615385 4.5,2.84615385 C5.35645161,2.84615385 6.05322581,3.6 6.05322581,4.53846154 C6.05322581,5.47692308 5.35645161,6.23076923 4.5,6.23076923 Z" id="Shape"></path>
                    <path d="M4.5,0.0769230769 C2.17741935,0.0769230769 0.246774194,2.04615385 0.0870967742,4.56923077 C0.0435483871,5.21538462 0.130645161,5.84615385 0.348387097,6.47692308 C0.551612903,7.07692308 0.9,7.64615385 1.35,8.16923077 L4.34032258,11.8461538 C4.38387097,11.8923077 4.44193548,11.9230769 4.5,11.9230769 C4.55806452,11.9230769 4.63064516,11.8923077 4.65967742,11.8461538 L7.63548387,8.16923077 C8.1,7.64615385 8.43387097,7.07692308 8.63709677,6.47692308 C8.85483871,5.84615385 8.94193548,5.21538462 8.8983871,4.56923077 C8.75322581,2.04615385 6.82258065,0.0769230769 4.5,0.0769230769 Z M8.24516129,6.30769231 C8.05645161,6.86153846 7.7516129,7.36923077 7.31612903,7.84615385 L4.5,11.3384615 L1.66935484,7.84615385 C1.2483871,7.36923077 0.943548387,6.86153846 0.75483871,6.30769231 C0.566129032,5.73846154 0.479032258,5.16923077 0.522580645,4.6 C0.653225806,2.6 2.17741935,0.538461538 4.5,0.538461538 C6.82258065,0.538461538 8.36129032,2.6 8.47741935,4.6 C8.52096774,5.16923077 8.43387097,5.75384615 8.24516129,6.30769231 Z" id="Shape"></path>
                </g>
            </g>
        </g>
    </g>
</svg>