<?xml version="1.0" encoding="utf-8"?>
<!-- Generator: Adobe Illustrator 21.0.2, SVG Export Plug-In . SVG Version: 6.00 Build 0)  -->
<svg version="1.1" id="Layer_1" xmlns="http://www.w3.org/2000/svg" xmlns:xlink="http://www.w3.org/1999/xlink" x="0px" y="0px"
	 viewBox="0 0 16 20" style="enable-background:new 0 0 16 20;" xml:space="preserve">
<style type="text/css">
	.st0{fill:none;stroke:#FFFFFF;stroke-width:1.8;stroke-linecap:round;stroke-linejoin:round;}
</style>
<title>Group 29@3x</title>
<desc>Created with Sketch.</desc>
<g id="HOME-SCRREN-V3">
	<g id="HOME-SCREEN-3.3" transform="translate(-1263.000000, -25.000000)">
		<g id="HEADER">
			<g id="PROFILE" transform="translate(1240.000000, 5.000000)">
				<g id="Group-29">
					<g transform="translate(23.749948, 21.000000)">
						<path id="Shape" class="st0" d="M7,7.8c1.9,0,3.5-1.9,3.5-4.1c0-2.3-1.5-3.6-3.5-3.6c-1.9,0-3.5,1.3-3.5,3.6
							C3.5,6,5.1,7.8,7,7.8z"/>
						<path id="Shape_1_" class="st0" d="M13.7,15.8c0-0.4,0-1,0-1.1c-0.3-3-3.2-4.1-6.6-4.1c0,0-0.1,0-0.1,0c0,0-0.1,0-0.1,0
							c-3.4,0-6.3,1.1-6.6,4.1c0,0.1,0,0.7,0,1.1"/>
						<path id="Shape_2_" class="st0" d="M13.7,15.8c-1.8,1.4-4.1,2.1-6.7,2.1c-2.6,0-4.9-0.7-6.7-2.1"/>
					</g>
				</g>
			</g>
		</g>
	</g>
</g>
</svg>
