<?xml version="1.0" encoding="UTF-8"?>
<svg width="16px" height="20px" viewBox="0 0 16 20" version="1.1" xmlns="http://www.w3.org/2000/svg" xmlns:xlink="http://www.w3.org/1999/xlink">
    <!-- Generator: Sketch 46.2 (44496) - http://www.bohemiancoding.com/sketch -->
    <title>Group 29@3x</title>
    <desc>Created with Sketch.</desc>
    <defs></defs>
    <g id="HOME-SCRREN-V3" stroke="none" stroke-width="1" fill="none" fill-rule="evenodd" stroke-linecap="round" stroke-linejoin="round">
        <g id="HOME-SCREEN-3.3" transform="translate(-1263.000000, -25.000000)" stroke="#333333" stroke-width="1.8">
            <g id="HEADER">
                <g id="PROFILE" transform="translate(1240.000000, 5.000000)">
                    <g id="Group-29">
                        <g transform="translate(23.749948, 21.000000)">
                            <path d="M6.96428571,7.81835294 C8.8744898,7.81835294 10.422551,5.96402017 10.422551,3.67720336 C10.422551,1.38990252 8.87424107,0.0534857143 6.96428571,0.0534857143 C5.05457908,0.0534857143 3.50651786,1.3896605 3.50651786,3.67720336 C3.50651786,5.96402017 5.05457908,7.81835294 6.96428571,7.81835294 Z" id="Shape"></path>
                            <path d="M13.7022321,15.8194286 C13.696014,15.4648739 13.6870599,14.8068303 13.678852,14.7293849 C13.3418304,11.7240202 10.5086097,10.6547899 7.06203444,10.6547899 C7.02945153,10.6547899 6.99686862,10.6567261 6.96428571,10.6572101 C6.93120536,10.6567261 6.89961735,10.6547899 6.86603954,10.6547899 C3.41996173,10.6547899 0.586243622,11.7240202 0.249470663,14.7293849 C0.240765306,14.8068303 0.233054847,15.4648739 0.226090561,15.8194286" id="Shape"></path>
                            <path d="M13.7022321,15.8194286 C11.8547066,17.1783529 9.56370536,17.9465143 6.96428571,17.9465143 C4.33626276,17.9469983 2.0820727,17.2052168 0.226339286,15.8194286" id="Shape"></path>
                        </g>
                    </g>
                </g>
            </g>
        </g>
    </g>
</svg>