<?xml version="1.0" encoding="UTF-8"?>
<svg width="16px" height="15px" viewBox="0 0 16 15" version="1.1" xmlns="http://www.w3.org/2000/svg" xmlns:xlink="http://www.w3.org/1999/xlink">
    <!-- Generator: Sketch 46.2 (44496) - http://www.bohemiancoding.com/sketch -->
    <title>Shape@3x</title>
    <desc>Created with Sketch.</desc>
    <defs></defs>
    <g id="HOME-SCRREN-V3" stroke="none" stroke-width="1" fill="none" fill-rule="evenodd">
        <g id="HOME-SCREEN-3.3" transform="translate(-185.000000, -1111.000000)" fill-rule="nonzero" fill="#FFFFFF">
            <g id="Group-82" transform="translate(100.000000, 725.000000)">
                <g id="Group-81" transform="translate(0.000000, 95.000000)">
                    <g id="Group-20" transform="translate(10.000000, 286.000000)">
                        <path d="M76.1428,5 C75.5116,5 75,5.51654506 75,6.15384615 L75,15.3850193 C75,16.0223203 75.5116,16.5380577 76.1428,16.5380577 L78.4288,16.5380577 L78.4288,19.4281253 C78.4328,19.7459681 78.6872,20 79,20 C79.182,20 79.3436,19.9139765 79.4484,19.7807006 L82.6712,16.5380577 L89.858,16.5380577 C90.4884,16.5380577 91,16.0223203 91,15.3850193 L91,6.15425002 C91,5.51694892 90.4884,5 89.858,5 L76.1428,5 Z M89.6172,15.561105 L82.3712,15.561105 L79.394,18.5287149 L79.394,15.5615088 L78.7876,15.5615088 L76.3828,15.5615088 C76.054,15.5615088 75.7868,15.2925339 75.7868,14.959748 L75.7868,6.45311112 C75.7868,6.12032525 76.054,5.85135026 76.3828,5.85135026 L89.6172,5.85135026 C89.946,5.85135026 90.2132,6.12032525 90.2132,6.45311112 L90.2132,14.9593441 C90.2132,15.29213 89.946,15.561105 89.6172,15.561105 Z M87.8056,9.44252982 L79.4624,9.44252982 C79.2412,9.44252982 79.0624,9.26119383 79.0624,9.03866347 C79.0624,8.81532538 79.2412,8.63479712 79.4624,8.63479712 L87.8052,8.63479712 C88.0264,8.63479712 88.2056,8.81572925 88.2056,9.03866347 C88.2056,9.26119383 88.0268,9.44252982 87.8056,9.44252982 Z M85.2756,11.750626 L79.4624,11.750626 C79.242,11.750626 79.0624,11.56929 79.0624,11.3467596 C79.0624,11.1234216 79.242,10.9428933 79.4624,10.9428933 L85.2756,10.9428933 C85.4968,10.9428933 85.6756,11.1234216 85.6756,11.3467596 C85.6756,11.56929 85.4968,11.750626 85.2756,11.750626 Z" id="Shape"></path>
                    </g>
                </g>
            </g>
        </g>
    </g>
</svg>