<svg id="Layer_1" data-name="Layer 1" xmlns="http://www.w3.org/2000/svg" viewBox="0 0 16 15"><defs><style>.cls-1{fill:#020202;}</style></defs><title>message-black</title><g id="HOME-SCRREN-V3"><g id="HOME-SCREEN-3.3"><g id="Group-82"><g id="Group-81"><g id="Group-20"><path id="Shape" class="cls-1" d="M1.14,0A1.15,1.15,0,0,0,0,1.15v9.23a1.15,1.15,0,0,0,1.14,1.15H3.43v2.89a.57.57,0,0,0,1,.35l3.22-3.24h7.19A1.15,1.15,0,0,0,16,10.39V1.15A1.15,1.15,0,0,0,14.86,0ZM14.62,10.56H7.37l-3,3v-3h-3a.6.6,0,0,1-.6-.6V1.45a.6.6,0,0,1,.6-.6H14.62a.6.6,0,0,1,.6.6V10A.6.6,0,0,1,14.62,10.56ZM12.81,4.44H4.46a.4.4,0,0,1,0-.81h8.34a.4.4,0,0,1,0,.81ZM10.28,6.75H4.46a.4.4,0,0,1,0-.81h5.81a.4.4,0,0,1,0,.81Z"/></g></g></g></g></g></svg>