<svg id="Layer_1" data-name="Layer 1" xmlns="http://www.w3.org/2000/svg" width="21.7" height="21.7" viewBox="0 0 21.7 21.7"><defs><style>.cls-1{fill:#2dccbb;}</style></defs><title>my group</title><path class="cls-1" d="M16.95,8.33h.35a1,1,0,0,1,1,1V11a.3.3,0,0,1-.14.25.42.42,0,0,0-.19.35v1.57a.5.5,0,0,0,.28.45,12.33,12.33,0,0,1,2.23,1.43.36.36,0,0,1,.13.28v1.11a.43.43,0,0,0,.85,0V15.33a1.21,1.21,0,0,0-.44-.94A13.15,13.15,0,0,0,18.85,13V11.8a1.16,1.16,0,0,0,.33-.81V9.37a1.89,1.89,0,0,0-1.89-1.89h-.35A1.89,1.89,0,0,0,15,9.37V11a1.16,1.16,0,0,0,.33.81v.56a.43.43,0,0,0,.85,0v-.75a.43.43,0,0,0-.19-.35A.3.3,0,0,1,15.9,11V9.37A1,1,0,0,1,16.95,8.33Z"/><path class="cls-1" d="M.78,14.4a1.22,1.22,0,0,0-.44.94v1.11a.43.43,0,0,0,.85,0V15.34a.37.37,0,0,1,.13-.28,12.6,12.6,0,0,1,2.23-1.43.5.5,0,0,0,.28-.45V11.61a.43.43,0,0,0-.19-.35A.3.3,0,0,1,3.5,11V9.37a1,1,0,0,1,1-1h.35a1,1,0,0,1,1,1V11a.3.3,0,0,1-.14.25.42.42,0,0,0-.19.35v.79a.43.43,0,0,0,.85,0v-.59A1.16,1.16,0,0,0,6.78,11V9.37A1.89,1.89,0,0,0,4.89,7.48H4.54A1.89,1.89,0,0,0,2.65,9.37V11a1.16,1.16,0,0,0,.33.81V13A13.63,13.63,0,0,0,.78,14.4Z"/><path class="cls-1" d="M16.06,16.88a.43.43,0,0,0,.43-.43V15A1.44,1.44,0,0,0,16,13.89,16.93,16.93,0,0,0,13.06,12V10.39a1.38,1.38,0,0,0,.42-1V7.29A2.33,2.33,0,0,0,11.16,5h-.45A2.33,2.33,0,0,0,8.39,7.29V9.39a1.38,1.38,0,0,0,.42,1V12a16.93,16.93,0,0,0-2.89,1.88A1.44,1.44,0,0,0,5.39,15v1.44a.43.43,0,0,0,.85,0V15a.59.59,0,0,1,.22-.46,16.31,16.31,0,0,1,2.91-1.87.51.51,0,0,0,.29-.47v-2a.43.43,0,0,0-.19-.35.52.52,0,0,1-.23-.44V7.29a1.47,1.47,0,0,1,1.47-1.47h.45a1.47,1.47,0,0,1,1.47,1.47V9.4a.53.53,0,0,1-.23.44.42.42,0,0,0-.19.35v2a.53.53,0,0,0,.29.47,16.31,16.31,0,0,1,2.91,1.87.59.59,0,0,1,.22.46v1.44A.41.41,0,0,0,16.06,16.88Z"/></svg>