<svg id="Layer_1" data-name="Layer 1" xmlns="http://www.w3.org/2000/svg" viewBox="0 0 493 510.56"><defs><style>.cls-1{fill:#0fd6c7;}</style></defs><title>Partners</title><path class="cls-1" d="M131.19,134a49.43,49.43,0,0,0,38-2.19l6.22-3a33.09,33.09,0,0,1,25.28-1.6L318,167.69c-1,4.69-3.37,11.62-8.75,15.34s-13,3.74-23,.25l-52-17.73a8.19,8.19,0,0,0-6.34.54,8.32,8.32,0,0,0-4,4.93l0,.15c-.83,2.88-8.79,28.5-30.83,40.25-14.66,7.91-32.94,8.2-54.32.88a8,8,0,0,0-10.16,4.92,7.81,7.81,0,0,0,.36,6.1,8.06,8.06,0,0,0,4.58,4.06,105,105,0,0,0,33.77,6.11,69.33,69.33,0,0,0,33.37-8.14c21.29-11.44,31.8-32.11,35.85-42.18l44.31,15.19c15.06,5.19,27.65,4.44,37.41-2.25,4.47-3.08,15-12.5,16.45-33.36l0-.34a7.92,7.92,0,0,0-5.36-7.77L205.76,112a49.92,49.92,0,0,0-37.55,2.29l-6.21,3a32.93,32.93,0,0,1-25.57,1.42L126,115a11.45,11.45,0,0,0-1.62-.84L61,92.61a8.08,8.08,0,0,0-6.13.41,7.87,7.87,0,0,0-4,4.54l-53.13,155a8,8,0,0,0,4.94,10.17L66,284.41a6.75,6.75,0,0,0,2.72.53,7.92,7.92,0,0,0,7.5-5.35L126.69,132.4Zm-19.42-7.14-48,139.81L15.52,250.18,63.46,110.36Z"/><path class="cls-1" d="M489.23,244.47,417,97.62a7.88,7.88,0,0,0-4.56-4,8.08,8.08,0,0,0-6.12.4l-60.16,29.43a8,8,0,0,0-3.71,10.68l69.39,141.76-22.42,20.51a279.23,279.23,0,0,1-66.27,45.21l-115.2,56.35a11,11,0,0,1-8.65.5,11.66,11.66,0,0,1-6.58-5.81,11,11,0,0,1-.5-8.65,11.65,11.65,0,0,1,5.8-6.58l64.36-31.53a8,8,0,0,0-7-14.4L192.43,362.3l-31.72,15.51a11.44,11.44,0,0,1-8.72.53,11.14,11.14,0,0,1-6.52-5.71,11.5,11.5,0,0,1,5.18-15.24l92.48-45.24a8,8,0,0,0-7-14.4l-68.45,33.52-35.32,17.21a11.45,11.45,0,0,1-8.72.53,11.14,11.14,0,0,1-6.52-5.71,11.4,11.4,0,0,1,5.19-15.24l11.41-5.6,82.77-40.54a8,8,0,0,0-7-14.4l-82.78,40.54a11,11,0,0,1-8.65.5,11.66,11.66,0,0,1-6.58-5.81,11,11,0,0,1-.5-8.65,11.5,11.5,0,0,1,5.8-6.57L160.78,266a8,8,0,0,0-7-14.4l-43.93,21.52a27.44,27.44,0,0,0-12.63,36.69,26.62,26.62,0,0,0,9.38,10.69,27.35,27.35,0,0,0,20.95,45l1,0a27.73,27.73,0,0,0,2.67,14,27.2,27.2,0,0,0,24.61,15.33,26.58,26.58,0,0,0,12-2.81l7.88-3.91a26.1,26.1,0,0,0,2.84,11.3,27.4,27.4,0,0,0,15.77,13.92,28.26,28.26,0,0,0,8.94,1.5,27.63,27.63,0,0,0,12-2.8l115.18-56.34a294.72,294.72,0,0,0,70-47.86L426.41,284l59.1-28.9A8,8,0,0,0,489.23,244.47Zm-18.2.23-45.74,22.36-65-132.8,45.84-22.36Z"/></svg>