<?xml version="1.0" encoding="UTF-8"?>
<svg width="17px" height="18px" viewBox="0 0 17 18" version="1.1" xmlns="http://www.w3.org/2000/svg" xmlns:xlink="http://www.w3.org/1999/xlink">
    <!-- Generator: Sketch 46.2 (44496) - http://www.bohemiancoding.com/sketch -->
    <title>Shape@3x</title>
    <desc>Created with Sketch.</desc>
    <defs></defs>
    <g id="HOME-SCRREN-V3" stroke="none" stroke-width="1" fill="none" fill-rule="evenodd">
        <g id="HOME-SCREEN-3.3" transform="translate(-477.000000, -1661.000000)" fill-rule="nonzero" fill="#FFFFFF">
            <g id="Group-64" transform="translate(100.000000, 1557.000000)">
                <g id="Group-62" transform="translate(320.000000, 88.000000)">
                    <path d="M70.4183922,22.543086 L60.0849574,22.543086 C59.8074696,22.543086 59.5825213,22.7763835 59.5825213,23.0641706 L59.5825213,30.8005404 C59.5825213,31.0883275 59.8074696,31.321625 60.0849574,31.321625 L70.4183922,31.321625 C70.69588,31.321625 70.9208283,31.0883275 70.9208283,30.8005404 L70.9208283,23.0641706 C70.9208283,22.7763835 70.69588,22.543086 70.4183922,22.543086 L70.4183922,22.543086 Z M69.9159562,30.2655602 L60.5873934,30.2655602 L60.5873934,23.5852552 L69.9159562,23.5852552 L69.9159562,30.2655602 Z M71.7079781,18.2076619 L70.4652862,18.2076619 L70.4652862,17.8602721 C70.4652862,16.8328722 69.6622209,16 68.6715895,16 C67.6809582,16 66.8778928,16.8328722 66.8778928,17.8602721 L66.8778928,18.2076619 L63.5819123,18.2076619 L63.5819123,17.8602721 C63.5819123,16.8328722 62.7788469,16 61.7882156,16 C60.7975843,16 59.9945189,16.8328722 59.9945189,17.8602721 L59.9945189,18.2076619 L58.7920219,18.2076619 C57.8030801,18.2095736 57.0018433,19.0405493 57,20.066197 L57,32.1414648 C57.0018433,33.1671125 57.8030801,33.9980883 58.7920219,34 L71.7079781,34 C72.6969199,33.9980883 73.4981567,33.1671125 73.5,32.1414648 L73.5,20.0800926 C73.4981567,19.0544449 72.6969199,18.2234692 71.7079781,18.2215575 L71.7079781,18.2076619 Z M72.4984775,32.1414648 C72.4966425,32.5915406 72.1452961,32.9559276 71.7113276,32.9578307 L58.7920219,32.9578307 C58.3580534,32.9559276 58.0067071,32.5915406 58.0048721,32.1414648 L58.0048721,20.0800926 C58.0067071,19.6300168 58.3580534,19.2656298 58.7920219,19.2637267 L60.5103532,19.2637267 C60.787841,19.2637267 61.0127893,19.0304292 61.0127893,18.7426421 L61.0127893,17.8811155 C61.0127893,17.4292898 61.3659581,17.0630126 61.8016139,17.0630126 C62.2372697,17.0630126 62.5904385,17.4292898 62.5904385,17.8811155 L62.5904385,18.7426421 C62.5904385,19.0304292 62.8153868,19.2637267 63.0928745,19.2637267 L67.3803289,19.2637267 C67.6578166,19.2637267 67.8827649,19.0304292 67.8827649,18.7426421 L67.8827649,17.8811155 C67.8827649,17.4292898 68.2359337,17.0630126 68.6715895,17.0630126 C69.1072453,17.0630126 69.4604141,17.4292898 69.4604141,17.8811155 L69.4604141,18.7426421 C69.4604141,19.0304292 69.6853624,19.2637267 69.9628502,19.2637267 L71.7079781,19.2637267 C72.1419466,19.2656298 72.4932929,19.6300168 72.4951279,20.0800926 L72.4984775,32.1414648 Z" id="Shape"></path>
                </g>
            </g>
        </g>
    </g>
</svg>