<?xml version="1.0" encoding="UTF-8"?>
<svg width="20px" height="20px" viewBox="0 0 20 20" version="1.1" xmlns="http://www.w3.org/2000/svg" xmlns:xlink="http://www.w3.org/1999/xlink">
    <!-- Generator: Sketch 46.2 (44496) - http://www.bohemiancoding.com/sketch -->
    <title>bra-pinterest@3x</title>
    <desc>Created with Sketch.</desc>
    <defs></defs>
    <g id="HOME-SCRREN-V3" stroke="none" stroke-width="1" fill="none" fill-rule="evenodd">
        <g id="HOME-SCREEN-3.3" transform="translate(-1253.000000, -89.000000)" fill-rule="nonzero" fill="#333333">
            <g id="SUBHEADER" transform="translate(0.000000, 70.000000)">
                <g id="SHARE" transform="translate(1088.000000, 19.000000)">
                    <g id="bra-pinterest" transform="translate(165.000000, 0.000000)">
                        <path d="M10,0 C4.48590909,0 0,4.48590909 0,10 C0,15.5140909 4.48590909,20 10,20 C15.5140909,20 20,15.5140909 20,10 C20,4.48590909 15.5140909,0 10,0 L10,0 Z M10,19.0909091 C9.13,19.0909091 8.29090909,18.9609091 7.49318182,18.7313636 C7.73954545,18.2790909 7.96681818,17.7809091 8.10545455,17.2772727 C8.22681818,16.8395455 8.79681818,14.5777273 8.79681818,14.5777273 C9.13818182,15.2295455 10.135,15.8009091 11.1959091,15.8009091 C14.3522727,15.8009091 16.4945455,12.9227273 16.4945455,9.07227273 C16.4945455,6.16045455 14.0268182,3.44727273 10.2772727,3.44727273 C5.61181818,3.44727273 3.25909091,6.79136364 3.25909091,9.58090909 C3.25909091,11.2695455 3.89818182,12.7722727 5.27136364,13.3322727 C5.495,13.425 5.69590909,13.3354545 5.76181818,13.0868182 C5.80727273,12.9136364 5.91545455,12.4786364 5.96181818,12.2990909 C6.02681818,12.0531818 6.00181818,11.9659091 5.82045455,11.75 C5.42590909,11.2831818 5.17272727,10.6804545 5.17272727,9.82454545 C5.17272727,7.34454545 7.02818182,5.12272727 10.0077273,5.12272727 C12.6431818,5.12272727 14.0927273,6.73318182 14.0927273,8.88545455 C14.0927273,11.7168182 12.8395455,14.1059091 10.9790909,14.1059091 C9.95090909,14.1059091 9.18318182,13.2572727 9.42954545,12.215 C9.72409091,10.9713636 10.2963636,9.62909091 10.2963636,8.72954545 C10.2963636,7.92772727 9.86590909,7.25590909 8.97227273,7.25590909 C7.92136364,7.25590909 7.07772727,8.34272727 7.07772727,9.79772727 C7.07772727,10.7245455 7.39136364,11.3518182 7.39136364,11.3518182 C7.39136364,11.3518182 6.31772727,15.9059091 6.12818182,16.7022727 C6.01909091,17.1690909 5.97272727,17.6604545 5.95909091,18.1322727 C2.97181818,16.6409091 0.909090909,13.5604545 0.909090909,10 C0.909090909,4.98727273 4.98727273,0.909090909 10,0.909090909 C15.0127273,0.909090909 19.0909091,4.98727273 19.0909091,10 C19.0909091,15.0127273 15.0127273,19.0909091 10,19.0909091 L10,19.0909091 Z" id="Shape"></path>
                    </g>
                </g>
            </g>
        </g>
    </g>
</svg>