<?xml version="1.0" encoding="UTF-8"?>
<svg width="55px" height="55px" viewBox="0 0 55 55" version="1.1" xmlns="http://www.w3.org/2000/svg" xmlns:xlink="http://www.w3.org/1999/xlink">
    <!-- Generator: Sketch 46.2 (44496) - http://www.bohemiancoding.com/sketch -->
    <title>Group 57@3x</title>
    <desc>Created with Sketch.</desc>
    <defs></defs>
    <g id="HOME-SCRREN-V3" stroke="none" stroke-width="1" fill="none" fill-rule="evenodd">
        <g id="HOME-SCREEN-3.3" transform="translate(-748.000000, -6180.000000)">
            <g id="Group-74" transform="translate(728.000000, 6160.000000)">
                <g id="Group-73" transform="translate(20.000000, 20.000000)">
                    <g id="Group-57">
                        <path d="M27.5,0 L27.5,0 C12.3315789,0 0,12.3315789 0,27.5 L0,27.5 C0,42.6684211 12.3315789,55 27.5,55 L27.5,55 C42.6684211,55 55,42.6684211 55,27.5 L55,27.5 C55,12.3315789 42.6684211,0 27.5,0 Z" id="Shape" fill="#E45B80" fill-rule="nonzero"></path>
                        <path d="M39.4842105,29.4105263 L22.8105263,39.8315789 C21.3052632,40.7578947 19.3368421,39.7157895 19.3368421,37.9210526 L19.3368421,17.0789474 C19.3368421,15.2842105 21.3052632,14.1842105 22.8105263,15.1684211 L39.4842105,25.5894737 C40.8736842,26.4578947 40.8736842,28.5421053 39.4842105,29.4105263 Z" id="Path" fill="#FFFFFF"></path>
                    </g>
                </g>
            </g>
        </g>
    </g>
</svg>