<?xml version="1.0" encoding="UTF-8"?>
<svg width="100px" height="100px" viewBox="0 0 100 100" version="1.1" xmlns="http://www.w3.org/2000/svg" xmlns:xlink="http://www.w3.org/1999/xlink">
    <!-- Generator: Sketch 49 (51002) - http://www.bohemiancoding.com/sketch -->
    <title>Radio-Color</title>
    <desc>Created with Sketch.</desc>
    <defs>
        <linearGradient x1="72.5098857%" y1="0%" x2="28.1872675%" y2="98.4514509%" id="linearGradient-1">
            <stop stop-color="#FF9270" offset="0%"></stop>
            <stop stop-color="#F94E62" offset="100%"></stop>
        </linearGradient>
    </defs>
    <g id="Page-1" stroke="none" stroke-width="1" fill="none" fill-rule="evenodd">
        <g id="KSP-Radio-Copy" transform="translate(1.000000, 13.000000)" fill="url(#linearGradient-1)" fill-rule="nonzero">
            <path d="M76.4143024,72.84696 C76.0855863,72.84696 75.7568701,72.5408801 75.7568701,71.928721 L75.7568701,45.2997902 C75.7568701,44.8406708 76.0855863,44.3815513 76.4143024,44.3815513 L79.7014648,44.3815513 C80.030181,44.3815513 80.3588971,44.8406708 80.3588971,45.2997902 L80.3588971,71.928721 C80.3588971,72.3878408 80.030181,72.84696 79.7014648,72.84696 L76.4143024,72.84696 Z M95.2387842,46.9832284 C96.9261938,48.6666665 98,50.962264 98,53.5639412 L98,63.0524105 C98,68.5618445 93.551374,73 88.0289418,73 L85.267726,73 C84.8075231,73 84.3473201,72.5408801 84.3473201,72.0817609 L84.3473201,45.4528301 C84.3473201,44.9937106 84.8075231,44.5345911 85.267726,44.5345911 L87.5687395,44.5345911 C88.1823428,44.5345911 88.6425457,44.0754716 88.4891447,43.4633123 C84.6541221,22.0377358 72.0029002,5.81551361 49.6063688,5.81551361 C27.2098378,5.81551361 13.3458781,22.0377358 9.51085568,43.3102725 C9.35745476,43.9224318 9.81765746,44.3815513 10.431261,44.3815513 L12.5788736,44.3815513 C13.0390763,44.3815513 13.499279,44.8406708 13.499279,45.2997902 L13.499279,72.0817609 C13.499279,72.5408801 13.0390763,73 12.5788736,73 L9.97105832,73 C4.44862603,73 0,68.5618445 0,63.0524105 L0,53.5639412 C0,50.962264 0.920405384,48.8197064 2.60781526,47.1362683 C2.91461705,46.8301886 3.22141885,46.5241089 3.22141885,46.0649894 C5.98263501,20.2012578 23.0680136,0 49.6063688,0 C76.2981252,0 92.1707664,20.2012578 94.7785813,46.0649894 C94.7785813,46.3710691 94.9319822,46.6771488 95.2387842,46.9832284 Z M18.2985356,72.84696 C17.9698195,72.84696 17.7506753,72.5408801 17.6411032,71.928721 L17.6411032,45.2997902 C17.6411032,44.8406708 17.9698195,44.3815513 18.2985356,44.3815513 L21.5856977,44.3815513 C21.9144139,44.3815513 22.2431302,44.8406708 22.2431302,45.2997902 L22.2431302,71.928721 C22.2431302,72.3878408 21.9144139,72.84696 21.5856977,72.84696 L18.2985356,72.84696 Z M68.8031858,57.403636 C69.9281253,57.403636 70.7973973,58.3714111 70.7973973,59.5542473 C70.7973973,60.7370836 69.876992,61.7048584 68.7520519,61.7048584 L63.0250849,61.7048584 L58.8321276,68.2104579 C58.0651227,69.3932942 56.7867822,70.0922428 55.4573073,70.0922428 C55.252773,70.0922428 55.0993721,70.0922428 54.8948378,70.0384779 C53.3608286,69.8234164 52.0824878,68.6943457 51.5711515,67.1351527 L47.5827281,54.5003106 L44.0033739,63.4791128 C43.4920376,64.7694801 42.3670976,65.737255 41.0376232,66.0060813 C39.7081488,66.2749076 38.3275407,65.8985509 37.3560017,64.8770105 L33.265311,60.683318 L28.3564823,60.683318 C27.2315424,60.683318 26.311137,59.7155432 26.311137,58.5327069 C26.311137,57.3498707 27.2315424,56.3820955 28.3564823,56.3820955 L33.265311,56.3820955 C34.3391173,56.3820955 35.36179,56.8122178 36.1287944,57.6186971 L40.2194851,61.8123894 L43.7988393,52.8335868 C44.4635766,51.166863 45.9975855,50.1453226 47.7361291,50.1990879 C49.4746725,50.2528531 50.9064142,51.4356894 51.4688842,53.1561785 L55.4573073,65.7910205 L59.6502651,59.2854209 C60.41727,58.1025846 61.6444773,57.403636 63.0250849,57.403636 L68.8031858,57.403636 Z" id="Combined-Shape"></path>
        </g>
    </g>
</svg>