<svg id="Layer_1" data-name="Layer 1" xmlns="http://www.w3.org/2000/svg" xmlns:xlink="http://www.w3.org/1999/xlink" width="105" height="93" viewBox="0 0 105 93">
  <defs>
    <style>
      .cls-1, .cls-2, .cls-3, .cls-7 {
        fill: none;
      }

      .cls-2, .cls-6 {
        clip-path: url(#clip-path);
      }

      .cls-3 {
        clip-path: url(#clip-path-2);
      }

      .cls-4 {
        clip-path: url(#clip-path-6);
      }

      .cls-5 {
        fill: #303030;
      }

      .cls-7 {
        stroke: #fff;
        stroke-miterlimit: 10;
        stroke-width: 1.2px;
      }

      .cls-8 {
        clip-path: url(#clip-path-8);
      }

      .cls-9 {
        clip-path: url(#clip-path-9);
      }

      .cls-10 {
        clip-path: url(#clip-path-10);
      }

      .cls-11 {
        clip-path: url(#clip-path-11);
      }
    </style>
    <clipPath id="clip-path">
      <rect class="cls-1" width="105" height="93"/>
    </clipPath>
    <clipPath id="clip-path-2">
      <rect class="cls-1" width="105" height="93"/>
    </clipPath>
    <clipPath id="clip-path-6">
      <path class="cls-2" d="M95.81,27.86H26L75.26,9a3.1,3.1,0,0,0-2.2-5.8l-65,24.86,0,0a6.13,6.13,0,0,0-5,6V83.79A6.2,6.2,0,0,0,9.19,90H95.81A6.2,6.2,0,0,0,102,83.79V34.07a6.2,6.2,0,0,0-6.19-6.21Zm0,59V83.79H9.19V34.07H95.81V83.79h0v3.11Z"/>
    </clipPath>
    <clipPath id="clip-path-8">
      <path class="cls-2" d="M33,39A18,18,0,1,0,51,57,18,18,0,0,0,33,39Zm0,30A12,12,0,1,1,45,57,12,12,0,0,1,33,69Z"/>
    </clipPath>
    <clipPath id="clip-path-9">
      <path class="cls-2" d="M87,48H69a3,3,0,0,0,0,6H87a3,3,0,0,0,0-6Z"/>
    </clipPath>
    <clipPath id="clip-path-10">
      <path class="cls-2" d="M87,60H69a3,3,0,0,0,0,6H87a3,3,0,0,0,0-6Z"/>
    </clipPath>
    <clipPath id="clip-path-11">
      <path class="cls-3" d="M87,72H69a3,3,0,0,0,0,6H87a3,3,0,0,0,0-6Z"/>
    </clipPath>
  </defs>
  <title>Radio</title>
  <g>
    <g class="cls-4">
      <rect class="cls-5" x="-12" y="-12" width="129" height="117"/>
    </g>
    <g class="cls-6">
      <path class="cls-7" d="M95.81,27.86H26L75.26,9a3.1,3.1,0,0,0-2.2-5.8l-65,24.86,0,0a6.13,6.13,0,0,0-5,6V83.79A6.2,6.2,0,0,0,9.19,90H95.81A6.2,6.2,0,0,0,102,83.79V34.07a6.2,6.2,0,0,0-6.19-6.21Zm0,59V83.79H9.19V34.07H95.81V83.79h0v3.11Z"/>
    </g>
    <g class="cls-8">
      <rect class="cls-5" y="24" width="66" height="66"/>
    </g>
    <g class="cls-9">
      <rect class="cls-5" x="51" y="33" width="54" height="36"/>
    </g>
    <g class="cls-10">
      <rect class="cls-5" x="51" y="45" width="54" height="36"/>
    </g>
    <g class="cls-11">
      <rect class="cls-5" x="51" y="57" width="54" height="36"/>
    </g>
  </g>
</svg>
