<?xml version="1.0" encoding="UTF-8"?>
<svg width="20px" height="26px" viewBox="0 0 20 26" version="1.1" xmlns="http://www.w3.org/2000/svg" xmlns:xlink="http://www.w3.org/1999/xlink">
    <!-- Generator: Sketch 46.2 (44496) - http://www.bohemiancoding.com/sketch -->
    <title>ICO@3x</title>
    <desc>Created with Sketch.</desc>
    <defs></defs>
    <g id="HOME-SCRREN-V3" stroke="none" stroke-width="1" fill="none" fill-rule="evenodd">
        <g id="HOME-SCREEN-3.3" transform="translate(-122.000000, -4621.000000)" fill="#339FFF">
            <g id="HEADER" transform="translate(100.000000, 4598.000000)">
                <g id="ICO" transform="translate(22.000000, 23.000000)">
                    <g id="Shape">
                        <path d="M6.36363636,1.60063447e-13 C5.00381818,1.60063447e-13 3.97081818,-0.00368280714 3.11609091,0.0943057143 C2.26136364,0.192294236 1.51054545,0.405562857 0.955181818,0.972093571 C0.399881818,1.53863357 0.190536364,2.30570786 0.0940272727,3.17930786 C-0.00248181818,4.05290786 -8.18181818e-05,5.10925071 -8.18181818e-05,6.500065 L-8.18181818e-05,19.500065 C-8.18181818e-05,20.8908793 -0.00248181818,21.9472221 0.0940272727,22.8208221 C0.190536364,23.6943479 0.399881818,24.4614221 0.955181818,25.0280364 C1.51048182,25.5945764 2.26136364,25.8078321 3.11609091,25.9058243 C3.97080909,26.0038164 5.00381818,26.00013 6.36363636,26.00013 L13.6363636,26.00013 C14.9961818,26.00013 16.0291818,26.0038443 16.8839091,25.9058243 C17.7386273,25.8078321 18.4894545,25.5945671 19.0448182,25.0280364 C19.6001818,24.4615057 19.8094636,23.6944221 19.9059636,22.8208221 C20.0024727,21.9472964 20.0000727,20.8908793 20.0000727,19.500065 L20.0000727,6.500065 C20.0000727,5.10925071 20.0024745,4.05290786 19.9059636,3.17930786 C19.8094545,2.30578214 19.6001091,1.53870786 19.0448182,0.972093571 C18.4895273,0.405479286 17.7386364,0.192297857 16.8839091,0.0943057143 C16.0291818,-0.00368642857 14.9961818,1.60888182e-13 13.6363636,1.60888182e-13 L6.36363636,1.60888182e-13 L6.36363636,1.60063447e-13 Z M6.36363636,1.85714286 L13.6363636,1.85714286 C14.9956364,1.85714286 16.0036364,1.86285329 16.6814545,1.94056943 C17.3592909,2.01828157 17.6324545,2.15399229 17.761,2.285153 C17.8895636,2.416323 18.0236273,2.69535871 18.1001364,3.38783157 C18.1766409,4.08030443 18.1818127,5.11014586 18.1818127,6.50003157 L18.1818127,19.5000316 C18.1818127,20.8898244 18.1766273,21.919703 18.1001364,22.6122316 C18.0236364,23.3047137 17.8895727,23.583703 17.761,23.7149101 C17.6324364,23.8460801 17.3592909,23.9817816 16.6814545,24.0594937 C16.0036091,24.1372059 14.9956364,24.1429203 13.6363636,24.1429203 L6.36363636,24.1429203 C6.00514545,24.1429203 5.73614545,24.1376804 5.42618182,24.1356663 L5.42618182,1.86480914 C5.73619091,1.86279823 6.00519091,1.85755468 6.36363636,1.85755468 L6.36363636,1.85714286 Z M3.66472727,1.92061907 L3.66472727,24.0791191 C3.55979091,24.0710256 3.41106364,24.0697758 3.31849091,24.0591687 C2.64065455,23.9814566 2.36749091,23.8457459 2.23894545,23.7145851 C2.11038182,23.5834151 1.97631818,23.3043887 1.89980909,22.6119066 C1.82330455,21.9194337 1.81813273,20.8895923 1.81813273,19.4997066 L1.81813273,6.49970657 C1.81813273,5.10991371 1.82330436,4.08003514 1.89980909,3.38750657 C1.97631364,2.69503371 2.11037273,2.41603514 2.23894545,2.284828 C2.36750909,2.153658 2.64065455,2.01795657 3.31849091,1.94024443 C3.41106364,1.92963179 3.55979091,1.92839121 3.66472727,1.920295 L3.66472727,1.92061907 Z"></path>
                        <path d="M9.98545455,0.451564286 C9.48406433,0.459567 9.08368337,0.88070854 9.09056364,1.39285714 L9.09056364,11.1428571 C9.0906331,11.4852785 9.27517671,11.7998776 9.57074888,11.9614488 C9.86632105,12.12302 10.2249579,12.1053443 10.5039273,11.9154564 L12.7269273,10.4010493 L14.9499273,11.9154564 C15.2288967,12.1053443 15.5875335,12.12302 15.8831057,11.9614488 C16.1786778,11.7998776 16.3632214,11.4852785 16.3632909,11.1428571 L16.3632909,1.39285714 C16.3679275,1.05798093 16.195677,0.746495876 15.9124974,0.577675687 C15.6293178,0.408855499 15.2790822,0.408855499 14.9959026,0.577675687 C14.712723,0.746495876 14.5404725,1.05798093 14.5451091,1.39285714 L14.5451091,9.40726429 L13.2312,8.51315214 C12.9258296,8.30523956 12.528025,8.30523956 12.2226545,8.51315214 L10.9087455,9.40726429 L10.9087455,1.39285714 C10.9121172,1.14186359 10.8158705,0.900166009 10.6419356,0.722836322 C10.4680008,0.545506635 10.2311939,0.447650281 9.98547273,0.451564286 L9.98545455,0.451564286 Z"></path>
                    </g>
                </g>
            </g>
        </g>
    </g>
</svg>