<svg id="Capa_1" data-name="Capa 1" xmlns="http://www.w3.org/2000/svg" width="344.37" height="326.06" viewBox="0 0 344.37 326.06">
  <defs>
    <style>
      .cls-1 {
        fill: #f49b19;
      }
    </style>
  </defs>
  <title>reset</title>
  <g>
    <path class="cls-1" d="M334.48,37.46a12.5,12.5,0,0,0-14.84,9.6l-9.08,42.39A162.44,162.44,0,0,0,170.37,9.15c-89.6,0-162.5,72.9-162.5,162.5a12.5,12.5,0,0,0,25,0c0-75.82,61.68-137.5,137.5-137.5A137.47,137.47,0,0,1,289.29,102.6l-41.67-8.93a12.5,12.5,0,0,0-5.24,24.45l71.54,15.33a12.5,12.5,0,0,0,14.84-9.6L344.09,52.3A12.5,12.5,0,0,0,334.48,37.46Z" transform="translate(0 -9.15)"/>
    <path class="cls-1" d="M321.91,155.27a12.5,12.5,0,0,0-12.08,12.9,137.5,137.5,0,0,1-132.89,142c-1.53,0-3.05.08-4.58.08A137.48,137.48,0,0,1,55.43,245l43.45,11.65a12.5,12.5,0,0,0,6.47-24.15L34.69,213.59a12.5,12.5,0,0,0-15.31,8.84L.43,293.09a12.5,12.5,0,1,0,24.15,6.48l10.65-39.72a162.43,162.43,0,0,0,137.13,75.36c1.8,0,3.6,0,5.41-.09a162.5,162.5,0,0,0,157-167.77A12.49,12.49,0,0,0,321.91,155.27Z" transform="translate(0 -9.15)"/>
  </g>
</svg>
