<?xml version="1.0" encoding="utf-8"?>
<!-- Generator: Adobe Illustrator 21.0.2, SVG Export Plug-In . SVG Version: 6.00 Build 0)  -->
<svg version="1.1" id="Layer_1" xmlns="http://www.w3.org/2000/svg" xmlns:xlink="http://www.w3.org/1999/xlink" x="0px" y="0px"
	 viewBox="0 0 19 20" style="enable-background:new 0 0 19 20;" xml:space="preserve">
<title>Shape@3x</title>
<desc>Created with Sketch.</desc>
<g id="HOME-SCRREN-V3">
	<g id="HOME-SCREEN-3.3" transform="translate(-1200.000000, -25.000000)">
		<g id="HEADER">
			<g id="SEARCH" transform="translate(1180.000000, 5.000000)">
				<path id="Shape" d="M28.1,35.3c1.7,0,3.3-0.6,4.5-1.6l5.3,5.3l1.1-1.1l-5.3-5.3c1-1.2,1.6-2.8,1.6-4.5c0-3.9-3.2-7.1-7.1-7.1
					S21,24.2,21,28.1S24.2,35.3,28.1,35.3L28.1,35.3L28.1,35.3z M28.1,21.8c3.5,0,6.4,2.9,6.4,6.4s-2.9,6.4-6.4,6.4
					s-6.4-2.9-6.4-6.4S24.6,21.8,28.1,21.8L28.1,21.8L28.1,21.8z"/>
			</g>
		</g>
	</g>
</g>
</svg>
