<?xml version="1.0" encoding="UTF-8"?>
<svg width="19px" height="20px" viewBox="0 0 19 20" version="1.1" xmlns="http://www.w3.org/2000/svg" xmlns:xlink="http://www.w3.org/1999/xlink">
    <!-- Generator: Sketch 46.2 (44496) - http://www.bohemiancoding.com/sketch -->
    <title>Shape@3x</title>
    <desc>Created with Sketch.</desc>
    <defs></defs>
    <g id="HOME-SCRREN-V3" stroke="none" stroke-width="1" fill="none" fill-rule="evenodd">
        <g id="HOME-SCREEN-3.3" transform="translate(-1200.000000, -25.000000)" fill="#333333" stroke="#333333">
            <g id="HEADER">
                <g id="SEARCH" transform="translate(1180.000000, 5.000000)">
                    <path d="M28.1354058,35.2714071 C29.8325057,35.2714071 31.3917797,34.6735103 32.6179428,33.6801452 L37.9375756,39 L39,37.9379069 L33.6799917,32.6180521 C34.6729397,31.3918378 35.2708116,29.8328743 35.2708116,28.1357036 C35.2708116,24.2009264 32.0700188,21 28.1354058,21 C24.2007928,21 21,24.2009264 21,28.1357036 C21,32.0704807 24.2007928,35.2714071 28.1354058,35.2714071 L28.1354058,35.2714071 L28.1354058,35.2714071 Z M28.1354058,21.7511267 C31.6557897,21.7511267 34.5197163,24.6151728 34.5197163,28.1357036 C34.5197163,31.6562344 31.6557897,34.5202804 28.1354058,34.5202804 C24.6150219,34.5202804 21.7510953,31.6562344 21.7510953,28.1357036 C21.7510953,24.6151728 24.6150219,21.7511267 28.1354058,21.7511267 L28.1354058,21.7511267 L28.1354058,21.7511267 Z" id="Shape"></path>
                </g>
            </g>
        </g>
    </g>
</svg>