<svg id="Layer_1" data-name="Layer 1" xmlns="http://www.w3.org/2000/svg" xmlns:xlink="http://www.w3.org/1999/xlink" width="31" height="31" viewBox="0 0 31 31"><defs><style>.cls-1{fill:none;}.cls-2{clip-path:url(#clip-path);}.cls-3{fill:#a9d326;}.cls-4{clip-path:url(#clip-path-4);}.cls-5{opacity:0.6;}.cls-6{clip-path:url(#clip-path-5);}.cls-7{fill:#a4bc19;}.cls-8{fill:#fff;}</style><clipPath id="clip-path"><rect class="cls-1" x="0.02" y="0.06" width="30.85" height="30.85"/></clipPath><clipPath id="clip-path-4"><circle class="cls-1" cx="15.45" cy="15.48" r="15.43"/></clipPath><clipPath id="clip-path-5"><rect class="cls-1" x="9.7" y="10.12" width="20.7" height="20.75"/></clipPath></defs><title>Share</title><g id="Vector_Smart_Object" data-name="Vector Smart Object"><g class="cls-2"><g class="cls-2"><g class="cls-2"><path class="cls-3" d="M0,15.48A15.43,15.43,0,1,1,15.45,30.91,15.43,15.43,0,0,1,0,15.48"/></g><g class="cls-4"><g class="cls-5"><g class="cls-6"><path class="cls-7" d="M20.05,10.13,30.39,20.37V30.84l-12.87,0L10,23.39s-1-4,.67-6.36,6.12-2.31,8.24-3.64c1.35-.85,1.13-3.42,1.13-3.27"/></g></g></g><g class="cls-2"><path class="cls-8" d="M24,14,19.53,9.54a.56.56,0,0,0-1,.39v2.25h-2q-6.25,0-7.68,3.54a8,8,0,0,0-.46,2.92,10.53,10.53,0,0,0,1.11,4l.09.21.12.26a1,1,0,0,0,.11.19.3.3,0,0,0,.25.15.26.26,0,0,0,.21-.09.33.33,0,0,0,.07-.22,1.8,1.8,0,0,0,0-.23,1.81,1.81,0,0,1,0-.21q0-.6,0-1.08A7.46,7.46,0,0,1,10.5,20a4.77,4.77,0,0,1,.43-1.22,3.05,3.05,0,0,1,.7-.89,4.11,4.11,0,0,1,.93-.61,5,5,0,0,1,1.17-.37,11.12,11.12,0,0,1,1.35-.19q.68-.05,1.54-.05h2v2.25a.56.56,0,0,0,1,.39L24,14.82A.55.55,0,0,0,24,14"/></g></g></g></g></svg>