<svg id="Layer_1" data-name="Layer 1" xmlns="http://www.w3.org/2000/svg" width="20" height="14" viewBox="0 0 20 14">
  <defs>
    <style>
      .cls-1 {
        fill: #b4ea1f;
      }
    </style>
  </defs>
  <title>Share-active</title>
  <g id="HOME-SCRREN-V3">
    <g id="HOME-SCREEN-3.3">
      <g id="Group-82">
        <g id="Group-81">
          <g id="Group-20">
            <path id="Shape" class="cls-1" d="M12.33,0a.44.44,0,0,1,.22.1l7.27,6a.5.5,0,0,1,0,.76l-7.27,6a.43.43,0,0,1-.48.05.49.49,0,0,1-.26-.43V9.91c-1.2,0-6.93.13-11.07,4a.43.43,0,0,1-.55,0A.5.5,0,0,1,0,13.37c1.9-6.21,7.69-8.94,11.8-10.11V.49A.5.5,0,0,1,12,.12.44.44,0,0,1,12.33,0Z" transform="translate(0 0)"/>
          </g>
        </g>
      </g>
    </g>
  </g>
</svg>
