<?xml version="1.0" encoding="UTF-8"?>
<svg width="63px" height="71px" viewBox="0 0 63 71" version="1.1" xmlns="http://www.w3.org/2000/svg" xmlns:xlink="http://www.w3.org/1999/xlink">
    <!-- Generator: Sketch 49.2 (51160) - http://www.bohemiancoding.com/sketch -->
    <title>Group 45</title>
    <desc>Created with Sketch.</desc>
    <defs></defs>
    <g id="Page-1" stroke="none" stroke-width="1" fill="none" fill-rule="evenodd">
        <g id="Group-45" transform="translate(0.000000, 2.000000)" fill-rule="nonzero">
            <g id="Group-44-Copy" transform="translate(0.000000, 9.000000)" fill="#fff">
                <g id="user-(3)">
                    <path d="M36.6991224,38.8148397 C36.651451,38.8097027 29.7482355,39.0127298 28.7218366,31.6390743 C29.8623189,30.8458792 30.9134321,29.8161499 31.8394517,28.5666983 C33.6408915,26.1359768 34.8016371,23.0867173 35.2151015,19.7884313 C35.3571786,19.6603573 35.4747759,19.5009944 35.5539549,19.3131447 C36.302056,17.5368034 36.681436,15.6400934 36.681436,13.6754353 C36.681436,6.13482818 30.9748075,0 23.9599684,0 C22.1253812,0 20.3454932,0.42123166 18.6644618,1.25307079 C18.023182,1.30187202 17.3947864,1.41430164 16.7921592,1.58779118 C13.911144,2.41752882 11.5666955,4.54668675 10.1905502,7.58333738 C8.85457996,10.5317255 8.59127459,14.002567 9.4493596,17.3566591 C9.63067486,18.0652109 9.86118419,18.761504 10.1345626,19.4267419 C10.208588,19.6066526 10.3189232,19.760178 10.4513958,19.8865008 C11.1211378,25.0345635 13.5786156,29.300001 16.929434,31.6288003 C15.8998726,39.0149481 8.9991168,38.8099362 8.95156254,38.8150732 C3.98741306,38.9829587 0,43.0578614 0,48.0460942 L0,58.4298982 C0,59.1732413 0.604501331,59.7757848 1.3502599,59.7757848 L13.2073175,59.7757848 L32.443016,59.7757848 L44.3003079,59.7757848 C45.0459493,59.7757848 45.6506849,59.1732413 45.6506849,58.4298982 L45.6506849,48.0460942 C45.6505678,43.0576279 41.6635061,38.9826085 36.6991224,38.8148397 Z M17.5419001,4.17390607 C18.0346606,4.03193886 18.5550635,3.94776257 19.088702,3.92382896 C19.2867667,3.91495601 19.4803804,3.86276905 19.6559564,3.77077056 C21.0229657,3.05486353 22.4711452,2.6918898 23.9600855,2.6918898 C29.4855158,2.6918898 33.9809162,7.61906268 33.9809162,13.6754353 C33.9809162,13.857214 33.9757625,14.0380588 33.9677977,14.218203 C32.8960699,13.1333681 31.4070125,12.4591406 29.7626424,12.4591406 L20.5597216,12.4591406 C20.0121448,12.4591406 19.4924447,12.2877525 19.0566087,11.9634228 C18.6844908,11.6866101 18.3968226,11.3145299 18.2249948,10.8874608 C17.9588783,10.2268929 17.3027232,9.81371699 16.5884723,9.858432 C15.8716445,9.90396424 15.2684316,10.400149 15.0873506,11.0935234 C14.5540635,13.13617 13.4906519,15.0177026 12.0316965,16.5434999 C10.6741746,10.9746725 13.1241561,5.44612375 17.5419001,4.17390607 Z M16.367099,27.4524425 C14.6100511,25.3128939 13.4593785,22.4236977 13.0946397,19.2606075 C14.7985112,17.7469522 16.1454915,15.8633181 17.0224342,13.7739717 C17.1554924,13.8963251 17.295227,14.0120237 17.4411694,14.1207173 C18.3472772,14.7947113 19.4255642,15.1511471 20.5598387,15.1511471 L29.7627595,15.1511471 C31.0648795,15.1511471 32.1872069,15.9296318 32.6880493,17.0437708 C32.6879322,17.0533443 32.6865267,17.0624507 32.6865267,17.0720242 C32.6865267,24.6698385 28.2637461,30.8511329 22.8273337,30.8511329 C20.4613335,30.8512497 18.166899,29.6441781 16.367099,27.4524425 Z M19.4697217,32.9505197 C20.5401611,33.3366098 21.6661195,33.5431395 22.8273337,33.5431395 C23.9792946,33.5431395 25.1047845,33.3432646 26.1822516,32.9576415 C26.676652,35.5250764 28.1087848,37.7628113 30.1092263,39.303319 L23.0188391,49.3680471 C22.9725733,49.4337769 22.9082696,49.4670505 22.827685,49.4670505 C22.7472176,49.4670505 22.6829139,49.4336602 22.6367652,49.3681638 L15.5446211,39.3011007 C17.5451797,37.7588418 18.9768441,35.5194725 19.4697217,32.9505197 Z M42.9499309,57.0837782 L32.443016,57.0837782 L13.2073175,57.0837782 L2.7005198,57.0837782 L2.7005198,48.0458607 C2.7005198,44.4357372 5.64712705,41.4986738 9.26898137,41.4986738 C9.31817544,41.4986738 11.4910303,41.4460198 13.2079031,40.6683524 L20.4264291,50.914976 C20.9750601,51.6939276 21.8727346,52.1589403 22.8275679,52.1589403 C22.8275679,52.1589403 22.8275679,52.1589403 22.827685,52.1589403 C23.7824012,52.1589403 24.6801929,51.6939276 25.2288238,50.914976 L32.4460614,40.6699869 C34.4041022,41.4987905 36.3323924,41.4987905 36.3815864,41.4987905 C40.0034408,41.4987905 42.9499309,44.435854 42.9499309,48.0459774 L42.9499309,57.0837782 Z" id="Shape"></path>
                </g>
            </g>
            <g id="demostration" transform="translate(32.000000, 0.000000)">
                <path d="M12,17.5853861 L12,7.19043868 C12.6002416,6.99098601 13.2618639,6.75568767 13.9728536,6.47938066 C16.846909,5.36259721 21.1157619,3.33831562 25.2980769,0 L25.2980769,25.1538462 C22.2309645,22.7057316 16.8900237,19.5153077 12,17.5853861 Z M11,17.2063316 C9.57979102,16.6909588 8.2150812,16.2971986 6.9757781,16.0764359 C4,11.5 1.5,9.5 0,8.5 C4.42131214,8.5 8.0879788,8.15550113 11,7.46650339 L11,17.2063316 Z" id="Combined-Shape" stroke="#fff" stroke-width="2" stroke-linecap="round"></path>
                <path d="M28.2431697,8.03525641 L27.7435897,8.03525641 L27.7435897,17.4679487 L28.2431697,17.4679487 C29.5087556,17.4679487 30.5384615,16.3636458 30.5384615,15.0062265 L30.5384615,10.4969122 C30.5384615,9.13955929 29.5087556,8.03525641 28.2431697,8.03525641 Z" id="Shape" fill="#fff"></path>
            </g>
        </g>
    </g>
</svg>