<svg id="Layer_1" data-name="Layer 1" xmlns="http://www.w3.org/2000/svg" width="50" height="50" viewBox="0 0 50 50"><defs><style>.cls-1{fill:#2bb1ef;}.cls-2{fill:#fff;}</style></defs><title>Untitled-2</title><circle class="cls-1" cx="24.95" cy="24.98" r="24.64"/><path class="cls-2" d="M25.66,13.56l3.29,6.66a.79.79,0,0,0,.59.43l7.35,1.07a.79.79,0,0,1,.44,1.34L32,28.24a.79.79,0,0,0-.23.7L33,36.25a.79.79,0,0,1-1.14.83l-6.57-3.46a.79.79,0,0,0-.73,0L18,37.08a.79.79,0,0,1-1.14-.83l1.26-7.32a.79.79,0,0,0-.23-.7l-5.32-5.18A.79.79,0,0,1,13,21.71l7.35-1.07a.79.79,0,0,0,.59-.43l3.29-6.66A.79.79,0,0,1,25.66,13.56Z"/></svg>