<svg id="Layer_1" data-name="Layer 1" xmlns="http://www.w3.org/2000/svg" width="21.7" height="21.7" viewBox="0 0 21.7 21.7"><defs><style>.cls-1{fill:#e59e38;}</style></defs><title>store</title><path class="cls-1" d="M2.86,4.71H4.62l2.51,9.06a.61.61,0,0,0,.59.45h7.7a.61.61,0,0,0,.56-.37l2.8-6.44a.62.62,0,0,0-.05-.58.61.61,0,0,0-.51-.28H9.71a.61.61,0,0,0,0,1.23h7.57L15,13H8.18L5.67,3.94a.61.61,0,0,0-.59-.45H2.86a.61.61,0,1,0,0,1.23Z"/><path class="cls-1" d="M7.14,18.54a1.39,1.39,0,1,0-1.39-1.39A1.39,1.39,0,0,0,7.14,18.54Z"/><path class="cls-1" d="M15.83,18.54h.1a1.44,1.44,0,1,0-.1,0Z"/></svg>