<?xml version="1.0" encoding="UTF-8"?>
<svg width="72px" height="54px" viewBox="0 0 72 54" version="1.1" xmlns="http://www.w3.org/2000/svg" xmlns:xlink="http://www.w3.org/1999/xlink">
    <!-- Generator: Sketch 49.2 (51160) - http://www.bohemiancoding.com/sketch -->
    <title>Group 44</title>
    <desc>Created with Sketch.</desc>
    <defs></defs>
    <g id="Page-1" stroke="none" stroke-width="1" fill="none" fill-rule="evenodd">
        <g id="Group-44" transform="translate(0.000000, -4.000000)">
            <g id="Group-43" transform="translate(51.702647, 23.220401) rotate(-6.000000) translate(-51.702647, -23.220401) translate(30.702647, 2.720401)">
                <g id="sun" transform="translate(21.000000, 20.500000) rotate(1.000000) translate(-21.000000, -20.500000) translate(1.000000, 1.000000)" fill="#fff" fill-rule="nonzero">
                    <path d="M38.3875969,21 L33.6124031,21 C32.744186,21 32,21.6923077 32,22.5 C32,23.3076923 32.744186,24 33.6124031,24 L38.3875969,24 C39.255814,24 40,23.3076923 40,22.5 C40,21.6923077 39.255814,21 38.3875969,21 Z" id="Shape"></path>
                    <path d="M32.5754717,36.5377358 L29.4622642,33.4245283 C28.9528302,32.8584906 27.990566,32.8584906 27.4245283,33.4245283 C26.8584906,33.990566 26.8584906,34.8962264 27.4245283,35.4622642 L30.5377358,38.5754717 C31.1037736,39.1415094 32.009434,39.1415094 32.5754717,38.5754717 C33.1415094,38.009434 33.1415094,37.1037736 32.5754717,36.5377358 Z" id="Shape"></path>
                    <path d="M16.5,0 C15.6923077,0 15,0.744186047 15,1.6124031 L15,6.3875969 C15,7.25581395 15.6923077,8 16.5,8 C17.3076923,8 18,7.25581395 18,6.3875969 L18,1.6124031 C18,0.744186047 17.3076923,0 16.5,0 Z" id="Shape"></path>
                    <path d="M32.5754717,6.4245283 C32.009434,5.85849057 31.1037736,5.85849057 30.5377358,6.4245283 L27.4245283,9.53773585 C26.8584906,10.1037736 26.8584906,11.009434 27.4245283,11.5754717 C27.9339623,12.1415094 28.8962264,12.1415094 29.4622642,11.5754717 L32.5754717,8.46226415 C33.1415094,7.89622642 33.1415094,6.99056604 32.5754717,6.4245283 Z" id="Shape"></path>
                    <path d="M5.5754717,9.53773585 L2.46226415,6.4245283 C1.89622642,5.85849057 0.990566038,5.85849057 0.424528302,6.4245283 C-0.141509434,6.99056604 -0.141509434,7.89622642 0.424528302,8.46226415 L3.53773585,11.5754717 C4.10377358,12.1415094 5.00943396,12.1415094 5.5754717,11.5754717 C6.14150943,11.009434 6.14150943,10.1037736 5.5754717,9.53773585 Z" id="Shape"></path>
                </g>
                <path d="M18,34 C23.5228475,34 28,29.5228475 28,24 C28,18.4771525 23.5228475,14 18,14 C14.6782951,14 11.7348594,15.6195632 9.91626652,18.1121159" id="Oval-15" stroke="#fff" stroke-width="2.5"></path>
            </g>
            <g id="Group-46" transform="translate(0.000000, 25.000000)" fill="#fff" fill-rule="nonzero">
                <g id="envelope-(1)">
                    <path d="M42.1402609,0 L5.86964276,0 C2.63190411,0 0,2.3776509 0,5.30261011 L0,27.6973899 C0,30.6223491 2.63190411,33 5.86964276,33 L42.1303292,33 C45.3680679,33 47.999972,30.6223491 47.999972,27.6973899 L47.999972,5.31158238 C48.0099037,2.38662316 45.3779996,0 42.1402609,0 Z M45.328341,27.6973899 C45.328341,29.2854812 43.8981743,30.5774878 42.1402609,30.5774878 L5.86964276,30.5774878 C4.11172944,30.5774878 2.68156268,29.2854812 2.68156268,27.6973899 L2.68156268,5.31158238 C2.68156268,3.72349103 4.11172944,2.4314845 5.86964276,2.4314845 L42.1303292,2.4314845 C43.8882425,2.4314845 45.3184093,3.72349103 45.3184093,5.31158238 L45.3184093,27.6973899 L45.328341,27.6973899 Z" id="Shape"></path>
                    <path d="M30.7296241,16.2130463 L42.564697,6.63645009 C43.1153984,6.18472385 43.1654621,5.41678925 42.6648245,4.91085586 C42.1641869,4.413957 41.313103,4.36878437 40.7523889,4.82051061 L24.4316031,18.0380203 L21.2475479,15.4722153 C21.2375352,15.4631808 21.2275224,15.4541463 21.2275224,15.4451117 C21.1574331,15.3818701 21.0873439,15.3276629 21.0072419,15.2734558 L8.05074073,4.81147609 C7.49002662,4.35974985 6.6389427,4.40492247 6.1383051,4.91085586 C5.63766749,5.41678925 5.68773125,6.18472385 6.24844537,6.63645009 L18.2236968,16.2943571 L6.29850913,26.3678522 C5.75782052,26.8286129 5.72778226,27.5965475 6.23843262,28.0934464 C6.50877692,28.3464131 6.86923599,28.481931 7.22969507,28.481931 C7.56011588,28.481931 7.8905367,28.3735167 8.15086825,28.1566881 L20.2562855,17.9386406 L23.5404681,20.5857563 C23.8007997,20.7935504 24.1212077,20.8929302 24.4416158,20.8929302 C24.7620239,20.8929302 25.0924447,20.7845159 25.3427635,20.5767218 L28.7170609,17.8482953 L40.7523889,28.1657226 C41.0127204,28.3915857 41.353154,28.5 41.6835748,28.5 C42.0440339,28.5 42.3944802,28.3735167 42.6648245,28.12055 C43.1754749,27.6326856 43.1554494,26.8557165 42.6147608,26.3949557 L30.7296241,16.2130463 Z" id="Shape"></path>
                </g>
            </g>
        </g>
    </g>
</svg>