<svg id="Layer_1" data-name="Layer 1" xmlns="http://www.w3.org/2000/svg" viewBox="0 0 493 510.56"><defs><style>.cls-1{fill:#fff;}</style></defs><title>TERMS AND CONDITIONS</title><path class="cls-1" d="M40.58,448a11,11,0,0,1-11-11V-1h377V60a11,11,0,1,1-22,0V21h-333V437A11,11,0,0,1,40.58,448Z"/><path class="cls-1" d="M467.49,508h-377V59h255l122,100.82Zm-355-22h333V170.2L337.53,81h-225Z"/><path class="cls-1" d="M311.58,179h-148a11,11,0,1,1,0-22h148a11,11,0,0,1,0,22Z"/><path class="cls-1" d="M311.58,234.51h-148a11,11,0,1,1,0-22h148a11,11,0,0,1,0,22Z"/><path class="cls-1" d="M243.58,290h-80a11,11,0,1,1,0-22h80a11,11,0,0,1,0,22Z"/></svg>