<?xml version="1.0" encoding="UTF-8"?>
<svg width="123px" height="126px" viewBox="0 0 123 126" version="1.1" xmlns="http://www.w3.org/2000/svg" xmlns:xlink="http://www.w3.org/1999/xlink">
    <!-- Generator: Sketch 49.3 (51167) - http://www.bohemiancoding.com/sketch -->
    <title>Thank-you</title>
    <desc>Created with Sketch.</desc>
    <defs>
        <linearGradient x1="49.6507772%" y1="94.8671667%" x2="49.6507764%" y2="-34.165964%" id="linearGradient-1">
            <stop stop-color="#000000" offset="0%"></stop>
            <stop stop-color="#FF61A6" offset="1.01236426%"></stop>
            <stop stop-color="#DE2875" offset="43.5645431%"></stop>
            <stop stop-color="#DB216F" offset="52.5463595%"></stop>
            <stop stop-color="#D39DAE" offset="100%"></stop>
        </linearGradient>
    </defs>
    <g id="Registration" stroke="none" stroke-width="1" fill="none" fill-rule="evenodd">
        <g id="Group-12" fill-rule="nonzero">
            <path d="M53.958,38.167 C53.686,38.167 53.414,38.067 53.201,37.866 L46.536,31.563 C46.323,31.362 46.2,31.085 46.192,30.794 C46.184,30.501 46.292,30.218 46.493,30.005 L52.797,23.34 C53.216,22.898 53.912,22.879 54.355,23.297 L61.02,29.6 C61.233,29.801 61.356,30.078 61.364,30.369 C61.372,30.662 61.264,30.945 61.063,31.158 L54.759,37.823 C54.542,38.052 54.25,38.167 53.958,38.167 Z M48.851,30.719 L53.915,35.507 L58.705,30.443 L53.641,25.655 L48.851,30.719 Z" id="Shape" fill="#FFFFFF"></path>
            <path d="M96.689,89.91 C96.417,89.91 96.145,89.81 95.932,89.609 L89.267,83.306 C89.054,83.105 88.931,82.828 88.923,82.537 C88.915,82.244 89.023,81.961 89.224,81.748 L95.528,75.083 C95.729,74.871 96.006,74.747 96.298,74.739 C96.591,74.736 96.874,74.839 97.086,75.04 L103.751,81.344 C103.964,81.545 104.087,81.822 104.095,82.114 C104.103,82.406 103.995,82.689 103.794,82.902 L97.49,89.566 C97.272,89.795 96.981,89.91 96.689,89.91 Z M91.581,82.462 L96.645,87.25 L101.435,82.187 L96.371,77.398 L91.581,82.462 Z" id="Shape" fill="#FFFFFF"></path>
            <path d="M63.519,25.059 C61.574,25.059 59.991,23.476 59.991,21.531 C59.991,19.586 61.574,18.003 63.519,18.003 C65.464,18.003 67.047,19.586 67.047,21.531 C67.047,23.476 65.464,25.059 63.519,25.059 Z M63.519,20.206 C62.788,20.206 62.194,20.8 62.194,21.531 C62.194,22.262 62.788,22.856 63.519,22.856 C64.25,22.856 64.844,22.262 64.844,21.531 C64.844,20.8 64.249,20.206 63.519,20.206 Z" id="Shape" fill="#FFFFFF"></path>
            <path d="M22.751,108.799 C20.806,108.799 19.223,107.216 19.223,105.271 C19.223,103.326 20.806,101.743 22.751,101.743 C24.696,101.743 26.279,103.326 26.279,105.271 C26.279,107.216 24.696,108.799 22.751,108.799 Z M22.751,103.946 C22.02,103.946 21.426,104.54 21.426,105.271 C21.426,106.002 22.02,106.596 22.751,106.596 C23.482,106.596 24.076,106.002 24.076,105.271 C24.076,104.54 23.481,103.946 22.751,103.946 Z" id="Shape" fill="#FFFFFF"></path>
            <path d="M70.364,29.521 C70.236,29.521 70.107,29.499 69.98,29.452 C69.41,29.24 69.119,28.606 69.331,28.036 L79.248,1.316 C79.46,0.745 80.095,0.453 80.665,0.666 C81.235,0.878 81.526,1.512 81.314,2.082 L71.397,28.802 C71.232,29.247 70.811,29.521 70.364,29.521 Z" id="Shape" fill="#FFFFFF"></path>
            <path d="M117.221,46.198 C116.911,46.198 116.61,46.067 116.399,45.83 L107.908,36.322 C107.648,36.03 107.561,35.623 107.68,35.25 C107.8,34.879 108.108,34.598 108.49,34.513 L121.24,31.671 C121.631,31.588 122.035,31.716 122.301,32.013 C122.567,32.311 122.651,32.729 122.521,33.106 L118.263,45.454 C118.135,45.823 117.822,46.097 117.439,46.175 C117.366,46.191 117.293,46.198 117.221,46.198 Z M110.803,36.256 L116.792,42.962 L119.795,34.253 L110.803,36.256 Z" id="Shape" fill="#FFFFFF"></path>
            <path d="M56.521,122.338 C56.408,122.338 56.294,122.321 56.184,122.285 C55.812,122.164 55.531,121.857 55.446,121.476 L52.606,108.726 C52.519,108.336 52.65,107.93 52.948,107.664 C53.247,107.398 53.665,107.314 54.041,107.444 L66.389,111.703 C66.759,111.83 67.033,112.144 67.11,112.527 C67.187,112.91 67.055,113.306 66.764,113.566 L57.256,122.057 C57.05,122.241 56.788,122.338 56.521,122.338 Z M55.185,110.17 L57.188,119.163 L63.894,113.174 L55.185,110.17 Z" id="Shape" fill="#FFFFFF"></path>
            <path d="M12.126,80.86 C11.92,80.86 11.715,80.802 11.535,80.688 L0.511,73.681 C0.174,73.467 -0.021,73.088 0.002,72.689 C0.025,72.291 0.261,71.936 0.62,71.76 L12.363,66.04 C12.714,65.87 13.13,65.899 13.456,66.113 C13.781,66.33 13.968,66.703 13.946,67.093 L13.226,79.82 C13.204,80.21 12.976,80.559 12.629,80.738 C12.471,80.82 12.298,80.86 12.126,80.86 Z M3.356,72.878 L11.131,77.82 L11.638,68.844 L3.356,72.878 Z" id="Shape" fill="#FFFFFF"></path>
            <path d="M12.883,49.159 C12.792,49.159 12.7,49.148 12.608,49.123 C12.02,48.971 11.665,48.376 11.815,47.788 C11.839,47.693 14.356,38.33 26.577,37.457 C26.617,37.454 26.658,37.452 26.7,37.455 C27.198,37.466 38.944,37.8 40.439,26.838 C40.521,26.234 41.082,25.82 41.68,25.894 C42.283,25.977 42.705,26.532 42.623,27.135 C41.697,33.926 37.355,36.977 33.877,38.342 C30.43,39.693 27.205,39.664 26.68,39.659 C16.144,40.438 14.036,48.012 13.951,48.335 C13.819,48.83 13.372,49.159 12.883,49.159 Z" id="Shape" fill="#FFFFFF"></path>
            <path d="M86.213,44.597 C84.965,44.597 83.866,44.149 83.013,43.289 C81.944,42.211 81.369,40.54 81.511,38.928 C81.693,36.881 83.395,35.333 86.58,34.31 C83.672,28.553 77.727,25.178 77.651,25.136 C77.119,24.84 76.928,24.169 77.224,23.638 C77.52,23.105 78.189,22.912 78.721,23.21 C79.071,23.404 85.68,27.142 88.776,33.746 C89.706,33.649 95.906,33.24 100.277,37.98 C100.689,38.428 100.661,39.125 100.214,39.537 C99.767,39.949 99.069,39.92 98.657,39.474 C95.536,36.089 91.175,35.855 89.617,35.897 C89.967,37.011 90.209,38.192 90.306,39.438 C90.326,39.667 90.477,41.825 89.227,43.304 C88.593,44.054 87.7,44.495 86.645,44.58 C86.498,44.592 86.354,44.597 86.213,44.597 Z M87.433,36.341 C85.132,37.046 83.804,38.015 83.706,39.122 C83.62,40.09 83.962,41.117 84.578,41.738 C85.063,42.228 85.702,42.451 86.469,42.383 C86.945,42.345 87.286,42.186 87.543,41.882 C88.109,41.213 88.142,39.995 88.109,39.62 C88.019,38.468 87.78,37.374 87.433,36.341 Z" id="Shape" fill="#FFFFFF"></path>
            <path d="M80.559,125.998 C80.233,125.998 79.91,125.854 79.693,125.578 C79.316,125.099 79.399,124.407 79.877,124.031 C83.472,121.199 84.051,116.858 84.141,115.295 C83.004,115.558 81.808,115.707 80.559,115.707 C80.321,115.707 78.165,115.691 76.788,114.332 C76.089,113.642 75.718,112.718 75.716,111.659 C75.713,110.228 76.256,109.011 77.285,108.137 C78.443,107.156 80.152,106.71 81.749,106.979 C83.775,107.318 85.188,109.137 85.962,112.395 C91.937,109.944 95.75,104.271 95.798,104.198 C96.133,103.691 96.818,103.551 97.324,103.887 C97.832,104.223 97.971,104.906 97.636,105.414 C97.415,105.748 93.178,112.048 86.353,114.624 C86.376,115.559 86.306,121.773 81.241,125.762 C81.038,125.92 80.798,125.998 80.559,125.998 Z M80.814,109.105 C80.029,109.105 79.246,109.363 78.71,109.817 C78.184,110.264 77.918,111.084 77.92,111.857 C77.924,113.65 80.258,113.908 80.548,113.908 C80.55,113.908 80.551,113.908 80.553,113.908 C81.707,113.908 82.815,113.553 83.87,113.289 C83.347,110.939 82.482,109.438 81.385,109.254 C81.196,109.223 81.005,109.105 80.814,109.105 Z" id="Shape" fill="#FFFFFF"></path>
            <path d="M36.197,98.882 C35.82,98.882 35.453,98.688 35.247,98.341 L24.238,79.701 C23.928,79.177 24.102,78.501 24.626,78.191 C25.149,77.882 25.825,78.057 26.135,78.579 L37.144,97.219 C37.454,97.743 37.28,98.419 36.756,98.729 C36.58,98.833 36.387,98.882 36.197,98.882 Z" id="Shape" fill="#FFFFFF"></path>
            <path d="M110.897,77.554 C110.4,77.554 109.949,77.216 109.827,76.711 L104.095,53.006 C103.952,52.414 104.316,51.819 104.907,51.676 C105.496,51.532 106.093,51.896 106.237,52.487 L111.969,76.192 C112.112,76.784 111.748,77.379 111.157,77.522 C111.07,77.545 110.983,77.554 110.897,77.554 Z" id="Shape" fill="#FFFFFF"></path>
            <path d="M78.796875,54.0862305 L86.0234375,61.1834961 L86.0234375,86.2363281 C86.0234375,89.9847656 82.9847656,93.0234375 79.2363281,93.0234375 L44.7636719,93.0234375 C41.0152344,93.0234375 37.9765625,89.9847656 37.9765625,86.2363281 L37.9765625,61.1833984 L45.1522461,54.0077148 L78.796875,54.0862305 Z" id="Shape" fill="#EA43AE"></path>
            <path d="M70.103418,77.103418 L78.796875,68.4099609 L78.796875,47.90625 C78.796875,46.2881836 77.4852539,44.9765625 75.8671875,44.9765625 L48.1328125,44.9765625 C46.5147461,44.9765625 45.203125,46.2881836 45.203125,47.90625 L45.203125,68.4099609 L53.896582,77.103418 L62,72.696875 L70.103418,77.103418 Z" id="Shape" fill="#FFFFFF"></path>
            <polygon id="Shape" fill="#6A1C4F" points="78.796875 54.0862305 86.0234375 61.1833984 78.796875 68.4099609"></polygon>
            <polygon id="Shape" fill="#6A1C4F" points="45.203125 54.0862305 37.9765625 61.1833984 45.203125 68.4099609"></polygon>
            <path d="M73.5856445,92.046875 L73.5734375,92.046875 C73.0341797,92.046875 72.596875,92.4841797 72.596875,93.0234375 C72.596875,93.5626953 73.0341797,94 73.5734375,94 L73.5856445,94 C74.1249023,94 74.562207,93.5626953 74.562207,93.0234375 C74.562207,92.4841797 74.1249023,92.046875 73.5856445,92.046875 Z" id="Shape" fill="#000000"></path>
            <path d="M86.7115234,60.4904297 L79.7734375,53.6012695 L79.7734375,47.90625 C79.7734375,45.7523438 78.0210938,44 75.8671875,44 L48.1328125,44 C45.9789063,44 44.2265625,45.7523438 44.2265625,47.90625 L44.2265625,53.5523437 L37.2860352,60.4927734 C37.1029297,60.6760742 37,60.9244141 37,61.1833984 L37,86.2363281 C37,90.5172852 40.4828125,94 44.7636719,94 L69.2199219,94 C69.7591797,94 70.1964844,93.5626953 70.1964844,93.0234375 C70.1964844,92.4841797 69.7591797,92.046875 69.2199219,92.046875 L44.7636719,92.046875 C43.6204102,92.046875 42.5541992,91.7136719 41.6543945,91.1412109 L43.4851563,89.3104492 L58.4841797,89.3104492 C59.0234375,89.3104492 59.4607422,88.8731445 59.4607422,88.3338867 C59.4607422,87.7946289 59.0234375,87.3573242 58.4841797,87.3573242 L45.4381836,87.3573242 L57.087207,75.7083008 C59.7961914,72.9994141 64.2039063,72.9994141 66.9126953,75.7083008 L82.3455078,91.1412109 C81.4458008,91.7136719 80.3795898,92.046875 79.2363281,92.046875 L77.9179688,92.046875 C77.3787109,92.046875 76.9414062,92.4841797 76.9414062,93.0234375 C76.9414062,93.5626953 77.3787109,94 77.9179688,94 L79.2363281,94 C81.2254883,94 83.0416016,93.2473633 84.4167969,92.012793 C84.4504883,91.9869141 84.4833008,91.9595703 84.5141602,91.9287109 C84.5270508,91.9158203 84.5384766,91.9019531 84.5505859,91.8884766 C86.0567383,90.4714844 87,88.4625977 87,86.2363281 L87,61.1833984 C87,60.9232422 86.8961914,60.6737305 86.7115234,60.4904297 Z M84.6399414,61.1858398 L79.7734375,66.0523438 L79.7734375,56.3537109 L84.6399414,61.1858398 Z M44.2265625,66.0523438 L39.3577148,61.1833984 L44.2265625,56.3145508 L44.2265625,66.0523438 Z M38.953125,86.2363281 L38.953125,63.5411133 L52.7226562,77.3107422 L40.2030273,89.8302734 C39.4213867,88.8405273 38.953125,87.5924805 38.953125,86.2363281 Z M55.7061523,74.3272461 L54.1038086,75.9295898 L46.1796875,68.0054688 L46.1796875,47.90625 C46.1796875,46.8292969 47.0558594,45.953125 48.1328125,45.953125 L75.8671875,45.953125 C76.9441406,45.953125 77.8203125,46.8292969 77.8203125,47.90625 L77.8203125,68.0054688 L69.8961914,75.9295898 L68.2938477,74.3272461 C64.8234375,70.8570313 59.1765625,70.8570313 55.7061523,74.3272461 Z M83.796875,89.8303711 L71.2773438,77.3107422 L85.046875,63.5411133 L85.046875,86.2363281 C85.046875,87.5924805 84.5786133,88.840625 83.796875,89.8303711 Z" id="Shape" fill="#000000"></path>
            <path d="M71.0292862,58.5146431 C71.0292862,63.5027739 66.1673921,68.7611115 62.150854,71.6289965 L61.5257037,73 L60.8784323,71.6289965 C56.8618941,68.7611115 52,63.5027739 52,58.5146431 C52,53.2598705 56.2598705,49 61.5146431,49 C66.7694158,49 71.0292862,53.2598705 71.0292862,58.5146431 Z M54.3254604,58.7085229 C54.7515206,58.7085229 55.0969575,58.3632688 55.0968661,57.9371172 C55.0968661,54.817673 57.6347624,52.2797767 60.7542066,52.2797767 C61.1802668,52.2797767 61.5257037,51.9344312 61.5257037,51.5082796 C61.5257037,51.082128 61.1802668,50.7367825 60.7542066,50.7367825 C56.7840132,50.7367825 53.5539633,53.9668324 53.5539633,57.9370258 C53.5539633,58.3631774 53.8994002,58.7085229 54.3254604,58.7085229 Z" id="Combined-Shape" fill="url(#linearGradient-1)"></path>
        </g>
    </g>
</svg>