<?xml version="1.0" encoding="UTF-8"?>
<svg width="14px" height="11px" viewBox="0 0 14 11" version="1.1" xmlns="http://www.w3.org/2000/svg" xmlns:xlink="http://www.w3.org/1999/xlink">
    <!-- Generator: Sketch 46.2 (44496) - http://www.bohemiancoding.com/sketch -->
    <title>Path@3x</title>
    <desc>Created with Sketch.</desc>
    <defs></defs>
    <g id="HOME-SCRREN-V3" stroke="none" stroke-width="1" fill="none" fill-rule="evenodd">
        <g id="HOME-SCREEN-3.3" transform="translate(-149.000000, -6491.000000)" stroke="#E45B80" fill="#E45B80">
            <g id="Group-58" transform="translate(150.000000, 6181.000000)">
                <g id="Group-79" transform="translate(0.000000, 304.000000)">
                    <g id="Group-71">
                        <path d="M11.6083036,7.00330606 C11.5301653,7.01380819 11.4582886,7.04927336 11.4048157,7.1037104 C9.54725554,8.92571981 5.21819448,13.2784439 3.23317293,15.2314448 L0.571766438,13.0275664 C0.480004684,12.950881 0.351511108,12.9260432 0.234877223,12.9624455 C0.118243338,12.9988478 0.0312713114,13.0909342 0.00685074378,13.2038809 C-0.0175698238,13.3168276 0.0242884493,13.4333953 0.116596314,13.5095024 L3.02968511,15.9192226 C3.16826645,16.0342832 3.37926227,16.025393 3.50627501,15.8991417 C5.41524951,14.0267373 10.003824,9.40814258 11.9028254,7.54548949 C12.0052106,7.44689898 12.0292728,7.29813561 11.9626671,7.1755215 C11.8960613,7.05290739 11.7535725,6.98365991 11.6083036,7.00330606 L11.6083036,7.00330606 Z" id="Path"></path>
                    </g>
                </g>
            </g>
        </g>
    </g>
</svg>