<?xml version="1.0" encoding="UTF-8"?>
<svg width="30px" height="19px" viewBox="0 0 30 19" version="1.1" xmlns="http://www.w3.org/2000/svg" xmlns:xlink="http://www.w3.org/1999/xlink">
    <!-- Generator: Sketch 46.2 (44496) - http://www.bohemiancoding.com/sketch -->
    <title>noun_1018031_cc@3x</title>
    <desc>Created with Sketch.</desc>
    <defs></defs>
    <g id="HOME-SCRREN-V3" stroke="none" stroke-width="1" fill="none" fill-rule="evenodd">
        <g id="HOME-SCREEN-3.3" transform="translate(-930.000000, -6893.000000)" fill-rule="nonzero" fill="#333333">
            <g id="Group-27" transform="translate(910.000000, 6868.000000)">
                <g id="noun_1018031_cc" transform="translate(20.000000, 25.000000)">
                    <g id="Group">
                        <path d="M28.78125,0.0612903226 L8.4375,0.0612903226 C3.875,0.0612903226 0.15625,3.70806452 0.15625,8.18225806 L0.15625,17.8967742 C0.15625,18.4790323 0.625,18.9387097 1.21875,18.9387097 L21.59375,18.9387097 C26.15625,18.9387097 29.875,15.2919355 29.875,10.8177419 L29.875,1.10322581 C29.84375,0.520967742 29.375,0.0612903226 28.78125,0.0612903226 Z M28.5,10.8177419 C28.5,14.5564516 25.375,17.6209677 21.5625,17.6209677 L1.5,17.6209677 L1.5,8.21290323 C1.5,4.47419355 4.625,1.40967742 8.4375,1.40967742 L28.5,1.40967742 L28.5,10.8177419 Z" id="Shape"></path>
                        <path d="M13.15625,13.5145161 L18.6875,10.1129032 C19.15625,9.83709677 19.15625,9.13225806 18.6875,8.85645161 L13.15625,5.45483871 C12.65625,5.1483871 12,5.51612903 12,6.0983871 L12,12.8709677 C12,13.483871 12.65625,13.8209677 13.15625,13.5145161 Z" id="Shape"></path>
                    </g>
                </g>
            </g>
        </g>
    </g>
</svg>