<svg id="Layer_1" data-name="Layer 1" xmlns="http://www.w3.org/2000/svg" xmlns:xlink="http://www.w3.org/1999/xlink" width="90" height="96" viewBox="0 0 90 96">
  <defs>
    <style>
      .cls-1, .cls-2, .cls-6 {
        fill: none;
      }

      .cls-2, .cls-5 {
        clip-path: url(#clip-path);
      }

      .cls-3 {
        clip-path: url(#clip-path-2);
      }

      .cls-4 {
        fill: #303030;
      }

      .cls-6 {
        stroke: #fff;
        stroke-miterlimit: 10;
        stroke-width: 2.4px;
      }
    </style>
    <clipPath id="clip-path">
      <rect class="cls-1" width="90" height="96"/>
    </clipPath>
    <clipPath id="clip-path-2">
      <path class="cls-2" d="M87,31.44V78.1a9.06,9.06,0,0,1-9,9.08H70.31V91a2,2,0,0,1-2,2h-6a2,2,0,0,1-2-2V87.16H29.75V91a2,2,0,0,1-2,2h-6a2,2,0,0,1-2-2V87.16H12a9.06,9.06,0,0,1-9-9.07V31.43a9.06,9.06,0,0,1,9-9.08H30.61a15.44,15.44,0,0,1,4.75-6.72L27.75,7.91a2.89,2.89,0,0,1,0-4.07,2.85,2.85,0,0,1,4,0l8.85,8.89a15.07,15.07,0,0,1,8.71,0L58.2,3.84A2.86,2.86,0,0,1,63,5.13a2.89,2.89,0,0,1-.74,2.78l-7.59,7.62a15.45,15.45,0,0,1,4.75,6.72H78a9.06,9.06,0,0,1,9,9.13l0,.06Zm-7.2-1.17a.71.71,0,0,0-.19-.49.65.65,0,0,0-.47-.2H10.86a.68.68,0,0,0-.66.69v49a.71.71,0,0,0,.19.49.65.65,0,0,0,.47.2H79.14a.65.65,0,0,0,.47-.2.71.71,0,0,0,.19-.49l0-49Z"/>
    </clipPath>
  </defs>
  <title>tv</title>
  <g>
    <g class="cls-3">
      <rect class="cls-4" x="-12" y="-12" width="114" height="120"/>
    </g>
    <g class="cls-5">
      <path class="cls-6" d="M87,31.44V78.1a9.06,9.06,0,0,1-9,9.08H70.31V91a2,2,0,0,1-2,2h-6a2,2,0,0,1-2-2V87.16H29.75V91a2,2,0,0,1-2,2h-6a2,2,0,0,1-2-2V87.16H12a9.06,9.06,0,0,1-9-9.07V31.43a9.06,9.06,0,0,1,9-9.08H30.61a15.44,15.44,0,0,1,4.75-6.72L27.75,7.91a2.89,2.89,0,0,1,0-4.07,2.85,2.85,0,0,1,4,0l8.85,8.89a15.07,15.07,0,0,1,8.71,0L58.2,3.84A2.86,2.86,0,0,1,63,5.13a2.89,2.89,0,0,1-.74,2.78l-7.59,7.62a15.45,15.45,0,0,1,4.75,6.72H78a9.06,9.06,0,0,1,9,9.13l0,.06Zm-7.2-1.17a.71.71,0,0,0-.19-.49.65.65,0,0,0-.47-.2H10.86a.68.68,0,0,0-.66.69v49a.71.71,0,0,0,.19.49.65.65,0,0,0,.47.2H79.14a.65.65,0,0,0,.47-.2.71.71,0,0,0,.19-.49l0-49Z"/>
    </g>
  </g>
</svg>
