<?xml version="1.0" encoding="UTF-8"?>
<svg width="20px" height="20px" viewBox="0 0 20 20" version="1.1" xmlns="http://www.w3.org/2000/svg" xmlns:xlink="http://www.w3.org/1999/xlink">
    <!-- Generator: Sketch 46.2 (44496) - http://www.bohemiancoding.com/sketch -->
    <title>Group 56@3x</title>
    <desc>Created with Sketch.</desc>
    <defs></defs>
    <g id="HOME-SCRREN-V3" stroke="none" stroke-width="1" fill="none" fill-rule="evenodd">
        <g id="HOME-SCREEN-3.3" transform="translate(-1173.000000, -89.000000)" fill-rule="nonzero" fill="#333333">
            <g id="SUBHEADER" transform="translate(0.000000, 70.000000)">
                <g id="SHARE" transform="translate(1088.000000, 19.000000)">
                    <g id="bra-twitter" transform="translate(85.000000, 0.000000)">
                        <g id="Group-56">
                            <path d="M10,0 C4.48590909,0 0,4.48590909 0,10 C0,15.5140909 4.48590909,20 10,20 C15.5140909,20 20,15.5140909 20,10 C20,4.48590909 15.5140909,0 10,0 L10,0 Z M10,19.0909091 C4.98727273,19.0909091 0.909090909,15.0127273 0.909090909,10 C0.909090909,4.98727273 4.98727273,0.909090909 10,0.909090909 C15.0127273,0.909090909 19.0909091,4.98727273 19.0909091,10 C19.0909091,15.0127273 15.0127273,19.0909091 10,19.0909091 L10,19.0909091 Z" id="Shape"></path>
                            <path d="M16.0613636,5.41727273 C15.56,5.71454545 15.0045455,5.93136364 14.4127273,6.04681818 C13.9386364,5.54272727 13.265,5.22727273 12.5181818,5.22727273 C11.0840909,5.22727273 9.92181818,6.38954545 9.92181818,7.82318182 C9.92181818,8.02545455 9.94545455,8.22454545 9.99,8.41409091 C7.83227273,8.30545455 5.91909091,7.27272727 4.63909091,5.70227273 C4.41590909,6.08681818 4.28863636,6.53227273 4.28863636,7.00636364 C4.28863636,7.90727273 4.74545455,8.70181818 5.44272727,9.16727273 C5.01772727,9.15409091 4.61681818,9.03681818 4.26636364,8.84272727 L4.26636364,8.87590909 C4.26636364,10.1331818 5.16136364,11.1813636 6.34863636,11.4204545 C6.13090909,11.4786364 5.90136364,11.51 5.66590909,11.51 C5.49818182,11.51 5.33545455,11.495 5.17681818,11.4645455 C5.50727273,12.4963636 6.46590909,13.2454545 7.60090909,13.2659091 C6.71272727,13.9613636 5.59409091,14.3772727 4.37772727,14.3772727 C4.16772727,14.3772727 3.96045455,14.365 3.75818182,14.3409091 C4.90636364,15.0763636 6.27090909,15.5063636 7.73727273,15.5063636 C12.5122727,15.5063636 15.1231818,11.5531818 15.1231818,8.12227273 C15.1231818,8.01090909 15.1195455,7.89818182 15.115,7.78727273 C15.6227273,7.42181818 16.0622727,6.965 16.41,6.44318182 C15.9454545,6.65 15.4440909,6.78954545 14.9186364,6.85227273 C15.4554545,6.53227273 15.8668182,6.02363636 16.0613636,5.41727273 L16.0613636,5.41727273 Z" id="Shape"></path>
                        </g>
                    </g>
                </g>
            </g>
        </g>
    </g>
</svg>