<?xml version="1.0" encoding="UTF-8"?>
<svg width="35px" height="33px" viewBox="0 0 35 33" version="1.1" xmlns="http://www.w3.org/2000/svg" xmlns:xlink="http://www.w3.org/1999/xlink">
    <!-- Generator: Sketch 49.3 (51167) - http://www.bohemiancoding.com/sketch -->
    <title>warning</title>
    <desc>Created with Sketch.</desc>
    <defs></defs>
    <g id="Registration" stroke="none" stroke-width="1" fill="none" fill-rule="evenodd">
        <g id="warning" fill-rule="nonzero">
            <path d="M33.3857237,25.4427485 L21.0460088,3.21652599 C20.3092279,1.88622722 18.9789291,1.08811617 17.4644351,1.08811617 C15.9499412,1.08811617 14.6196424,1.88622722 13.8828615,3.21652599 L1.56361271,25.4222824 L1.54314657,25.4427485 C0.826900072,26.732115 0.867695901,28.246609 1.6046132,29.5155094 C2.34139406,30.7640118 3.67169283,31.5212588 5.12472019,31.5212588 L29.8041501,31.5212588 C31.2571775,31.5212588 32.5875445,30.7640118 33.3242571,29.5155094 C34.0611062,28.246609 34.1019702,26.732115 33.3857237,25.4427485 Z" id="Shape" fill="#FEDB41"></path>
            <path d="M33.3242571,29.5155094 C32.5874762,30.7640118 31.2571775,31.5212588 29.8041501,31.5212588 L17.4644351,31.5212588 L17.4644351,1.08811617 C18.9789291,1.08811617 20.3092279,1.88622722 21.0460088,3.21652599 L33.3857237,25.4427485 C34.1019702,26.732115 34.0611062,28.246609 33.3242571,29.5155094 Z" id="Shape" fill="#FCBF29"></path>
            <g id="Group" transform="translate(15.417822, 5.935179)" fill="#57555C">
                <path d="M4.09322699,19.4462392 C4.09322699,20.5718766 3.17225092,21.4928527 2.04661349,21.4928527 C0.920976072,21.4928527 0,20.5718766 0,19.4462392 C0,18.3206018 0.920976072,17.3996257 2.04661349,17.3996257 C3.17225092,17.3996257 4.09322699,18.3206018 4.09322699,19.4462392 Z" id="Shape"></path>
                <path d="M4.09322699,2.05002452 L4.09322699,12.283092 C4.09322699,13.4087294 3.17225092,14.3297055 2.04661349,14.3297055 C0.920976072,14.3297055 0,13.4087294 0,12.283092 L0,2.05002452 C0,0.924387095 0.920976072,0.00341102249 2.04661349,0.00341102249 C3.17225092,0.00341102249 4.09322699,0.924387095 4.09322699,2.05002452 Z" id="Shape"></path>
            </g>
            <path d="M34.2862337,24.9515613 L21.9465187,2.70487261 C21.0255426,1.06758182 19.3472513,0.0648094273 17.4644351,0.0648094273 C15.581619,0.0648094273 13.9033277,1.06765004 12.9823516,2.70487261 L0.642636637,24.9515613 C-0.237407165,26.547988 -0.21687281,28.4513386 0.724569397,30.0270945 C1.64547725,31.6030551 3.30323418,32.5445656 5.12472019,32.5445656 L29.8041501,32.5445656 C31.6256361,32.5445656 33.283393,31.6030551 34.2043009,30.0271628 C35.1458113,28.4513386 35.1662775,26.547988 34.2862337,24.9515613 Z M32.4442133,28.9834581 C31.8916959,29.9248321 30.888787,30.4979521 29.8041501,30.4979521 L5.12472019,30.4979521 C4.04008326,30.4979521 3.0371062,29.9248321 2.484657,28.9834581 C2.19813111,28.4921344 2.05479995,27.9601513 2.05479995,27.4280318 C2.05479995,26.9163785 2.17759676,26.4047251 2.44365651,25.9339358 L14.7833715,3.70771323 C15.3360253,2.70487261 16.3387977,2.11142292 17.4644351,2.11142292 C18.5900726,2.11142292 19.592845,2.70487261 20.1454988,3.70771323 L32.4852138,25.9339358 C33.0173333,26.8959123 32.9968672,28.0420159 32.4442133,28.9834581 Z" id="Shape" fill="#FD4E26"></path>
            <g id="Group" transform="translate(17.464435, 5.935179)" fill="#3C3A41">
                <path d="M2.04661349,19.4462392 C2.04661349,20.5718766 1.12563742,21.4928527 0,21.4928527 L0,17.3996257 C1.12563742,17.3996257 2.04661349,18.3206018 2.04661349,19.4462392 Z" id="Shape"></path>
                <path d="M2.04661349,2.05002452 L2.04661349,12.283092 C2.04661349,13.4087294 1.12563742,14.3297055 0,14.3297055 L0,0.00341102249 C1.12563742,0.00341102249 2.04661349,0.924387095 2.04661349,2.05002452 Z" id="Shape"></path>
            </g>
            <path d="M34.2043009,30.0271628 C33.283393,31.6031234 31.6257043,32.5445656 29.8041501,32.5445656 L17.4644351,32.5445656 L17.4644351,30.4979521 L29.8041501,30.4979521 C30.888787,30.4979521 31.8917641,29.9248321 32.4442133,28.9834581 C32.9968672,28.0419477 33.0173333,26.8958441 32.4852138,25.9338675 L20.1454988,3.70771323 C19.592845,2.70487261 18.5900726,2.11142292 17.4644351,2.11142292 L17.4644351,0.0648094273 C19.3472513,0.0648094273 21.0255426,1.06765004 21.9465187,2.70487261 L34.2862337,24.9515613 C35.1662775,26.547988 35.1458113,28.4513386 34.2043009,30.0271628 Z" id="Shape" fill="#FD3018"></path>
        </g>
    </g>
</svg>