<?xml version="1.0" encoding="UTF-8"?>
<svg width="20px" height="20px" viewBox="0 0 20 20" version="1.1" xmlns="http://www.w3.org/2000/svg" xmlns:xlink="http://www.w3.org/1999/xlink">
    <!-- Generator: Sketch 46.2 (44496) - http://www.bohemiancoding.com/sketch -->
    <title>bra-youtube@3x</title>
    <desc>Created with Sketch.</desc>
    <defs></defs>
    <g id="HOME-SCRREN-V3" stroke="none" stroke-width="1" fill="none" fill-rule="evenodd">
        <g id="HOME-SCREEN-3.3" transform="translate(-1280.000000, -89.000000)" fill-rule="nonzero" fill="#333333">
            <g id="SUBHEADER" transform="translate(0.000000, 70.000000)">
                <g id="SHARE" transform="translate(1088.000000, 19.000000)">
                    <g id="bra-youtube" transform="translate(192.000000, 0.000000)">
                        <path d="M10,0 C4.48590909,0 0,4.48590909 0,10 C0,15.5140909 4.48590909,20 10,20 C15.5140909,20 20,15.5140909 20,10 C20,4.48590909 15.5140909,0 10,0 L10,0 Z M10,19.0909091 C4.98727273,19.0909091 0.909090909,15.0127273 0.909090909,10 C0.909090909,4.98727273 4.98727273,0.909090909 10,0.909090909 C15.0127273,0.909090909 19.0909091,4.98727273 19.0909091,10 C19.0909091,15.0127273 15.0127273,19.0909091 10,19.0909091 L10,19.0909091 Z" id="Shape"></path>
                        <polygon id="Shape" points="6.54636364 8.93636364 7.47590909 8.93636364 7.47590909 6.48363636 8.55727273 3.02454545 7.61363636 3.02454545 7.03772727 5.38818182 6.97954545 5.38818182 6.37727273 3.02454545 5.44090909 3.02454545 6.54636364 6.59409091"></polygon>
                        <path d="M8.51545455,7.83272727 C8.51545455,8.20272727 8.62272727,8.49863636 8.83954545,8.71772727 C9.05636364,8.93590909 9.345,9.04636364 9.70590909,9.04636364 C10.0822727,9.04636364 10.3763636,8.94 10.5895455,8.72772727 C10.8027273,8.51545455 10.9095455,8.22272727 10.9095455,7.84863636 L10.9095455,5.59727273 C10.9095455,5.26454545 10.8013636,4.99272727 10.5831818,4.78181818 C10.3654545,4.57 10.0854545,4.465 9.74318182,4.465 C9.36818182,4.465 9.07,4.565 8.84772727,4.76545455 C8.62636364,4.965 8.515,5.23409091 8.515,5.57181818 L8.515,7.83272727 L8.51545455,7.83272727 Z M9.36454545,5.53954545 C9.36454545,5.44409091 9.395,5.36727273 9.45772727,5.30909091 C9.52181818,5.25045455 9.60363636,5.22136364 9.70363636,5.22136364 C9.81227273,5.22136364 9.90181818,5.25045455 9.96954545,5.30909091 C10.0359091,5.36727273 10.0695455,5.44409091 10.0695455,5.53954545 L10.0695455,7.915 C10.0695455,8.03227273 10.0363636,8.12454545 9.97090909,8.19045455 C9.90454545,8.25818182 9.81590909,8.29090909 9.70363636,8.29090909 C9.59454545,8.29090909 9.51045455,8.25863636 9.45181818,8.19363636 C9.39272727,8.12727273 9.36454545,8.03545455 9.36454545,7.915 L9.36454545,5.53954545 L9.36454545,5.53954545 Z" id="Shape"></path>
                        <path d="M12.1877273,8.99909091 C12.3431818,8.99909091 12.5022727,8.95227273 12.6668182,8.86 C12.8313636,8.76772727 12.9895455,8.63181818 13.1413636,8.45454545 L13.1413636,8.93636364 L13.9672727,8.93636364 L13.9672727,4.57454545 L13.1413636,4.57454545 L13.1413636,7.885 C13.0640909,7.98090909 12.9795455,8.05909091 12.8863636,8.11954545 C12.7940909,8.18181818 12.7172727,8.21181818 12.6568182,8.21181818 C12.5795455,8.21181818 12.5227273,8.18863636 12.4890909,8.14272727 C12.4540909,8.09681818 12.4368182,8.02181818 12.4368182,7.91772727 L12.4368182,4.575 L11.6109091,4.575 L11.6109091,8.22090909 C11.6109091,8.48 11.6604545,8.67545455 11.7572727,8.80409091 C11.8536364,8.93454545 11.9972727,8.99909091 12.1877273,8.99909091 L12.1877273,8.99909091 Z" id="Shape"></path>
                        <path d="M11.1604545,12.6390909 C11.1131818,12.6390909 11.0663636,12.65 11.0190909,12.6731818 C10.9722727,12.6972727 10.9277273,12.7327273 10.8813636,12.7804545 L10.8813636,14.9813636 C10.9359091,15.0395455 10.9872727,15.08 11.0395455,15.1054545 C11.0909091,15.1313636 11.145,15.1436364 11.2018182,15.1436364 C11.2827273,15.1436364 11.3436364,15.1186364 11.3813636,15.0695455 C11.42,15.0195455 11.44,14.9386364 11.44,14.8259091 L11.44,13.0031818 C11.44,12.8840909 11.4163636,12.7936364 11.3677273,12.7318182 C11.32,12.6704545 11.2504545,12.6390909 11.1604545,12.6390909 L11.1604545,12.6390909 Z" id="Shape"></path>
                        <path d="M13.6168182,12.6518182 C13.5109091,12.6518182 13.4340909,12.6836364 13.3881818,12.7477273 C13.3409091,12.8118182 13.3186364,12.9177273 13.3186364,13.0654545 L13.3186364,13.4231818 L13.9095455,13.4231818 L13.9095455,13.0654545 C13.9095455,12.9177273 13.885,12.8113636 13.8395455,12.7477273 C13.7927273,12.6836364 13.7195455,12.6518182 13.6168182,12.6518182 L13.6168182,12.6518182 Z" id="Shape"></path>
                        <path d="M13.8427273,9.76227273 C12.5890909,9.71090909 11.3072727,9.68863636 10,9.69045455 C8.69272727,9.68863636 7.41090909,9.71090909 6.15727273,9.76227273 C5.28045455,9.76227273 4.56772727,10.4545455 4.56772727,11.3077273 C4.51454545,11.9818182 4.49181818,12.6577273 4.49318182,13.3327273 C4.49181818,14.0081818 4.51454545,14.6840909 4.56772727,15.3595455 C4.56772727,16.2118182 5.28045455,16.9031818 6.15727273,16.9031818 C7.41090909,16.9545455 8.69272727,16.9777273 10,16.975 C11.3072727,16.9777273 12.5890909,16.9545455 13.8427273,16.9031818 C14.7195455,16.9031818 15.4336364,16.2118182 15.4336364,15.3595455 C15.4854545,14.6840909 15.5081818,14.0081818 15.5068182,13.3327273 C15.5081818,12.6577273 15.4854545,11.9818182 15.4336364,11.3077273 C15.4336364,10.4545455 14.7195455,9.76227273 13.8427273,9.76227273 L13.8427273,9.76227273 Z M6.87727273,15.6536364 L6.125,15.6536364 L6.125,11.5618182 L5.34636364,11.5618182 L5.34636364,10.8672727 L7.65590909,10.8672727 L7.65590909,11.5618182 L6.87727273,11.5618182 L6.87727273,15.6536364 L6.87727273,15.6536364 Z M9.555,15.6536364 L8.88590909,15.6536364 L8.88590909,15.2636364 C8.76272727,15.4068182 8.635,15.5177273 8.50090909,15.5927273 C8.36818182,15.6672727 8.23863636,15.7045455 8.11409091,15.7045455 C7.95909091,15.7045455 7.84227273,15.6522727 7.76454545,15.5477273 C7.68636364,15.4418182 7.64772727,15.2845455 7.64772727,15.0740909 L7.64772727,12.1227273 L8.31454545,12.1227273 L8.31454545,14.8295455 C8.31454545,14.9136364 8.32954545,14.9731818 8.35636364,15.0104545 C8.38454545,15.0477273 8.43,15.0672727 8.49318182,15.0672727 C8.54227273,15.0672727 8.60409091,15.0422727 8.67863636,14.9927273 C8.755,14.9431818 8.82363636,14.8795455 8.88590909,14.8027273 L8.88590909,12.1227273 L9.555,12.1227273 L9.555,15.6536364 L9.555,15.6536364 Z M12.1263636,14.9218182 C12.1263636,15.1731818 12.0745455,15.365 11.9695455,15.4986364 C11.8654545,15.6322727 11.7140909,15.6977273 11.5159091,15.6977273 C11.3854545,15.6977273 11.2677273,15.6718182 11.1663636,15.6209091 C11.0636364,15.5690909 10.9681818,15.49 10.8809091,15.3827273 L10.8809091,15.6536364 L10.2059091,15.6536364 L10.2059091,10.8672727 L10.8809091,10.8672727 L10.8809091,12.4081818 C10.97,12.3009091 11.0672727,12.2190909 11.1677273,12.1631818 C11.2690909,12.1063636 11.3709091,12.0786364 11.4754545,12.0786364 C11.6872727,12.0786364 11.8481818,12.1536364 11.9595455,12.3040909 C12.0704545,12.4559091 12.1259091,12.675 12.1259091,12.9631818 L12.1259091,14.9218182 L12.1263636,14.9218182 Z M14.5968182,13.9709091 L13.3186364,13.9709091 L13.3186364,14.6368182 C13.3186364,14.8231818 13.34,14.9509091 13.385,15.0240909 C13.4286364,15.0954545 13.5040909,15.1313636 13.6104545,15.1313636 C13.7209091,15.1313636 13.7977273,15.1004545 13.8422727,15.04 C13.8877273,14.9795455 13.9095455,14.8445455 13.9095455,14.6368182 L13.9095455,14.3913636 L14.5972727,14.3913636 L14.5972727,14.6563636 C14.5972727,15.0186364 14.5127273,15.2909091 14.3454545,15.4740909 C14.1777273,15.6577273 13.9272727,15.7490909 13.595,15.7490909 C13.2959091,15.7490909 13.0604545,15.6513636 12.8886364,15.4577273 C12.7163636,15.2627273 12.6313636,14.9959091 12.6313636,14.6559091 L12.6313636,13.0713636 C12.6313636,12.765 12.725,12.515 12.9136364,12.3231818 C13.1022727,12.1295455 13.3468182,12.0336364 13.645,12.0336364 C13.9518182,12.0336364 14.1863636,12.1222727 14.3509091,12.3018182 C14.5140909,12.4804545 14.5972727,12.7359091 14.5972727,13.0713636 L14.5972727,13.9709091 L14.5968182,13.9709091 Z" id="Shape"></path>
                    </g>
                </g>
            </g>
        </g>
    </g>
</svg>