<?xml version="1.0" encoding="UTF-8"?>
<svg width="62px" height="66px" viewBox="0 0 62 66" version="1.1" xmlns="http://www.w3.org/2000/svg" xmlns:xlink="http://www.w3.org/1999/xlink">
    <!-- Generator: Sketch 49.2 (51160) - http://www.bohemiancoding.com/sketch -->
    <title>Group 42</title>
    <desc>Created with Sketch.</desc>
    <defs></defs>
    <g id="Page-1" stroke="none" stroke-width="1" fill="none" fill-rule="evenodd">
        <g id="Group-42" fill="#000000" fill-rule="nonzero">
            <g id="idea-(1)">
                <path d="M31.0033363,14.3859462 C21.9204753,14.3859462 14.5307982,21.7756233 14.5307982,30.8584843 C14.5307982,34.575704 15.7496682,38.0880179 18.0539552,41.0139731 C18.5088072,41.5931031 18.9867354,42.1474888 19.4927444,42.7344036 L19.5205471,42.7666547 C21.0686009,44.5627085 22.6692018,46.4204843 23.2669596,48.608 C23.4020807,49.1092825 23.4212646,50.0704215 23.4134798,50.8108072 L23.4134798,52.069157 C23.4134798,53.2207444 24.3470942,54.1543587 25.4986816,54.1543587 L36.4173543,54.1543587 C37.5689417,54.1543587 38.5025561,53.2207444 38.5025561,52.069157 L38.5025561,50.7960717 C38.4956054,49.8290942 38.5456502,49.1234619 38.646574,48.7573004 C39.2476682,46.5842422 41.0214798,44.4976502 42.6006726,42.6404305 L42.6687892,42.5603587 C43.1244753,42.0248789 43.555139,41.519148 43.947157,41.0206457 C46.2547803,38.0930224 47.4744843,34.5790404 47.4744843,30.8584843 C47.4742063,21.7756233 40.0853632,14.3859462 31.0033363,14.3859462 Z M40.6700538,38.4411121 C40.3266906,38.8778924 39.9218834,39.3535964 39.4931659,39.8571031 L39.4092018,39.9558027 C37.5644933,42.1255247 35.4737309,44.5846726 34.6263049,47.6479731 C34.5064753,48.0828072 34.3733004,48.7333901 34.3393812,49.9839552 L27.579991,49.9839552 C27.5510762,48.6558206 27.4156771,47.9746547 27.2919552,47.5159103 C26.4439731,44.4120179 24.3568251,41.9901256 22.6794888,40.0436592 L22.6514081,40.010852 C22.1773722,39.4611928 21.7297489,38.9418386 21.3318924,38.4358296 C19.6109058,36.2505381 18.7012018,33.6301345 18.7012018,30.8584843 C18.7012018,24.0751839 24.2200359,18.5563498 31.0033363,18.5563498 C37.7858027,18.5563498 43.3038027,24.0751839 43.3038027,30.8584843 C43.3038027,33.6331928 42.3935426,36.2544305 40.6700538,38.4411121 Z" id="Shape"></path>
                <path d="M33.6787892,55.6053812 L28.2197309,55.6053812 C27.0681435,55.6053812 26.1345291,56.5389955 26.1345291,57.690583 C26.1345291,58.8421704 27.0681435,59.7757848 28.2197309,59.7757848 L33.6787892,59.7757848 C34.8303767,59.7757848 35.763991,58.8421704 35.763991,57.690583 C35.763991,56.5389955 34.8303767,55.6053812 33.6787892,55.6053812 Z" id="Shape"></path>
                <path d="M31.8340807,61.1659193 L30.3633617,61.1659193 C29.2562784,61.1659193 28.3587444,62.0995336 28.3587444,63.2511211 C28.3587444,64.4027085 29.2562784,65.3363229 30.3633617,65.3363229 L31.8340807,65.3363229 C32.9411641,65.3363229 33.8386981,64.4027085 33.8386981,63.2511211 C33.8386981,62.0995336 32.9411641,61.1659193 31.8340807,61.1659193 Z" id="Shape-Copy-8"></path>
                <path d="M59.7757848,28.7732825 L52.5823946,28.7732825 C51.4308072,28.7732825 50.4971928,29.7068969 50.4971928,30.8584843 C50.4971928,32.0100717 51.4308072,32.9436861 52.5823946,32.9436861 L59.7757848,32.9436861 C60.9273722,32.9436861 61.8609865,32.0100717 61.8609865,30.8584843 C61.8609865,29.7068969 60.9273722,28.7732825 59.7757848,28.7732825 Z" id="Shape"></path>
                <path d="M11.5086457,30.8584843 C11.5086457,29.7068969 10.5750314,28.7732825 9.42344395,28.7732825 L2.22921973,28.7732825 C1.07763229,28.7732825 0.144017937,29.7068969 0.144017937,30.8584843 C0.144017937,32.0100717 1.07763229,32.9436861 2.22921973,32.9436861 L9.42344395,32.9436861 C10.5750314,32.9436861 11.5086457,32.0100717 11.5086457,30.8584843 Z" id="Shape"></path>
                <path d="M31.0027803,11.3660179 C32.1543677,11.3660179 33.0879821,10.4324036 33.0879821,9.28081614 L33.0879821,2.08520179 C33.0879821,0.93361435 32.1543677,0 31.0027803,0 C29.8511928,0 28.9175785,0.93361435 28.9175785,2.08520179 L28.9175785,9.28081614 C28.9175785,10.4324036 29.8511928,11.3660179 31.0027803,11.3660179 Z" id="Shape"></path>
                <path d="M47.7352735,44.6425022 C46.9209327,43.8281614 45.600861,43.8278834 44.7862422,44.6422242 C43.9719013,45.456565 43.9716233,46.7766368 44.7859641,47.5912556 L49.8727444,52.679426 C50.2800538,53.0867354 50.8135874,53.2902511 51.3473991,53.2902511 C51.8809327,53.2902511 52.4144664,53.0867354 52.8217758,52.679704 C53.6361166,51.8653632 53.6363946,50.5452915 52.8220538,49.7306726 L47.7352735,44.6425022 Z" id="Shape"></path>
                <path d="M14.2675067,17.0730762 C14.6748161,17.4803857 15.2083498,17.6841794 15.7421614,17.6841794 C16.2756951,17.6841794 16.8092287,17.4806637 17.2162601,17.0736323 C18.0308789,16.2592915 18.0308789,14.9392197 17.2168161,14.1248789 L12.1319821,9.03809865 C11.3176413,8.22347982 9.99756951,8.22347982 9.1832287,9.0375426 C8.36860987,9.85188341 8.36860987,11.1719552 9.18267265,11.986296 L14.2675067,17.0730762 Z" id="Shape"></path>
                <path d="M14.2697309,44.6425022 L9.18267265,49.7306726 C8.36833184,50.5450135 8.36860987,51.8653632 9.18295067,52.679426 C9.58998206,53.0864574 10.1237937,53.2899731 10.6573274,53.2899731 C11.190861,53.2899731 11.7246726,53.0864574 12.1319821,52.679148 L17.2190404,47.5909776 C18.0333812,46.7766368 18.0331031,45.456287 17.2187623,44.6422242 C16.4044215,43.8281614 15.0840717,43.8281614 14.2697309,44.6425022 Z" id="Shape"></path>
                <path d="M46.2617309,17.6839013 C46.7952646,17.6839013 47.3290762,17.4803857 47.7363857,17.0730762 L52.8220538,11.986574 C53.6363946,11.1722332 53.6361166,9.85188341 52.8217758,9.03782063 C52.007435,8.22347982 50.6870852,8.22347982 49.8730224,9.03809865 L44.7873543,14.1246009 C43.9730135,14.9389417 43.9732915,16.2592915 44.7876323,17.0733543 C45.1943857,17.4806637 45.7279193,17.6839013 46.2617309,17.6839013 Z" id="Shape"></path>
            </g>
        </g>
    </g>
</svg>