<?xml version="1.0" encoding="UTF-8"?>
<svg width="94px" height="94px" viewBox="0 0 94 94" version="1.1" xmlns="http://www.w3.org/2000/svg" xmlns:xlink="http://www.w3.org/1999/xlink">
    <!-- Generator: Sketch 49.3 (51167) - http://www.bohemiancoding.com/sketch -->
    <title>employees@2x</title>
    <desc>Created with Sketch.</desc>
    <defs>
        <circle id="path-1" cx="44" cy="44" r="44"></circle>
        <filter x="-8.0%" y="-8.0%" width="115.9%" height="115.9%" filterUnits="objectBoundingBox" id="filter-3">
            <feGaussianBlur stdDeviation="3.5" in="SourceAlpha" result="shadowBlurInner1"></feGaussianBlur>
            <feOffset dx="0" dy="1" in="shadowBlurInner1" result="shadowOffsetInner1"></feOffset>
            <feComposite in="shadowOffsetInner1" in2="SourceAlpha" operator="arithmetic" k2="-1" k3="1" result="shadowInnerInner1"></feComposite>
            <feColorMatrix values="0 0 0 0 0   0 0 0 0 0   0 0 0 0 0  0 0 0 0.0880887681 0" type="matrix" in="shadowInnerInner1"></feColorMatrix>
        </filter>
    </defs>
    <g id="Summer-Page" stroke="none" stroke-width="1" fill="none" fill-rule="evenodd">
        <g id="employees" transform="translate(3.000000, 3.000000)">
            <mask id="mask-2" fill="white">
                <use xlink:href="#path-1"></use>
            </mask>
            <g id="Mask">
                <use fill="#A63A71" fill-rule="evenodd" xlink:href="#path-1"></use>
                <use fill="black" fill-opacity="1" filter="url(#filter-3)" xlink:href="#path-1"></use>
                <circle stroke="#FFFFFF" stroke-width="3" cx="44" cy="44" r="45.5"></circle>
            </g>
            <g mask="url(#mask-2)">
                <g transform="translate(9.000000, 29.000000)">
                    <path d="M65.7583802,34.7590089 L59.7064327,32.378095 L38.2247468,32.378095 L32.1727994,34.7590089 C29.8522666,35.6719164 28.363907,37.9536425 28.4637733,40.4452777 L29.1985227,58.7895903 C29.2404503,59.8369644 30.1016607,60.6643886 31.149849,60.6643886 L66.7814662,60.6643886 C67.8296545,60.6643886 68.690865,59.8369644 68.7327925,58.7895903 L69.4675419,40.4452777 C69.5672725,37.9536425 68.078913,35.6719164 65.7583802,34.7590089 Z" id="Shape" fill="#DBD9DC" fill-rule="nonzero"></path>
                    <polygon id="Shape" fill="#5D5360" fill-rule="nonzero" points="47.5397145 39.182567 46.2905726 60.6643886 51.640607 60.6643886 50.391465 39.182567"></polygon>
                    <path d="M49.7974238,40.1589764 L48.1338914,40.1589764 C47.5147479,40.1589764 47.0128387,39.6570672 47.0128387,39.0379238 L47.0128387,36.253203 L50.9186122,36.253203 L50.9186122,39.0379238 C50.9184765,39.6570672 50.4165673,40.1589764 49.7974238,40.1589764 Z" id="Shape" fill="#4B3F4E" fill-rule="nonzero"></path>
                    <rect id="Rectangle-path" fill="#B48764" fill-rule="nonzero" x="42.131063" y="24.5354757" width="13.6705462" height="11.7179987"></rect>
                    <path d="M42.1305202,28.1820854 C44.0669208,29.5765489 46.4316879,30.394475 48.9655219,30.394475 C51.4994916,30.394475 53.8642587,29.5766846 55.8006593,28.1820854 L55.8006593,24.5358827 L42.1305202,24.5358827 L42.1305202,28.1820854 Z" id="Shape" fill="#966D50" fill-rule="nonzero"></path>
                    <path d="M48.9655219,0.155362535 C44.0903948,0.418868249 41.3166648,3.08472652 41.3166648,3.08472652 C41.3166648,3.08472652 37.248066,3.08472652 37.248066,7.96690938 C37.248066,11.8726828 38.2244754,15.7477908 38.2244754,15.7477908 L60.6827065,15.7477908 C62.6357967,5.00687994 57.9977162,-0.332842182 48.9655219,0.155362535 Z" id="Shape" fill="#5C414B" fill-rule="nonzero"></path>
                    <path d="M43.1069296,11.7182701 C39.5198869,7.2335168 41.3168004,3.08459083 41.3168004,3.08459083 C41.3168004,3.08459083 37.2482017,3.08459083 37.2482017,7.96677369 C37.2482017,11.8725471 38.2246111,15.7476551 38.2246111,15.7476551 L43.1067939,15.7476551 L43.1067939,11.7182701 L43.1069296,11.7182701 Z" id="Shape" fill="#503441" fill-rule="nonzero"></path>
                    <path d="M59.7064327,14.7713813 L58.7300233,14.7713813 L57.4432959,12.4231682 C57.2401712,12.0523334 56.8170967,11.8625062 56.4012135,11.9386271 C49.9704258,13.1149046 45.7441578,11.6201678 44.1427703,10.8719852 C43.7232236,10.6759164 43.2238925,10.8048198 42.9542809,11.1813534 C41.9660666,12.5615698 40.8758151,13.6493789 40.2217999,14.25129 C39.858835,14.585489 39.3875913,14.771517 38.8940947,14.771517 L38.1915033,14.771517 C38.1909605,14.771517 38.1905535,14.7717884 38.1900107,14.7717884 C38.0830887,14.773688 37.9737243,14.7850858 37.8624603,14.8065245 C36.912103,14.9901101 36.2717922,15.8986756 36.2717922,16.8665367 L36.2717922,17.5741486 C36.2717922,18.5080878 36.8697684,19.3892444 37.7792837,19.6015958 C37.9841723,19.6494936 38.1834977,19.6629267 38.3744104,19.6477296 C38.8599014,19.6089229 39.2837901,19.9622539 39.371173,20.4413676 C40.201311,24.9909796 44.1761495,28.4416562 48.9656576,28.4416562 C53.7551657,28.4416562 57.7300042,24.9909796 58.5601422,20.4413676 C58.6444043,19.980029 59.042648,19.6439304 59.5054791,19.6536999 L59.7067041,19.6536999 C60.7852865,19.6536999 61.6596587,18.7793277 61.6596587,17.7007453 L61.6596587,16.7243359 C61.6593873,15.6456179 60.7850151,14.7713813 59.7064327,14.7713813 Z" id="Shape" fill="#C39772" fill-rule="nonzero"></path>
                    <path d="M43.1069296,18.6771548 L43.1069296,11.0322325 C43.05374,11.0791805 42.9970225,11.1215151 42.9542809,11.1813534 C41.9660666,12.5615698 40.8758151,13.6493789 40.2217999,14.25129 C39.858835,14.585489 39.3875913,14.771517 38.8940947,14.771517 L38.1915033,14.771517 C38.1909605,14.771517 38.1905535,14.7717884 38.1900107,14.7717884 C38.0830887,14.773688 37.9737243,14.7850858 37.8624603,14.8065245 C36.912103,14.9901101 36.2717922,15.8986756 36.2717922,16.8665367 L36.2717922,17.5741486 C36.2717922,18.5080878 36.8697684,19.3892444 37.7792837,19.6015958 C37.9841723,19.6494936 38.1834977,19.6629267 38.3744104,19.6477296 C38.8599014,19.6089229 39.2837901,19.9622539 39.371173,20.4413676 C40.201311,24.9909796 44.1761495,28.4416562 48.9656576,28.4416562 C49.629578,28.4416562 50.275452,28.3691989 50.9017869,28.2428735 C46.4531266,27.3315942 43.1069296,23.3951554 43.1069296,18.6771548 Z" id="Shape" fill="#B48764" fill-rule="nonzero"></path>
                    <g id="Group" stroke-width="1" fill="none" fill-rule="evenodd" transform="translate(38.128273, 29.715629)">
                        <path d="M10.8372492,6.5682395 L3.71323243,0.334741811 C3.3263865,-0.00379925849 2.74333601,0.0156040974 2.37982838,0.379111723 L0.0964740282,2.66246608 L4.63373849,9.46843061 C5.31733364,10.4938233 6.76810763,10.6375167 7.63949471,9.76612965 L10.8372492,6.5682395 Z" id="Shape" fill="#EDEBED" fill-rule="nonzero"></path>
                        <path d="M10.8372492,6.5682395 L17.9612659,0.334741811 C18.3481118,-0.00379925849 18.9311623,0.0156040974 19.29467,0.379111723 L21.5780243,2.66246608 L17.0407599,9.46843061 C16.3571647,10.4938233 14.9063907,10.6375167 14.0350036,9.76612965 L10.8372492,6.5682395 Z" id="Shape" fill="#EDEBED" fill-rule="nonzero"></path>
                        <path d="M26.2237033,11.6873333 L30.4718171,7.43921951 C31.0645014,8.40626648 31.3868956,9.54156633 31.3392692,10.7296487 L30.6045197,29.0739613 C30.5625922,30.1213355 29.7013817,30.9487597 28.6531934,30.9487597 L24.5076597,30.9487597 L24.5076597,15.8300176 C24.5076597,14.2762565 25.1249035,12.7859974 26.2237033,11.6873333 Z" id="Shape" fill="#EDEBED" fill-rule="nonzero"></path>
                        <path d="M1.21752666,18.2548943 L5.81042312,18.2548943 C6.42956656,18.2548943 6.93147575,17.7529851 6.93147575,17.1338417 L6.93147575,16.4467186 C6.93147575,15.8275752 6.42956656,15.325666 5.81042312,15.325666 L1.21752666,15.325666 C0.598383213,15.325666 0.0964740282,15.8275752 0.0964740282,16.4467186 L0.0964740282,17.1338417 C0.0964740282,17.7529851 0.598383213,18.2548943 1.21752666,18.2548943 Z" id="Shape" fill="#EDEBED" fill-rule="nonzero"></path>
                    </g>
                    <path d="M31.6372396,40.5056588 L26.3692963,38.2060219 L8.78293583,38.2060219 L3.51499255,40.5056588 C1.29731109,41.4736555 -0.0970167794,43.7055842 0.00542751214,46.1231338 L0.542479838,58.7942036 C0.58684975,59.8396782 1.44724611,60.6643886 2.49367045,60.6643886 L32.6588331,60.6643886 C33.7052574,60.6643886 34.5656538,59.8396782 34.6100237,58.7942036 L35.147076,46.1231338 C35.2492489,43.7055842 33.8549211,41.4736555 31.6372396,40.5056588 Z" id="Shape" fill="#5D5360" fill-rule="nonzero"></path>
                    <rect id="Rectangle-path" fill="#FAD7A5" fill-rule="nonzero" x="12.693594" y="31.3714272" width="9.7645014" height="9.7645014"></rect>
                    <path d="M12.6937297,34.2071666 C14.1876524,34.8932041 15.8425009,35.2766579 17.5759125,35.2766579 C19.3094599,35.2766579 20.9641727,34.8932041 22.4580954,34.2071666 L22.4580954,31.3708845 L12.6937297,31.3708845 L12.6937297,34.2071666 Z" id="Shape" fill="#F0C891" fill-rule="nonzero"></path>
                    <circle id="Oval" fill="#DEAF73" fill-rule="nonzero" cx="17.5756412" cy="5.98288231" r="5.85899935"></circle>
                    <ellipse id="Oval" fill="#D59F63" fill-rule="nonzero" cx="17.5756412" cy="16.2354527" rx="11.7179987" ry="11.2295226"></ellipse>
                    <path d="M13.6702748,17.7006096 C9.7645014,13.7948362 9.18063678,10.4276077 9.27290448,8.31440584 C7.1633662,10.3451095 5.85872797,13.1442132 5.85872797,16.2359955 C5.85872797,18.353675 6.47285097,20.3313248 7.53745748,22.019281 L13.6702748,17.7006096 Z" id="Shape" fill="#CD915A" fill-rule="nonzero"></path>
                    <path d="M28.7092325,19.6942705 C28.6310763,19.6688969 28.1493846,19.6535642 28.1493846,19.6535642 C27.6314643,19.6535642 27.1347112,19.4477258 26.7684899,19.0815044 L25.9257329,18.2387475 C25.5874632,17.9004778 25.1405076,17.6972174 24.6628865,17.6704869 C22.7623075,17.5641077 17.4919218,17.0912357 13.3045962,15.036651 C12.8576406,14.8173795 12.3116328,14.9369205 12.0436494,15.3564671 C10.9467492,17.0738677 9.58959982,18.4365803 8.82839124,19.136865 C8.46637618,19.4699786 7.99648932,19.6534285 7.50448534,19.6534285 L6.80202958,19.6534285 C6.80148683,19.6534285 6.80107977,19.6536999 6.80053702,19.6536999 C6.69361503,19.6557352 6.58425066,19.6669973 6.47285097,19.688436 C5.5224936,19.8720216 4.88218285,20.7805871 4.88218285,21.7484482 L4.88218285,22.4560601 C4.88218285,23.3899992 5.480159,24.2711558 6.38981004,24.4835072 C6.59469862,24.5312693 6.794024,24.5448381 6.98480105,24.5296411 C7.47029202,24.4908344 7.89418071,24.8441654 7.98156366,25.3232791 C8.81170164,29.8728911 12.7865402,33.3235676 17.5760482,33.3235676 C22.3655563,33.3235676 26.3403948,29.8728911 27.1705328,25.3232791 C27.2579158,24.8441654 27.6818045,24.4908344 28.1672954,24.5296411 C28.3582082,24.5448381 28.5575335,24.5312693 28.7622864,24.4835072 C29.6718018,24.2711558 30.2699136,23.3899992 30.2699136,22.4560601 L30.2699136,21.5663552 C30.2697779,20.6474774 29.5833333,19.9781294 28.7092325,19.6942705 Z" id="Shape" fill="#FFE1B4" fill-rule="nonzero"></path>
                    <path d="M11.7173203,23.5593376 L11.7173203,15.8412797 C10.6881283,17.3281466 9.51592134,18.5042885 8.82839124,19.1370007 C8.46637618,19.4701143 7.99648932,19.6535642 7.50448534,19.6535642 L6.80202958,19.6535642 C6.80148683,19.6535642 6.80107977,19.6538356 6.80053702,19.6538356 C6.69361503,19.6557352 6.58425066,19.667133 6.47298666,19.6885716 C5.52262929,19.8721572 4.88231854,20.7807228 4.88231854,21.7485839 L4.88231854,22.4561958 C4.88231854,23.3901349 5.48029469,24.2712915 6.38994572,24.4836429 C6.59483431,24.531405 6.79415969,24.5449738 6.98493674,24.5297768 C7.4704277,24.4909701 7.8943164,24.8443011 7.98169935,25.3234147 C8.81183733,29.8730268 12.7866758,33.3237033 17.5761839,33.3237033 C18.2401043,33.3237033 18.8859783,33.251246 19.5124489,33.1249207 C15.0636529,32.2137771 11.7173203,28.2773382 11.7173203,23.5593376 Z" id="Shape" fill="#FAD7A5" fill-rule="nonzero"></path>
                    <g id="Group" stroke-width="1" fill="none" fill-rule="evenodd" transform="translate(0.000000, 35.550204)">
                        <path d="M5.25084662,10.519197 L1.68307151,6.23797539 C0.573823721,7.37205405 -0.0647230822,8.92391545 0.00515613653,10.5729293 L0.542208462,23.2439992 C0.586578374,24.2894737 1.44697474,25.1141842 2.49339908,25.1141842 L6.83500174,25.1141842 L6.83500172,14.8949929 C6.83513741,13.2959122 6.2744754,11.7475786 5.25084662,10.519197 Z" id="Shape" fill="#6F6571" fill-rule="nonzero"></path>
                        <path d="M29.9012499,10.519197 L33.469025,6.2378397 C34.5782728,7.37191836 35.2168196,8.92377977 35.1469403,10.5727936 L34.609888,23.2438635 C34.5655181,24.289338 33.7051217,25.1140485 32.6586974,25.1140485 L28.3170948,25.1140485 L28.3170948,14.8948572 C28.3170948,13.2959122 28.8776211,11.7475786 29.9012499,10.519197 Z" id="Shape" fill="#6F6571" fill-rule="nonzero"></path>
                        <path d="M24.1251558,0.41696862 C23.743873,0.0356858923 23.1255437,0.0356858923 22.744261,0.41696862 L18.0239537,5.13727592 C17.7765948,5.38463479 17.3755017,5.38463479 17.1281428,5.13727592 L12.4078355,0.41696862 C12.0265528,0.0356858923 11.4082234,0.0356858923 11.0269407,0.41696862 L8.78809196,2.65581738 L12.4010511,8.52037993 C12.7153041,9.03043038 13.4104327,9.13979475 13.866208,8.7509135 L16.0316497,6.903117 C16.2552632,6.71233995 16.5996388,6.87123036 16.5996388,7.16513015 L16.5996388,25.1141842 L18.5525934,25.1141842 L18.5525934,7.16513015 C18.5525934,6.87123036 18.896969,6.71233995 19.1205825,6.903117 L21.2860242,8.7509135 C21.7417995,9.13979475 22.4369281,9.03043038 22.7511811,8.52037993 L26.3641402,2.65581738 L24.1251558,0.41696862 Z" id="Shape" fill="#6F6571" fill-rule="nonzero"></path>
                        <path d="M9.90914459,17.3025016 L13.5256316,17.3025016 C14.1447751,17.3025016 14.6466842,16.8005924 14.6466842,16.181449 L14.6466842,15.494326 C14.6466842,14.8751825 14.1447751,14.3732733 13.5256316,14.3732733 L9.90914459,14.3732733 C9.29000115,14.3732733 8.78809196,14.8751825 8.78809196,15.494326 L8.78809196,16.181449 C8.78795627,16.8005924 9.29000115,17.3025016 9.90914459,17.3025016 Z" id="Shape" fill="#6F6571" fill-rule="nonzero"></path>
                    </g>
                </g>
            </g>
        </g>
    </g>
</svg>